<mxfile host="app.diagrams.net" modified="2023-11-13T11:33:35.278Z" agent="Mozilla/5.0 (Windows NT 10.0; Win64; x64) AppleWebKit/537.36 (KHTML, like Gecko) Chrome/119.0.0.0 Safari/537.36" etag="ca2EiDEwHS9JAoRubHPl" version="22.1.0" type="github">
  <diagram name="第 1 页" id="B-qyxUS3mooHXOc2_EJB">
    <mxGraphModel dx="1434" dy="746" grid="1" gridSize="10" guides="1" tooltips="1" connect="1" arrows="1" fold="1" page="1" pageScale="1" pageWidth="4681" pageHeight="3300" math="0" shadow="0">
      <root>
        <mxCell id="0" />
        <mxCell id="1" parent="0" />
        <mxCell id="IDeXR4Nn8I1j4QwbW-1Z-1" value="Chat" style="rounded=0;whiteSpace=wrap;html=1;" vertex="1" parent="1">
          <mxGeometry x="150" y="50" width="250" height="40" as="geometry" />
        </mxCell>
        <mxCell id="IDeXR4Nn8I1j4QwbW-1Z-3" value="sendMessage" style="rounded=0;whiteSpace=wrap;html=1;" vertex="1" parent="1">
          <mxGeometry x="210" y="120" width="140" height="30" as="geometry" />
        </mxCell>
        <mxCell id="IDeXR4Nn8I1j4QwbW-1Z-4" value="获取ChatPlayer" style="whiteSpace=wrap;html=1;" vertex="1" parent="1">
          <mxGeometry x="220" y="180" width="120" height="30" as="geometry" />
        </mxCell>
        <mxCell id="IDeXR4Nn8I1j4QwbW-1Z-5" value="" style="shape=image;verticalLabelPosition=bottom;labelBackgroundColor=default;verticalAlign=top;aspect=fixed;imageAspect=0;image=data:image/png,iVBORw0KGgoAAAANSUhEUgAAAxEAAAFsCAYAAACzRDRQAAAgAElEQVR4Aey9CXBT5f7/37nznR/3Ozr6Rwd+F+9PHZcRcLgig6Iw7lfHBa+oFwSXUVEUl6u9el2u2wXFq7K7AKVlKZSttKGUNl1oU+iStrTplrZp0y0tbbokTZs2TZOcZnn/5yQ5yUlykrRQsIVPZjLnOc/+vJ4n7ed9nuVEGAwGTJRvbW0t6EMEiAARIAJEgAgQASJABIjAxCYQMVEEBFsPEhETe7BQ7YgAESACRIAIEAEiQASIAEuARASNAyJABIgAESACRIAIEAEiQATGRIBExJhwUWQiQASIABEgAkSACBABIkAESETQGCACRIAIEAEiQASIABEgAkRgTARIRIwJF0UmAkSACBABIkAEiAARIAJEgEQEjQEiQASIABEgAkSACBABIkAExkSARMSYcFFkIkAEiAARIAJEgAgQASJABEhE0BggAkSACBABIkAEiAARIAJEYEwESESMCRdFJgJEgAgQASJABIgAESACRIBEBI0BIkAEiAARIAJEgAgQASJABMZEgETEmHBRZCJABIgAESACRIAIEAEiQARIRNAYIAJEgAgQASJABIgAESACRGBMBEhEjBaXrR2FaWegNo0yAaPEyYQz6GQC49uZIWhUtTiTLcK+RBn0Dr84NiMGjTavp8MBb5RBVIiTUaEZcYY7TCaYvIHeND4uG9pOJyC7ycDLxwFH2HQ+mdANESACRIAIEAEiQASIABFwEpj8IsLahbw4EaoNQXo0XHiQZIHeDqhO/oaDsgHfILMRfHvfE9iVh30nVS6jfVgLVaMSCnkFZEWZOLjjECTyOjQqm9HRbwTjb8w79JAl7EeG0lWWXVuOjBwl+q0AHCqkR0vQwRZk74MsPhon6oY8xXodGpRl5qJCoYBCLkHSCSmqWbf7W1uSgrikagx6E5CLCBABIkAEiAARIAJEgAiMisAkFxEO9J45gF3ZbRB44M9a3GHChRmNNOQipVDuMbg5w7sy9yROV3gNcUVNCVJ3/4zd2a0w+2VlkiciUT7s8dVVZKFIzQAjSiTHl2EIw1Ak70FKPX92wBMd5tok/JbWBFY3AGbUJm1F3Jk+oO8M9otqwMCM1twTyK7vc8fxpnW6mFqIoiRQ+3lztxrpHsRXCIkPLgZdiQARIAJEgAgQASJABIiAMIHJLSIMciTsTEFDsCVG4cKFmYA1sEXV/rIgSGS+t0WLZveTfqkoGokF5chOFKN20AGoT2FvVhscnbmIy+mARZWPzAotrHY77Pw8OLdFD70JsGpU6DACJmUBznRZMVJ/ArFSNXqVFVD2CksnZxbqU9ixNx1VvNkHTgwpFDXIjotGfjdXGF2JABEgAkSACBABIkAEiMDoCUxiEWGGMnUnEqqCLcgJFx4MEoPapN2QaoKFh/JnYDazexkGUHIoBQ1WwKJtcc1oyItRJKuF/OR+xKbnI1OcB7lCjoLE3Ugo07mERG8dipW8mQWHHg3KHpwtzUSR3DUDUpwchbhsOaqrFSg/mYgT1f28fQ7eug2VH8G+ol6vh4+rHdlRJ6B0TXP4hNANESACRIAIEAEiQASIABEIR2DSigimXYKYuGL0Cj7GB8KFBwfTiZwYMZp4+5qDxw0SYmtE6qES6Nlg6whG2Doy3ShMjMeB2FiIc4qhHPLfCMGuvtIgf/dvSK4zOjM2NsrRNDyEssMHURaw52MYFfH7UawTAuBAS8avOCipCViS5ZyNqEjHnjh3/YI0gbyJABEgAkSACBABIkAEiEAwApNTRNg0KNi3G6fVrhOKAhoXLjwgAc9jqByH4yvgMuN5/mNxaqSIO6lET2MtWtglR4wGJcnHUazugHRfKhotauSKxJD3mAKWMnXlxbj2PjBnIavogZ3dSB3j3kjNr4OjFZm7sl0brPn+TrcOhbGHUB4gPFwRbU1p2J7p3vQdkJY8iAARIAJEgAgQASJABIhAaAKTUEQ4oC87guj0ZlgE2xYuXDCRx9PalIa4c1vL5M7Dhv7Sw4g6KkXLoA12gwrFkgI06K2ASY6EuDPOGQprXw1ORP+GvSnFaB30zibYdGp0m+3oKSmAkt3r0XcG+/akuU5Z4u9vKE/DblG1MANGAdHPR5DHj89zl6ZE43BZsGVgHhTkIAJEgAgQASJABIgAESACggQmn4gwKpAUJUJtsKmCcOGCGLye7ZL9yOkQWGrkjRLE5QDT14hCcRIOxMQgv8uCvvZG1JdkIUPqPumpvBhF5bXOJUY1JelIPqVEv4AScvSXIbNY49zr4NpIHbhBY0SZgthgYkcrR7ZM7TqxilFDUd0Ns6dJNnQpStHGbvamDxEgAkSACBABIkAEiAAROAcCk0xEMGhOj8YhmfBmYiBceDhCGuQfPIm2c9gPYVKKsXNfBur6elF66ASUZgaMDWAUxxHvXldkrDiKpFqXaujMjUN6s8DpSo4BVCanQek+HMq5vCm7OmBvQ3FyDMSNgRV1MIxTPIywMxrD7AyHBcqUbYiRnIV38ZcFRiPtqg43GiicCBABIkAEiAARIAJEQJjApBIR1s5c7I7NR0+g7exsXbhwYQReX3tHDg7mqAP2KXhjhHAxRhhZfeDcVO1assTGVp/ahaN5rpOV8hOicayQdctxcn8ianinyDoMatTKpMhKjMHe/G73iUvDqDwqtLeB3VR9ALKAFUkmKEvkYF9Rp5HuRZy0xykcRhrE2CU5CxabfXgYZjBQnjyK3NZg0zkh2klBRIAIEAEiQASIABEgApc9gckjIuw6FMdFI7tN4Ok9243hwsN2tQXKjGTIAwzzsAl9I7CbqrNa3X5GlB0RwTX50I/ig+5TnxxtOBmXj4BFSvYunI7eC8/JrA4VMnYJvDBOcFO1A4b6FBzK62KPgkJt0j5vPjYGjHviQV1Z5SzXrsrEL9uCbcz2bRLdEQEiQASIABEgAkSACBABPoFJIyIGqxIQdaIewd4rFy6c32ght11TjAyZTvCdC0Lxg/mZq0UQyd21tDdDHCeFlo3Mvqn6sAzOA5P6S3AgVemcGfDJx1KHpJ080aArxr5j7Nup/T7Ot1b7bqo2KMWI/jkOpTp2r0MXTsekotG7X9uVAXuErCgHnaygMFUjJakW9M5qP7Z0SwSIABEgAkSACBABIhCWwOQQEbZO5MeJEPS9cuHCw2Gw96P2jBLnvtfYiv6WCpRVyZFzKA6FTtXgXFOE3XHZqGFPRipORvSRXOfehtpTh3HgTF9ArSx1ydgiqvaIBkttEm/zNANdSzkKciTIOByFQzLnWyg8eYwYtNAMMm4RpEHR/ijsOXwUR49y3wQkHD6AAykyaJyqxAEH7a328CMHESACRIAIEAEiQASIwOgJTA4RMfr2nENMBwbamtyG9Tkk9yRhoC5IRGJhO7itDmalBJnKwH0Hgy1laOjznyYARrrKIJFzCgToKstEpcZ3A4ilWYL4tGroaF+0hzw5iAARIAJEgAgQASJABC4uARIRF5c3lUYEiAARIAJEgAgQASJABCY9ARIRk74LqQFEgAgQASJABIgAESACRODiEiARcXF5U2lEgAgQASJABIgAESACRGDSEyARMem7kBpABIgAESACRIAIEAEiQAQuLoEI20gfJsq3trZ2wtRlojBh69HXa6MvMfjdxsBE+i1QXSbO32vqC+oLGgM0BmgMXN5jgETEBBJRwX6MJCJIRP2eYyDYuCT/y/ufB/U/9T+NARoDNAYu7zFAIoJExO/2hPv3NIyp7NELM/oncXn/k6D+p/6nMUBjgMYAjQGhMUAiYoKLiIiICLBfMnpHb/QSq/FlJfSHg/zoHwqNARoDNAZoDNAYuLzHAIkIEhEkUGi/RcgxcC7/JAZk2/GPxXfi1uveRjqjo71OE/zvzLn0MaW5vI0H6n/qfxoDNAYERYR1qBttby5H06P3oPnJ+9BaloUbD76Bq/eswMzDq9FjaLsgRgFtrA4ckDQTMb5P1WmWYuw8x/qPwsqUY+v9f8Kzm7PR3t+DERIRF+Tv5Vj7heIH/n0lJsSExgCNARoD5z4GBEVE1aEkp4BgRURfYqzzH2BKy2n8f3tedAqJ5zO/g3Vk/J8ukogI7EhORHiv/wdXXzcbi5atg6iKCfkE+UIZzDq1HPvXfovVT65Fstb6u9SBa5tOq8JPC11Lvq59R4Jed3106Z9jBrsUbOHPqPqd68jV9VyuOq0Yr7iXtEVE/B9cdd1cPPrmzxDXWi4a97H+gbUySXj/quUQGcb/b8RY60LxA/+mEBNiQmOAxgCNARoD4zEGAkSEpFqPpzYM4czqD9H5daTPE7RPC6OcIoKdkdhSGe8TNh6VIREROKg58bAk4nlENzPQdQ+hpbwQv70yB1c/GYv638FAZkVEbOQzuCHiTRz9Hcr3N8Z7VUfwrFMw/AK5uz7Vmx5FRMTfsVs1ctGMbf96jde9VnUYSyKexfZ6A1praiH6filunfUPHG+6OAJurL9tK5OAt6e8DjHNQIz738ix9gXFD/ybSkyICY0BGgM0BsZnDASIiGW/DOGR/xrxxvZ+GHs7fP4JDpu7cX/SP51CYlrsKxgydfuEn2+nkIgI7FRORLziZ7DrmuLw1NRIpP5ORrxOk4qX/eo0XkZzqHzyv1wXIFxcT+vnYNbcVUjoskKnteDo61ch4neoX6i6n2uYq31ewabTmpH3xTzc8VWlZ+ZltHkL8QuXdqy/axIRgb/jsTKk+MSQxgCNARoDNAYm+hgIEBEJRQNOEcEKic3iQR+RYG9di5aCufh/ca/h86Jon7BzaSgrGsJ92XytTC/6znai9zJ8shlURFTvxIN3rkfJ7yUinMtsvIZtOEP0fMN1GiOUp3fh+T8Hlukysl/Da68uxLeFrIioxX8euxk3XqIigmWpk/6EOfdsQcUo+z8Uv3B9M9bftnX4MFZe8SYyLsPf61hZUXwyEmgM0BigMUBjYLKOgQARwTbky3iDR0jk1OidYsHelwnkXwHkTUFe2fsYMHRhxNJ7XkKCFRChPtzMRMnWTETMk+KXE4WY80Aa7tnShJJEKebcL8acr5RQMzpYGQ1kh4vwyDPpmPaYBMu3N6Hd5F2T3VdVgw/fycaN96XiyvvTcfuKU3jgi1pnWrbNocJZEXM2vwKvvJKJ6femYtpTOXjn2FkM84ykgdoavP1aJqYvFOPGFVJEfpuLWUvLUOGOE65+wQaQv4hgn0K3ludi/cqV+DZDC51WD9Gni/HIogW4bfq7SND2IuvHlzF3+lTc8EQMZG4jU6fVIO3blzBvxlW44k/z8Nw3OVBqXMth2Cf3NaL1eGHhTEy74kpce8uDWBlVg26egarTaJC1/i3cd9sMTLvxXrz063os5xnpOq0RlUf/ixfuuwMzrp6K6+b+HV8d63A+KR9N/irJbqx+bB6un3oFrrjmesy8+1Esenkf6rSsKKjCF7Nc+x44HvxZBu5J/fr1j2BZ7CB0qiN46a33sYJfP40Op7a8iwdnX4drb7gbz391Eoou73KgUOWzRnao8NG0rz0/Fq/fNxPTrpyK6+9+Ee+tehq3zf0O+Vz/hKgf1z7+0jFd21E8e00kxE4+ofsvPL/Q6YONTSF/K9OD7vT3MX/xr2jj/T6E4pIf/eOkMUBjgMYAjQEaA5N3DAiKCP1gH5b/6lrW9LdNRqi724Dim5wCAoXTYB0sR3puPkzDmosiIqwmJV6dl4nVqWfRrZLj0UXZiEw5i56OGiy+q8h5hOTZY/m46/MayDo1GOrvQMamHDy4u915MoyVacU3T2Xj45wOaAy9MPZ3obm6Eb9sqoHcKUDCh//n+Vxsq+uGcbgXmspy3HvfGZzyCIR2/Pj3bHx6Wg2NvgcNp0ow92kZSs1eEROqfqF+QJzR7N1cG4GI6Y/iK1ErOp0GpBn1hYXIFK3BfRFvYEPMZ4iMKoXybCNEu4vQ7DZSlTEv4Oa//gixvB9t1fn47rFbsSRa7dwvoNPK8NkdS7BB2o3OrmE0S9bhbr+lUvJfn8FNj66HuKof6pYGHF37LG7iGelNR97CDbeuwMYTDWjpGMZZ+UEsnfkpspx1DJ2/TluGT2+5E/+IV6Kpw4QulRoVpzOw/qPdkPKFTJDZD87Ijk/5CHd9JoMu/d9YGX0A/CVgtVF/x7wVsThVOwC1qgmifz6E+9bVukVO6PLD1S8cP51WgTVz5yEysQHNKg3Kjv4Lf7ntK+R0e0VM6Pqxm6t9Z2B0PSfw4pR3cGwUfLmZBo4TX4w4ZzXC9H+o8ekfxi5l+mjucmwvvTAnuPmXR/cT/58P+7CJMWthMZ3f/wvq64nf19RH1Ec0Bi6vMSAoIthBoDf0Qa3rd34HBjpgG6pyfYcbUVpZjpgjyRdPRDANeHNeoXOjplXAnWppx4YXchGr8RrtVn0dli6tQJ1TJKixc1UWXo5rQvnZHpj9npBamdDh3I/CatagVd4EkegMFrrrw4ZZmTaseTobnxR0YnBYiy6ZDAsWy1DuERkdIevH5S909YoIlxGp6zagWZaPjUvvxTNRLZ5Nwy4D8S5EpvV4/LzGYxP+u2Ae1hZ6Nxn3Fq7H3Ls3oYxvpPfoIc+RIG57JBbwjFadVolv583FGqk3Pd8gdZ2QdAs+FA95ytZpDVCUd/rOZgTNvwVbH/kLlq0/ibzKPvTw6sS1wWXsBhrTPv7KfXj86f0o2BSJH2XeuGz9v5v/FLYrvUa7rjUeS+b+5FwOptOGLj9cOFdHXdD2VeDz2+7Eh8fOoqPLCGXGfzD/1v8gz93O8PXztsVTluoInpnxCU7yWAUr35MmiAjzhAepv9C4DObHzrjpciLxl1mfQeb3OwuWhvwvvX86nHAwD2vA/1JfX3p9TX1KfUpj4PIdA0FFRLBBMTDQ6RQQ4ykihPZFsMucuOVMQsKBPfmF80+1NOGDRSmImJ/q+72nCFmcIW9QI/94BSI/kOD2Z0/jnZ1KKHlHUFrDhA/VVGP5s5lY8H4hPt4qxd08EcGy0mYVYd4zWZixUIwbluZjQ2mPZ5bGyoSvXzDe/iLCY/DV7cYjt6/zPKnnG/VcHO6q00rw9lUvIU7NM6LVIiy7+kOkuI1Qdd5OPD9nJuYvXoV/fPoq5vuICIH0PINUp83B6qtXYH+HN3+ubO4aKn82jq6jDenR6/HOMwsxc87jWLnmOGTtvvkFa6PXvxT/ujsS//x4DbJ86sfW3385VAQi/vc9HOcM+TDlh6tfuPa1HHwLc2ffgT9dORV/vnMZvkvT8ARX6Pp52+floTv9HW57ZKfndK5w5TsZ85hw/cJdQ6UPNjaD+VuNh/A6nc7k+f0H43Sp+vNFA+tmZyDYKzsbcam2mdp1+RpR1PfU95fzGBiziOjrV4+7iAi2L2L0IqId65fmYh9vJiJUpzKGLpwRSXHnG3I0Czwt9Q9nZyq2vpyNL8tc0/GceOGOsGSXS331RB4O9nlnQvjlW5mOMdWPnzaoiGiMw5PXutbEhzMQXTMJC7G+jGeEyn7GgvkbnHsmdNpm/HjvPPzrpN5p2PobrTptNb6e8xA2y3np1SIsdQsN50bmO+7BjzJvOFunthKle09D6Pw5Q5a7ats7INm2Enc8FOWzcZit16s8caNt7oXKuZyHe1I/iD3PT8OMt4+ji2cw67T1WHvnYuzgzURwZQldg5XPxfUPD89Phk9ufhYxLb58uPzC1S+wP4aQETkHC39scPfX6PgG5xc6PX88jsZNpzNdPv9U2RkH7suNDdfSJa1nzxwbzooI9srFoevlM0aor6mvaQxcumNg1CLCbNIiOeuUR0CwMxHsNyO34Jz+MYxYdM6ZBrPZLKghzGaTM5yNZzXU48V5UiQahNwFODrYi6ZDuZj/RQ2Kz2pgHNaiW9mA//5c59zcaWWa8fWHZRArutBv7IXFqEFzbinmPSlDmXNGI1x4Cz56SILvqjQw6rtQflqGh+dn4619DU4Rwi7hyNsswYynJHg6shAfrC/DpoQGVGld/zStjC5k/UL9wDgR8WzEC9jTOgKdxoSz1TJEvTIHf37lhNOIZo3R3rMJeD5imTMOZ5zyr/JfFuO2Z6MgqRtAe50MPz83B09ta3Mbofl4f/o9+FKiQ2drB/ISv8QDf1iA135McxrxOi2Dom8X4fZXDkGqNKCzuR5xa5/DrIiZePabTFRpGJT+8CBuWrwZ4jIN1Go9KsW/YtWX2VA7jfxw+Z/Cp0u+RUJBO1rVFmg6dagQfYK5t3yDXP5yHW0hIq+7G19IdOhqbUD0twdRqbXC9Z4Itu1WFK6Zj8d+UUPXnoC/u98TodOOoHzzU7jz5T3IrtShs2sIDYVifPPpYVQ76xe6fJ02XHi49umQ9vG9+NMt9+OJZ9/A2x+uxfe/nEBBo+tlgeHq52rf89jZMIjmilLs/fgxXD/7Y4hVLlGi04YunxsHuiD8wqUPNT6FwqxMIlZPeQnJw8KiWigN+U2ufzLs37TAGQfhmQZWVLBx2TTUz5Orn6m/qL9oDNAYCDUGRi0i2Ez8hQQrIM7n6ZKqpRGNjY2w2Ww+QoK9b2xUgg1ny83+XuxcpnTl2kZkrHUtWeK7r/m+CVZzN6QHivDos+mYel865n9Yhiw1Z8R34Of3JHj0dQluvV+MKQvTMfs1KX6VuZYcsTMFocN7oTxRiIV/FWPqU7n4TtqGg/9Mxw2RCpx1ipAuxH1wCmuqNGCGNejpaEdJWgnmv1Dp3JPBtiFU/UJ2kOdtxdxynCm45sZ5ePK9WOSr2JOLvG9s5gRHxPSPkM4zvlkjUtfTgWNfLMVfpl+Fa2+5Dy/9IEUT73QmWcxqLLhuKq6+ZTG+TK5AzHPX48/PHkAtt9ynU4UjnzyHO667BtPnvohNOQn4x4JX8M91mc4XvOm62pG89jUsmnkdrr72Vix6ZSfyPEauBaHyZ5/E//TkQjx0/124+Zr/xZQrZ+C2+1ZifYbWs+TH2QYtgzPbX3GePDXt9qVYnzMAnVaL7U+62FzxZgZ64n/A91KvH/fGal1PN05ueA8PzbkBV199Pe5c8i2O13BGfOjyw9WPPZ0pdPs6sPNvD+NzyQC0XQNolNdBsi8Sd87f4DmiN1j9XLMQ7r7/wxRMvX4ennjrV6QpvG+sDle+V0QE8nNxDV3/UONTKMzK5GPtnOuxfMcpdOh7nIcbCMUjv8n1z4kvAjgBwc1C8O/9+5VbzuTvT/eTq/+pv6i/aAzQGPAfA2MSEWxiTkicr4DgKtLddRZtbW1wOBxOIcFe21pV6O6aPKe7WBkVPn8sE++wp0cZtDAbuqHIPIM5fytD5Xk+feOEAWcI0tXmIywmAw+dthj/vH42Vu6Wo6HdjJ6OHpyJ+xCzZ65FgZ/Ym4jt4X6rY7l2Sb7FKw/djhunr3KenjaWtBR34vyjYkUCN5PACgW2b7hZCP5pS2w8NlzooZLF5JqJoH6dOP1KfUF9QWOAxsB4jIExi4jxKJSfB/sPqbW1GT093U4R0dPThdbWpkk39a0pk2P1qiz8eVEqrnowA/PfKcZe+fkfaUgiYvKJBiEh0Jy5Ha8/8hfMuOoKXDntZtz5+AfYdsq1B0Uo/kTy4/9eyX15/OPhRAE3w8BeuY3R7N9s1s0XDFx8vh83Vrg8uHu6Xh5jiPqZ+pnGwKU/Bn53EcEOMsbci8YGJdrb251X9p4Gn2vwkYi4NETERBIFY60L/RYv/X8E/n3MiQJ2FkFIGPjH54QCf8kTF4cL4+7pevmNJ+pz6nMaA5fmGJgQIoIdXEOD3c6N1OyVBpvvYBur0UfxSXiM5xig36Pv7/FS4cGKA26pEXvlCwDWzZ99YOOyX34cjgPrz8blL2/iwtgrtydCKC0/HrkvzXFG/Ur9SmPg0h0DE0ZEsIOMO9KVBpzvgBtPg5DyIoEx1jFAv0ff3+OlwIMTCS7j37VngXVzhj4/nPXnf1nRwGfAhXFp+WGsm9tT4Z/OPx7dX3rjjPqU+pTGwKU9BkhEjEz8Dh6r0UfxSSiM5xigfwIT/2/EWPvI37Dn7vmzCZw44JY0cXFYf648/1kI9p6Lz4/Dpg0mMrh4dL30xhn1KfUpjYFLewxEGAwGTJQvOxNBHyJABIgAEbiwBKxWK0ZGRnxOxWPv+X5sHPbL/3Dp7Ha705u759JyV/90/DzITQSIABEgApcGARIRl0Y/UiuIABEgAqMmwL6LhzX4OTHAJuT8/N/bw8+Ujc9Px4kG7sqm5efJT0tuIkAEiAARuLQIkIi4tPqTWkMEiAARCEuAEwP8GQMhP/a9PXxRwAkNzo8VDyQcwuKmCESACBCBS5IAiYhLslupUUSACBCB4ARYccDNHvBf9Mn5sSn5cVixwS1d4guP4CVQCBEgAkSACFzqBEhEXOo9TO0jAqMm4MCguh4KhcL7rSlBuigTDQbXG+UtnVIkS1pgDpWnw4hOJS8Pfn6cu0aGrMNxOCHXYkQoL/sAerqNsHnCelEiSoT07LDLxzGAxupWuO88sUI5HHY7XK3wxuovT0VanT7A3xtj8rhYo5+bKeBmCDiBwLWCnUHgZg44UcDecx++iGD9+EKCy5OLS1ciQASIABG4vAmQiLi8+59aP9kJWLuQFydCtSFIQ8KF+yWzmY1oz4/HaTUb0I3cowXQwAFDfy96G4shyZNDPcCgtzoPUrkCCnk+Uk8qYfTJxwHz0ACMjNc41Uj34qBM7xMr9I0VPYVHsE9cgz42G6sSJ2LZurCfEXQXHsIeUQFaBv1lwQj6VAICproYx/ccRFEPX7I40Jweh6Le0DWZDKHcUiTW0OfEAV8Q8MO5OHyBwLr595OhzVRHIkAEiAAR+H0JkIgYM389foqsR/WY04VOYO3pwfov8zH7YTGufSIHz21qh9LES2MehOjnYix4PA1TH8nGw18qUdjHCz9nZxPEm3/APxd/jaxzziN0QvkPc8G9eZt/vfmrM6ETTsJQs34EcT8OQXJR6u5A75kD2JXdBkawvHDhQokY1B4/jqxoTX4AACAASURBVDo2w2E5ROIG2DCA0ngR5AMMrFbWaLdBmZqASiPgaMtGYmk4cWCCPCEa+d1C5YXws55FVkwS6tjfQXc+9ogbwc4lDChPI7u8GxY2qWMEI16t4szMxjCwMkokH5GB1VbmahES5d45iyF5KpIqdbChD0UH09DiOmgoREUmVhBn8PNrxQkGNoz7cGKCnWngBALrxwoKLh5/5oLLgw2nDxEgAkSACBCBcARIRIQjFBA+DFFsB5wPagPCztXDiN++qIK41QyjxQrdWQ22fpiJW77vcRpB7JNXye4aHFIMO5/u6tW9iPpXFqZ92oH+cy3Sk64JqWtfwKyIVUj3+I2nw4gjby7BDnkvLJYUvBbxGk4wDAzNh/DSm3EIZ36OZ00ubF52HP6PFv/32V5MXzKI7AtbmCt3gxwJO1PQwBeb/HLDhfPjetxqSPYdQxG77KggEQns7IG9CeLEchjRhdwDJ6Ac0qAg/hQ6AehLE5F91mu4erLhO2xNEEdlQBXWNjWiq4E/i1CLMlkZahUKyLPisPNECRQyCVKzZU4/hUIOaVI0dmepXIKCX2ZnLuIk7U6ftuw4p4CxsUeaAmjN2u8SNEwdkuLL/GZR+JlMHDdr9Psb/JyxzxcI/Bpzsw+scGA/nHDgx2HdbDw2Dps/l6d/HLonAkSACBABIuBPgESEP5ELfC+PqhMw1vuw9m0F5PyytSo8/kAVCpx+Wnz1XbtbULgj9bTgr/dXIZ+f5pzd6Vg1TiJC/t//+rVPhqhtpe617fxyHFDsiUXpOdd5Yia0DZrwykUREWYoU3cioWowCIhw4UGSDZUjMaPFaWzrio9CwgoEbSGOsuubzNUQJddhhKlFUrICI84ZiWOoDrlBAoD6NHYeVwTMltgNGvT6CCAHLH7LoKz9tRAnZCDjaBSSCpVoaNfB5Dfz4GmJ3QB1vUuEyE/ux970CigUFUjbsx9ZZXmIj9oPaZcWJQdPQMna1erTiDs1vo8DPHUZhYMz/lnjPdyHmyVg4/LFBJuOy4eNw/8E8+fHITcRIAJEgAgQgXMlQCJiDORslhH09xlRKtGgZQzpnFHtNmjqVVjxqMzPyA6SUU8LHnujCa5nqUbE/6KCkh/V2I5lz9ejju93zm6+cX+Omdgt0FTtwYobQs1ojEM551i90MkysHrKFPzxj3/0+U6ZshoZoRMKhFrwwUUQEUy7BDFxxegN8nQ/XLhAxZ1e9uZ0iMqH2E0IqD8hcgoEpvY4ktn1Te0SHC3WAR05SGCv6EFeQr57nwJg059FHbdxmnctE+9GdEqpd7M2GyaXIjFqE35LrIResA12DLUVIjW1EB3DfSjan4gasw1DHZXIFh2GKLMY9T0mvw3RdpgNgxhmhlGTlIgqZzMakHKoBANcg9nZh4MlzhmwofJ4V7u4sItwZZ/0c6JByMhn/dg4/BkB1s0KBKF0XDxOZHD3bFP8012E5lERRIAIEAEicBkRIBEx6s7W48flGbjpETH+MI8vBHTY/J4U9z9diYzBPkR9nYsbF4kx4xkpPjtldBs5eqxbkoKI+aner08e3kqMmBi016nx09oKxDb5vi3WGwvQZ5dhaYLvdlZ+eKDbgtaMH/Hqw3Px56lTcf1dS/FfSZe7fi7jXqyRYusbD+DmqVdh2m0PI/KYyj2DYIVasgGvPjgT06+8EtNmPoR3D9TxnixXY92cCL99D0JiIpiIyMDqK6/E/0ZEYFWqFUh/x53XKqShBjtfWowHZ/8TSYr9eGPBDFzz5zuw+ONDqOc336FHecx7+OtfrsO0mxZgxQ8SdPo+mA1EckF8QokIVqycizDxq6hNg4J9u3FaHaSB4cL9suPfagvjcDSPfZpfguQjro3MHTkJYDXDYFkiMlV2zxUmOUSpSu8JSlYTBg0mjPBFgb0bp/ckoLq7DnWjfOjvMGuhkGZCIlNjmF1/xChwLPo0uriKOoahPpOI7Zujke/x5AIBx0AZEk8o4Jzk0EgRl9XqDdRUILOC3Z5tR3P6QWe7vIEX3sUZ+6xYYD/cvgXW4OfPMPiLBi4+Jwy4fDhhwfdn/fh5cWkvfOuoBCJABIgAEbicCJCIGGtvW9V4zUcAMGiUKfHEvNN4absSx+vYfQtWqPMqMfvxash88u/CKp+0PoEA2PAURDwixfozwzwj3S+evgfrozrRzTfW/KL43+rS3sZNs15EVG4z+k0MhjoO46XbP4drazNr3C/Aiu9+gbhchf7hYXRmRGLW9Vx4BdbOexY7arUwMwz6yv6LhddEIs+/EAQTCVzEEOGOSqxZuR0dzqhmJH/yLpKdJ+kMoDlnLR6MuBNLf4yDrNMIk74BSe/fgbn/kXkYqQ8sxd0r96O8ywjToApZXz6Mh7bU+z2p5upxIa+hREQfmkqacH774R3Qlx1BdHpz4D4AZ7PChYdqO7upOtlvU/UQZInpUNkZKFNFqDLa0ShOHPWmarMyBTvFjWAYBUoq2KmB4B/bsAbNtZWQldejx8gt8bFixNgPrYHx68sR9FRIUe+ZYnDn6xhCtTgF1e5Tm0zyRCRUedWmw6SHpm8AQ4NNyNibAVWY7RzBa3tuIayxzzfq+cY/KwzYe74fvxS+4GDz4IQEF4efjg1j4/PL4uLRlQgQASJABIjAeBAgETFmikJCwOUn5uweNk9HJ94MEAxCaX0rYB8ZgbZNi6hPcvFyutf48cQa6sehxB508svyBAZztOHXB27BZ1L+AvRhdLZq3EY4a9y/iTS+QWUTY6X/PgmbAe0Vp5AUF4lF/mHOokOIhFGEy9dHIq6HfTwrxcYtxfBqJDbfNyD2egDqaDwyZ537lKwmbLpnMfZree0fSsCyu9b7LgHjBfs6J9FyJqMCSVEi1AoMDWebwoX7NtzvTg1JQpFT5DhUJ12bqo3VSIhKQEF1IUQHpdBCg4KjrlmB/pKE0JuqHX0oPnAApX3swOpFUU518PdL2I3o6x3CCH8MsrUz1+LYjqMo0wrMyjEWWPhjAhZ0nJFA1slt0rCjJXMvUiq6YHQndzCDUCtO4eBv23BUpvHOoviRuFC3rFHPzRKwZfDFACsCuA9fMLB+nEDgx+FEBN+Py5PLh65EgAgQASJABC4UARIRYyYrJATOxy9IBfpUWPyM32ZrQx8OijTo8doaQRL7e+cicuqLOMbXED5RhIx/Xz+TPAYr5s7EPc+9hU/WvIYFF0BEQLkZ72xTgTm1Hptl/Eb61sVZdctxvHz1hzjtvDmND6/2X04VgYgr3r9IR63yYYaaieDHOxc3g+b0aByS9fs9lefyChfOxQtyNZQjMa0OA1o1ajL2I7G4DRrjIPR6BvaOHMRLNYC5BqIkOYzsvoPjoTZV26GTxSMuV+15mZz6tAhndP4qwVWX4Z5G3z0T7j0VtblH8PP+TFTx9li4XoZXjqy4bThQ7BYCI3q01SnQpueLDSuGjX0oO7wTaU1DXmaMGYMmi/c+CI7x8maNfFY4cLMCnPHP3fsLBrZcTjSw6fj3bFw2jL1y6bg441VfyocIEAEiQASIwGgIkIgYDSWfOOcjGLrwFm92wj7IuDd8DmD9BwpU8svpVeGJx6q9pxeZBxB/pAtq3gxEj7Tb90Qnfnofdz1+mncvfmn28YShsRGuo/sFjHSfpUkq/HL/fHxdwr3RTCg+m3cG3uKJC7te793Q6iw6WDquXi3Y8vo32LBuI8p9bM3AdI66DZh39wY0OJM2YMPdTyNuQrw07MKJCGtnLnbH5qOHNwY4cuw1XDg/rr+7v06C40fjkZRVjNq2LshEItRwD/TBLhFKRa0BcJyVIF7ahvaCo9iX2RT0jdHWnkIcOlQEDc+mt3fnY9/BImiEtnIwRgwYGdj4/W7vRdHBIyjXG1AnawhalrMt7DIgdvuETuUnRqRI2HYYuZwIqS2FeO9vOFDUA17V/HGM6z0388CJBu6eM/45wcCKAu7Dn6Fg/fj33FIlLi5diQARIAJEgAj8HgRIRIyRumO4HSvmFSOet7zbbmzH8nnF4O9z5uIdNvCtIh0+/+sprKtmYDEO4dCeNri2fBqw9ZNKpJ61OPdT9HX0IvqzbNy9vc+97p1BzmEV5B6jDmD6evH1Nw3w0wVBWmNHwy8P4ZbntiJf1YdhswGtBdvwj//mOA0z+2A8Xoh4AQlD3ro6jIlYEbEUh51H50jxrz/di+/L9TAPdaHq5Nd45A/34O1fM6HyKfEMPr9+AdbJ9LAMNePQpsPu9rkiOQxH8ULEUsQHvGXYm0nr9ocx59tyv6fErIiYhVeiT6NZZ8RgWx5+euoGPB7lOooUcEAVvRh3rYpF6Vk9zIwJ2vp0/Lg23r3Hwpv/hXYZzxrxtyX92FRvh9mL013seeyJsOtQHBeN7Dbh18ohXHiYhjsGetDj3MXMRlRDcog7dckOfXUmspSu9VP9JfHIZDcSsG84DpKntV8BsSgbqoAlVyY0iqOw7XAeVINeg1k4mxF0S48gQdbrFAdmVS7Sy7jld8IpnL4jwxgcMsP5TjzWY0CGA4ny4MuoQmR1LkGcQGCFAffhRAInIrh7VgxwH//ZCdafm2ng58XmweXDpaUrESACRIAIEIHfgwCJiFFTFzhhaQm73IidmXCfvLRE4V6jz4vLm3lgjV3l8VLMf1iM6c8WY7vCa0QwHZ34T+Qp3HCfGH9ekofXd/XAe/gOrwz+CU+ftI/eOBrpRM7G1/Hg7ddh6rRb8eBbMahyTiywBrp7KZBnjwH/tCX2hCQrmuLfwaLrp2LqzKfx/Wk5Dq+4HjcsP+T30j0blHGvYv6MqZh+xzJsr+BZkeweBq6ciEcQHeSkHmPqd9gk9zdPXTMR+3K+xZO3XYNrb74XL68/hW6+HWrTojjqfTw29wZMnXo97lq2DpJOryE36m4+54jel82xL5xzvnTuY6P7iF4u03M/nWmwKgFRJ+pdJw5x2fGu4cJ5UcM7B2Q4dKIeVtjQryxEcdOge3/KCOqSj6CMm5ASyInRlEOcUgi1yb8P3ZEtnZAe/AUbt+7E0ZOlaOcNEU92DhPUxcdwVKKC0ZONBW2SAzicLYd6KMhUjCcDr8PaIMbegFdlO2DUD3g25Xtjn7+LLxA4Y5/z4+7ZUvxFQzDxwQoJvog4/xpSDkSACBABIkAExocAiYjx4Ui5nBcBG/pbm9Az2IBtH+8IeAeHw5iA5RHP42D/xRQF59WgIIkzsHr2GlQECQ3qbetEfpwIQd8rFy48aMbCAfbuWsg6dNComqEe8Apd9r0QJSml6PEY9rz0DhO6qqXIL2uDMVw3Mb2oKShCs/9shINBX4sMOWkZKFDqAo18xzBa8w7i161RiDuWhpxiJXqdEzNmaJr4b7r2uktO7ERcltxniVN1UTJ2bo6CuEFIwfDadI5OThBwy5OERAQXh72yHy4Ol+Yci6ZkRIAIEAEiQAQuGgESERcNNRUUnIACW+6fjul3rMDuWt6aLWcCdikVt2n674gP9oLm4JlPoJAMfP1FIe/UqQlUtfOoin2oC8rqWrT5CI7RZ2juV0PVWI9auRzKDj0YIZHiyc6O4e5q5ObKoWW8aoUxDsBosQVdYuVJfpEc3FIkViRwAoE/E8G6udkIrkpsPH4czp+uRIAIEAEiQAQmIgESEROxV6hORIAITHoCnEjgrv4CIZj/pG84NYAIEAEiQAQuCwIkIi6LbqZGEgEicLEJ8GcbWMHgLyK4JU3sDAR9iAARIAJEgAhMNgIkIiZbj1F9iQARmDQEuKVM/iKC708iYtJ0J1WUCBABIkAEeARIRPBgkJMIEAEiMN4EuP0R/JkITkTQRurxpk35EQEiQASIwMUiQCLiYpGmcogAEbjsCPCXNPEbz/rzRQU/jNxEgAgQASJABCYDARIRk6GXqI5EgAhMOgLcbAO7lImWLE267qMKEwEiQASIQBgCJCLCAKJgIkAEiMC5EGBnGljxQDMO50KP0hABIkAEiMBEJ0AiYqL3ENWPCBABIkAEiAARIAJEgAhMMAIkIiZYh1B1iMAlR8BQhRSRDD1WtmWDUFW3YMDpFm6pTduBTpNvmKa+Cp0Wr5+jT4bklEponG+s9voLuwZRkSpCcYf/iwyFY5MvESACRIAIEAEiEJ4AiYjwjCgGEbh0CVi7kBcnQrUhSBPDhQsms6OnrgyqQZdSGJYnYldup+dt0sMNYsTszUSjIcirqYfKcXRfLtQ8gWBvy0ZMQhUGnOUxaEqPg1g5OLq3fztUyIjJRJsNYCwWVz1GNJBJZNCMCDaAPIkAESACRIAIEIEwBEhEhAEUGKzHT5H1qA4MOG8ffXUTVr6UiakPSPBi4gB4NpRv3iYtPn5ahnRf34lzZ6nFsY3rELnkO0ggxb/+FIGICO47BdNuvhOLP4iGrG8sVW6HZMcGrPviXSyZ+xEyx5LUGTcdqzx14OqySpghr/45Yy7nHBNYrDixV4+/ruzFza/24W+bjCjRn2Neo07mQO+ZA9iV3RZkrIULD1KQsRaimGQonNMNZtSIYiHV8OMOoSJ+C6LzuviePHcncqJiIO3heQ3LITpQin4Atu4zyJRpwEoUh5AOsfajVaGAgvuWpWHXnjRUlGVh/7YDKNHooTixC/tO1qKXN7vBK42cRIAIEAEiQASIQBgCJCLCAAoMHoYotgPqwIDz8+lT45VlxdhZZcKQUY2Vj1dBKpijDbJfcvCHeRNbRIi+WIKbIlxGusNwFC9ELMVhvR2OESN6m/Kx7cVbMWNlMkZvJ7MiYgs2f7scs935CuIJ48nVJX5QyPp0J7bUgl//MFmOQ7ADp48OIbHRBiPjgL6HwZ4fdLjtJ/MY+JxDNQxyJOxMQYPf0iFPTuHCPRH5DgYtGXtxXGF0eZpqkBhXBH+9yKiKUNwxApvF4hQD/ByAEeh6dHBOEli0aHaKgWpUV7PCQA6JOBMyhQJVBSLEHi2BNmBplBXDgwaYra4+HlGmYB+nYuwGKNPicETaAVrc5Eud7ogAESACRIAIjIUAiYix0BqHuPKoOsGn38q9uXhBzM092NDVaXEZUX5lMg1KLHxegtkTWUSwdXak4U2Psc/OAvg99dfsw1PTPw4ilPwa7XMrkJdPeLibUab3qX+4PM83nMG638wY4mfTO4wlKwwo5PuNq9sMZepOJFQNBsk1XLhwskFlKqJ3JKHYPQtQLTmIqKQi76wANzvAXqvycGR7DLJUocx5BkbDMEZYPWBtQEpsPnwmNYSr4ePbmbsHaU02wNaPWvEhJFdoPDMvZqNRQMT4JKcbIkAEiAARIAJEQIAAiQgBKMG8bJYR9PcZUSrRoCVYpGD+dhs09SqseFRoBsGMXW+fxm8dwRK7/W0G/PJWPjYq1Vg10UUE+MY63+1uS89ePDFrLarCNDkwWCCvwEghfEabfrTx2KIysHrKFPzxj3/0+U6ZshoZIWriDbJCFGtCo9cDGDbj9feMUPL9xtHNtEsQE1eMXrtwpuHChVMB9r6zODvgztShhfRgMuqDzXT4ZGJCT6NrCZL8lAiiUg1sPuEA1KexJ6OFtw9iBBaLN5axu0FArMhxcv9OpJTKkXc0CtHJRahxC5maM2Ls2hqD7NZQIsa/EnRPBIgAESACRIAIsARIRIx6HOjx4/IM3PSI2G8pkQ6b35Pi/qcrkTHYh6ivc3HjIjFmPCPFZ6eM7s2keqxbkoKI+aner48I0OHzv57BkSY1PlmVhWsWZmDeP5Uocu0i9dSwLfEMlouGYEPXmEXEQPleRD49HzdecwWuvPZ63L7wMTy4Kg7dXO4OPcpj3sNf/3Idpt20ACt+kKDTuZ6kBJufeQr3z4pEhl6GqLcewI1XX40Ztz+Bz8Ttns2ysPehZPvbeGj2DEy/eSHeiN2A1zyzDzyD3GZGX0sBtq2YhQc2K3hPgXWQbnoZd//5Klx53Xws/ykXGsEVR7y8uLqz16D150di3UHSh6y/fx4X/n5AOojXxF4D2VUiK1ZGK0xC1NGmQcG+3TitDrKrOFx4iKz5QWZlCqLicz1Gu2ePQo0USfE5aPfbj8AYDTBZ7WjJiEOh1gGDWukjCsrEu7E3vcLjVy45iG2xueh0T+A5LEYMGBnY/MYNo2tEaWEZWvTu9gpupODXnNxEgAgQASJABIhAOAIkIsIR8g+3qvGajwBg0ChT4ol5p/HSdiWO1w3DyFihzqvE7MerIfNJH8z478a7d5/Gkz/UIrONwbDBgMRvsjFzc693SZP2LN7/Xu1eyhEsH5/CeDeVWDNzHj5Jb4TOxMAy2ANVVRZ++2ovat2x1AeW4u6V+1HeZYRpUIWsLx/GQ1vqYUcfGgvW44mIe/HSd5txvFINo2UY6vRIzL7pS0/72mOX4JanNiC/fRAmfTPSNz6HW3xEBLeZOQL/c8vj+Ci6GDreU3BN/HLc+uR6FHQMwqCWYtPTt2LZYf7OWq45wiIgWP397MmgIiJ0/bmyL9J1kMHWAxZoeHxcJfehqaQpYH/B2GrlgL7sCKLTm+Fnw7uzCRc+ytKsnTh14ASUhhbU1A3zEpmhOrkXB/I6YArsHAA6FB5IQ4sdsJuHMMTNNNg7kRN7AkpuxR8vR0GnxQCDxYQu+Slk5sp4QqYS2YcPIJ9/9JNgBuRJBIgAESACRIAIhCJAIiIUHcEwIQPe5efz4NjRiTd9xAabmVBa1r8H7y3IQ1Qnr0BNCx59qgYVTi8GJ36rg9SzaD5YPrz0Ps5WxDxxB17ZIUHV2QGvMPHEacKmexZjv9bjAQwlYNld693LaVjDfSV828ff89CIjQvuxPpavlXIN/a9bptiIxbcvBonfXZUq7B10XxsqPOmd9RvxPyFWwSWjXnz8tY2XP29MYVnIsLVn59eyH2+y5l4eRpHkJjGoDtAQPDinI/TqEBSlAi17n3PAVmFCw9IIORhR++ZeIjk7H4LIypyZXDtvHDAUJeM3SI5Brxd7ZsBU4ek+DL4Vs8Bg1yEmMM5qNWYvLNfvil97hhlKmLSGjDsz5HNP7ZAQKD5JKcbIkAEiAARIAJEIAwBEhFhAAUGCxnw5+PHltCPNYuliGPPr+Q+jBqv3FeJXOc9m7/fcihuadS/1bwlQVxigaupA9LDGxG5dBFun/sE3l2fgibPA+LT+PBq70yB5zjWK96HxJmVkOHO92PTv4zjPo+2+eF8txEn378Rt0VK4H01gUB6y3G8PDXS3X5+e/h5cf7h6s/FY6/B0oeqPz/9BXQbGSSkMxfQwGXQnB6NQ7L+IIZ4uPDRtd2mPQNRSg2410DoihOR3myGqT0Xcfuz0RZqj4T6NOJyfM8+s2pKIBKVQjsyhJaceBxKL0fnsLAKcVi0qC+S4Pi+X5FU6zMgXZVXn8KujJYg7R9d+ygWESACRIAIEAEiQHsizmEMnI9g6MJbvNkJ+yDjfnmWFcf/nYFVOby1Guom3P+C0nezrae2QnXwBIZ12Ie7INv/BuY9thMqZ+wGbLj7acT1BksqZHjz/RT4Ye7D2MnfGG5Owks+y5l4pzN1xOKpK2fhMyn3vJmdCViE31yVcVWi5VcsumcTmgKqxC+XCwxXfy4eexVKH67+/PQXyG0ZgSjFgk7ek3ONzOJZbjYepVo7c7E7Nh89/lst3JmHCx9VHRg18o5L0MbfqzxUhfjoPdgbmwrlIK+BAhkOlcfjuML7OzB1nEHaySpoPV5mtGbvwtZYqc+eGQfTj7Z6OSrkTdBZGNQl78CxQt67Itybqasy9iG+wjOlJ1AD8iICRIAIEAEiQARGQ4BmIkZDiRfHMdyOFfOKEc+zQ+zGdiyfV4wEziZm9/m64x3mHsc682A3UJ/CumoGFuMQDu1pQ6s7b2NJFW59RobDSguMBgOSv8vBwwcMgk9MrToV/jZPiphum2A4r7puZx7+s2wdMmo6MWixwsroocr6DPNvW4NKZwwHVNGLcdeqWJSe1cPMmKCtT8ePa+PB6gL7UAKWR7yAhCHv01+HMREr3O9+AGyo23Qf7njrCGq0wzDrG3B84/OYEzETL/yUjTbneyL46RnI1szFH+74FAV6l1HZvvdpzFq+E7IeI4yacuxaMQdL9vNViaspDmddluKIz3qY0PXn8xB+T0To+rfzM7ggbjvyTpjAf3DO6Bl8v8XoFnlcoeexJ8KuQ3FcNLLbPNY4l6nrGi7cN7bwnU2P6mwJ6vW+KoXRliHht43YnaUKsg+CHWQm9CiKcTonHanZCujN/VBVl6Gisc9zHKunUKYF6fskUHuG4wgGe/WweO67kbtbDPZUV9+PAy0Z7IZyX1+6IwJEgAgQASJABMZOgETEqJkJnLC0RAG5c5+De6nREoX7Tda8uLyZB8AB5fFSzH9YjOnPFmO7gn86zgiqj1Xg4afScPUjEjz/Syfa+cHueub8kOY94Wl+KhbGehcFBW9KA35dsgiPPXI3br32fzHlqhmY/fAb2FbMWz9l06I46n08NvcGTJ16Pe5atg4S52Nx9sm9e6nTnHXu9lVj3Rxu+ZN7hoFpg/g/z2Pe9dfgT/NfQlSFCJ8sehX/3rwVb3NvrP7Tv7zvhehPwWvT2Tzc6W1dyP5+Ge6ccRWm3XY/3vjFd+O1awaBK5O78mY3gtafo8JrB9cermw2SpD6f7ElGxdeRFjwwRIt/u+zvT7f6T+a/V6Idu6nMw1WJSDqRD2CrSQKF85RDHq19UMpLUQjf6bBYUa3PBNHjmRC3iRHys6tiBZJ0dTH+IrfoRZIDsVBXNPnXJo3oq1E0v4E5CnaoTMyvCNdXaXbR8wY7NdC09kBrdGjHLxVM1Yh/pCMt1yOC9KhcH8S6oLoKC4WXYkAESACRIAIEIHwBEhEhGdEMYjABCGQgdWz17g324+hSrZO5MeJEPS9cuHCwxVl0UHV2A7uBFWAgV5VhtPpmSio7fJsbrYbz6JQtBNbNv2KPaKTkFapoGffNu0wolOt9xEL9uEe1J2RQCw6jLj9+7A3Zid2bPsVwIlaeAAAIABJREFUP2/djE0bN2Ljlv041TLgegmdX/3sqkxsP5LrOQrWc7RsbQ4O7pWCf36AX1K6JQJEgAgQASJABEZJgETEKEFRNCLw+xPIwNdfFPoY279/nXg1GDGgW9UIhVwOpXpQ0MBnBUZ/iwyZx9JQ1jV8QdqilSVB0iKwqbqvDgVyzegOIuA1i5xEgAgQASJABIhAIAESEYFMyIcIEAEiQASIABEgAkSACBCBEARIRISAQ0FEgAgQASJABIgAESACRIAIBBIgERHIhHyIABEgAkSACBABIkAEiAARCEGAREQIOBREBIgAESACRIAIEAEiQASIQCABEhGBTMiHCBABIkAEiAARIAJEgAgQgRAESESEgENBRIAIEAEiQASIABEgAkSACAQSIBERyIR8iAARIAJEgAgQASJABIgAEQhBgERECDgURASIABEgAkSACBABIkAEiEAgARIRgUzIhwgQgclEwFCFFJEMPezbrzEIVXULBpxu4UbYtB3oNPmGaeqr0Ml7P52jT4bklEpoGN94wneDqEgVobjDLBxMvkSACBABIkAELkECJCIuwU6lJhGBCUPA2oW8OBGqDUFqFC5cMJkdPXVlUA26lMKwPBG7cjvhcMcdbhAjZm8mGg2cj18mQ+U4ui8Xap5AsLdlIyahCgPOqAya0uMgVg6O7o3aDhUyYjLRZgMYi8VVjxENZBIZNCN+ZdMtESACRIAIEIFLhACJiAnXkXr8FFmP6glXr3GskKUWxzauQ+SS7yCBFP/6UwQiIrjvFEy7+U4s/iAasr6xlNkOyY4NWPfFu1gy9yNkjjqpt/ybPsmH064cjMffPfX5O+IHR53ZhI1o1TL4eaMe97zci1tX9uHlXWY0XvAH5w70njmAXdltLq4BdMKFByRweRhrIYpJhsI53WBGjSgWUg0/7hAq4rcgOq+L78lzdyInKgbSHp7XsByiA6XoB2DrPoNMmQasRHEI6RBrP1oVCii4b1kadu1JQ0VZFvZvO4ASjR6KE7uw72QtenmzG7zSyEkEiAARIAJEYNITIBEx4bpwGKLYDqgnXL3GsUKWWoi+WIKbIlYhnTXUDEfxQsRSHNbb4RgxorcpH9tevBUzViZDP+piWRGxBZu/XY7Z7nxHm9RV/mzMXvA6Ut1PzO2D8VgW8XdnnUabz8SNZ0X0BgMy1XYYGQf61Ax2fKvD/G0Mhi5kpQ1yJOxMQYPf0iFPkeHCPRH5DgYtGXtxXGF0eZpqkBhXBH+9yaiKUNwxApvF4hQD/ByAEeh6dHBOEli0aHaKgWpUV7PCQA6JOBMyhQJVBSLEHi2BNmBplBXDgwaYrS6FMaJMwT5OxdgNUKbF4Yi0Axdco/k2iu6IABEgAkSACFxUAiQixhm3PKrOaRiPc7aXXnaONLzpMfbTscrjdjdVsw9PTf8Y0jG3XCCvsHm40mzf8Tie3dftjn0u+YQt6HeKwOCnL42o4ZfeN4znXzSgiO83rm4zlKk7kVAVbBonXLhwZQaVqYjekYRi9yxAteQgopKKvLMC3OwAe63Kw5HtMchShTLnGRgNwxhh9YC1ASmx+fCZ1BCuho9vZ+4epDXZAFs/asWHkFyh8cy8mI1GARHjk5xuiAARIAJEgAhMSgIkIsar2+w2aOpVWPGo7JxFhM0ygv4+I0olGrSMV70mbD58I53vdle4Zy+emLUWVWOuv0BeYfNwp9HFY+lDm9HkjD+GfBwMBs6qxzBrErZCfhEysHrKFPzxj3/0+U6ZshoZfjFHfasdxnOfDV+wGS+mXYKYuGL02oVrFC5cOBVg7zuLswPuTB1aSA8moz7YTIdPJib0NLqWIMlPiSAq1cDmEw5AfRp7Mlp4+yBGYLF4Yxm7GwTEihwn9+9ESqkceUejEJ1chBq3kKk5I8aurTHIbg0lYvwrQfdEgAgQASJABCYHARIRo+yngVoVIt/NwY33iXHl/Zm4/cUCPPhVK1zPrfVYtyQFEfNTvd95nJgYwclfpXjitVOY9VA5MsCgJK4U8x8S46b3VG6Dla2EHj8uz8BNj4jxB09a1l+Hze9Jcf/TlcgY7EPU17m4cZEYM56R4rNTRs9mUqNShdWvZ2H6QjFufLEEH62TYtYyBeSjbV/5XkQ+PR83XnMFrrz2ety+8DE8uCrO3T52zZEe5THv4a9/uQ7TblqAFT9I0OlcD1KCzc88hftnRSJDL0PUWw/gxquvxozbn8Bn4nZP/WDvQ8n2t/HQ7BmYfvNCvBG7Aa95Zh94BrvNjL6WAmxbMQsPbFbwnuLqIN30Mu7+81W48rr5WP5TLjRC69XBy4vf9qD1ZyNxaUzIePcefFPKrl/h/NhwK9SSDXj1wZmYfuWVmDbzIbx7oM7ztFm2ZiYiIlbit/g38Zdp03HvNxLI9r2COddegzlvJ8G59D5k+fyKXlj3iNkOdZMFW34x4GCrP0BWrJyHMOGqbtOgYN9unFYH2VUcLpzLJ8zVrExBVHyux2j37FGokSIpPgftfvsRGKMBJqsdLRlxKNQ6YFArfURBmXg39qZXePzKJQexLTYXne4N2A6LEQNGBjY/bIyuEaWFZWjRu9sruJEiTGMomAgQASJABIjAJCNAImJUHdaPNYtz8EmeATqzHZYhM1T13fhtqwq1Pum7sMpHALCBdvQ061AkrcVD82TYIZbj3yf6oDENIStdF7CWG1Y1XvPJg0GjTIkn5p3GS9uVOF43DCNjhTqvErMfr4bMWf4g1i/NwecFQ+gzMmjOl+POv9WgzPsQ1aeWgTeVWDNzHj5Jb4TOxMAy2ANVVRZ++2qvp33qA0tx98r9KO8ywjSoQtaXD+OhLfWwow+NBevxRMS9eOm7zTheqYbRMgx1eiRm3/Slu35Ae+wS3PLUBuS3D8Kkb0b6xudwi4+I4DZWR+B/bnkcH0UXQ8d7iq2JX45bn1yPgo5BGNRSbHr6Viw7zN8Zy7WKb/xzfkCw+rvsQW8aa8nXuOe9TJh8REQF1s57FjtqtTAzDPrK/ouF10Qij8t+JAWvRczGOwl10LZE4bGr5yHyaB16O/bi6f9ZjZPsQ+4g/PzsUS7HC3S14IMlWkx/VY+fK20eEeQtrA9NJU2BY9IbYRQuB/RlRxCd3gw/G96dNlz4KIpgo1g7cerACSgNLaipG+YlMkN1ci8O5HXAJAhXh8IDaWixA3bzEIa4mQZ7J3JiT0DJO7GJl2mg02KAwWJCl/wUMnNlPCFTiezDB5DPP/opMDX5EAEiQASIABGY9ARIRIyqC42IeUuCVw71oKqTcW3IFEwnJCK4iGzYKfy7XNi04mIBQnm4/MR8UeDoxJsesaHHt3/LwWdFwzCO2KCprMU9T9eOYSlQK2KeuAOv7JCg6uyAQPuasOmexdiv9dYSQwlYdtd6KJ1erBG+Er714+95aMTGBXdifS3fqvMa7vyn/jbFRiy4eTVO+uyoVmHrovnYUOdN76jfiPkLtwgs++Lny9V3NPV3bfIGGrHpwWU42ieQj82A9opTSIqLxCKPAGLL4McNdKchXPlcPYNdx285k33EgV41gz0/9uPt0/wBFazsMfobFUiKEqHWve85IHW48IAEQh529J6Jh0jO7rcwoiJXBtfOCwcMdcnYLZJjwDtUfDNg6pAUXwbf6jlgkIsQczgHtRqTd/bMN6XPHaNMRUxaA4Z5QtcZgc0/tgAaf3+f1HRDBIgAESACRGDyEyARMdo+NBshTVUiMvI0bn9Oind3qdEUsNRZSABwBYQK4+KwV6F44f36c8owf4kEMxaKccOyYmwqH+0jVXfZpg5ID29E5NJFuH3uE3h3fQqaPA94T+PDq70zBZ7jWK94HxJncr7hzLWF78emfxnHffQTP5zvNuLk+zfitkgJvK8WEEhvOY6Xp0YilyvOc+XnxXmOrf5dsUvweNR2n83eJnkMVsydiXueewufrHkNC8YkIsKVz9XzIl71Jryw2uiZaRqfkhk0p0fjkKw/iCEeLnx0tbBpz0CUUgPuNRC64kSkN5thas9F3P5stIXaI6E+jbgc37PPrJoSiESl0I4MoSUnHofSy9E5LKxCHBYt6oskOL7vVyTV+gxoV+XVp7AroyVI+0fXPopFBIgAESACRGAyECARcQ69ZDebIEuSYd6bzVD5pO/CW57ZAcA+yLhfXsVGEhICPondN0Lxwvn145sni3DYa3ULZTxqP/twF2T738C8x3a629eADXc/jbjeYFkIGe58PwV+mPswdnbw0puT8JLHEOfHBdARi6eunIXPpNzzYnYmYxF+48Nu+RWL7tnE21PC5e2Xl9N7jPU3pOC1BbN5R8Wq8Mv98/F1CQfYvwz+faA7DeHK5+p+oa4j+Hmt0Xd/TL8Jf399CGXjWKS1Mxe7Y/PRE2SCI1z4qKrCqJF3XII2voAfqkJ89B7sjU2FcjD0FMBQeTyOK7wC29RxBmknq6D1eJnRmr0LW2OlPntuHEw/2urlqJA3QWdhUJe8A8cKee+KcG+mrsrYh/iKC3pw7qgwUSQiQASIABEgAheaAImIURHW4D+RCmQ0mDDIOGBlGKikcsx/qhaVPul1+Pyvp7CumoHFOIRDe9rQ6g53mNqxYl4xEji72Ced98Yx7IoXz7ND7MZ2LPdLy8U77Hwcy0D682nMWJyLv30kw4cbFdgi6kS1Xvhpqrc0zpWH/yxbh4yaTgxarLAyeqiyPsP829a42+eAKnox7loVi9KzepgZE7T16fhxbTxYXWAfSsDyiBeQMOQtz2FMxAr3ux8AG+o23Yc73jqCGu0wzPoGHN/4POZEzMQLP2WjzfmeCH56BrI1c/GHOz5Fgd5lFLbvfRqzlu+ErMcIo6Ycu1bMwZL9fFXiaovDWZelOOKzniV0/bn3VHjTMMj9+EZEeEQO+0K6e/F9uR7moS5Unfwaj/zhHrz9a6ZLZJmO4aWIl3CMfQIe4H4RicbQ5XO9cOGuVuz40YAMtR3DjAP9XQxi1/fhkTjGb9/CeeyJsOtQHBeN7DaPNe7bnHDhvrGF72x6VGdLUK/3VSmMtgwJv23E7v+fvTeBbvSq8n2LXHjhrmaFVfQjlzQvYUGzbggPSOclkE5WM4RuHtwGOg1NBvJ4dAMp0oFuQl+4DemXboYQGkiRpJJKueay5SqPKo/yLJcneZTtsmzLlieVy5YHeZIHedD4e+tI+qRP8ifblarCVZWjtbS+851hn33++3zS3ufsfb5Ke5I4CDFJ15i2NlNTXUpxlRXX+gL27nY6B+c3x4Z4RihNNeKITmcvS7MuNqL3U9QeNyBOdY3/BBkpEwHl8bnyTiIgEZAISAQkAjciAtKI2JFUl3n1+zV87lvn+OAnDdz8QBl3/YOZg+cTFaYgtvw27n3IwK1/28zrVnFai5tXv5FwctNnLBrvP9A44elhcbqS2IWItH/YGnmTtaruPWZKWOP0M/X8otdLwOtldmoJc0UX9z1mi8QsbDfIAV59+EE+99mP88E//q/cfMtt3PXQtznYLN7fG/n4Z2hO+T6fu/sO9u69nfseeR7jhFDwxcp7xNXpI89H+Ovm+Y8o7k+RWAPPKIb/+Cr33P4u3nPvE6R06vnxg9/kp79/me8qb6x+z49iuCwU8fe3ChqR9v5Jqn71CH922y28+79/km8fiA+8juND4UdpK4aQjP8kb6cOdP8nH4u29zGU9Y88ePte9t75JX5VYyHj8du547EzoSNSq595V+iN2+/4p0oq/+kdm9LveqY6ef8Kvlf56pnc4NfPL/Cxx2b5yFMuvpfliZyupe74jZ/OtNSVQ0phP8k8ibYrV3OhmfYvYDM1MqjeaQiuM2UpJzOzHMuQhaLDL3NEb2Jo3hPvTrQygvGMDkPPfOi0L+/MefLScqizjjHn9qiOdA33HPCus7Qwg3NinBl31HKIseXuIuuMWeVupxTN0ZiWR1/iz4JSLK8SAYmAREAiIBG4gRCQRsQNIcw5nv1cFU+XLjKzHsC7voHNeJ6P/s3Oj3i9IWCQg7hMBMp46q6f0XmpVPwT1Ov0JH2v3Hbl2/W3MYd9cAzlBFXw4LK3U1NaTkPvZDS4OeC+SKP+MC/tf5UT+gpMXXZc4rTeoJsJhyvOWAisTtPXYsSgz0CXlsrJo4c5dPBVXnn59+x/8UVefCmNcyOL4ZfQJfAXsJfzemZt9CjY6NGyvdWcPmlCff5AQlN5KxGQCEgEJAISgRsGAWlE3CCinO8a4h/3GXnvgwZu+XQF9z3dSWpfknP6b5Axy2FcaQTKeO7Zxjhl+0r3cFn0vMtM2QexWizYHEuaCr4wMBZGzJSfLaF9cvWqjGXGnIdxRCOoer6PBotT9W6TyxqtbCwRkAhIBCQCEoFrGgFpRFzT4pHMSQQkAhIBiYBEQCIgEZAISASuPQSkEXHtyURyJBGQCEgEJAISAYmAREAiIBG4phGQRsQ1LR7JnERAIiARkAhIBCQCEgGJgETg2kNAGhHXnkwkRxIBiYBEQCIgEZAISAQkAhKBaxoBaURc0+KRzEkEJAISAYmAREAiIBGQCEgErj0EpBFx7clEciQRkAhIBCQCEgGJgERAIiARuKYRkEbENS0eyZxEQCIgEZAISAQkAhIBiYBE4NpDQBoR155MJEcSAYmAREAiIBGQCEgEJAISgWsaAWlEXNPikcxJBK5TBBxN5BttuPxb8x8IBLaukLR0CUt5CRanJ2mNUMHaRYw5+XTNildX7/yz0ZsXenP1/v37efHF/eRbtfsJbLgY72uh7IyO8qHVSAfrOB1zbG4RZMnRH/+m655WSvXlDCwHQ203JkwUGEdY3zmrV6fmlZKfz0FtTgl9202EJKMILloozKrG7g7jk6TatZO9bqU0qw67e3uWFjuL0Lc6NOaJqq3Xq3p54RWaP+IN7jZr/Dy0Jtz3mKnM0FFomeGKvrL0quKjwu0PnXT1UFHezuQOH9yAo5VKi/MSsb2O5f8Hwefyhb7SkYn4zQ//7r9C2cgb/X+6fF6uFwrSiLheJCX5lAhoIeCbpE6np3tZqxDYrjxJM/wj1BWZsCQqF5H73lYDmYUW5pMYCe6ubE7VT0UUoACusb7NSovFRO7xbDrmkhBJxpvID9opO1LEwFpy5TKwPIwx7RVe1ZVj7okoSb2tGLLLGFxJ3k6QH68uo1fjpdRsLDBuH2agr5v2JgOnDuXQ0DvIxYkZFtweQlTXe9G/fAzjxc0E/OtuxuqzqHGIXqaozW7ASZDlhVlmB5sx1llwLHqY7a7DZLFitdRTXGFjBzppPFrXhPx8TDakkpLbQLcyj3rbMJzOp2dpa/xDgwnMY854lSOFzfQo7S215GSbmLqimm08dFvfrWNrMNKh8CPGk1POkCKgi0Zey+zYXl7ecapOZtA8OEKfQivxKmifOExh33J4XgFXZv4EWV9ZxO2JPXdO00lOm11bD31HpbuLz45YvAKVptorws9nVGYWCva/yPEalTHWVUNRVZJnNzhF7ZHD1E2Ce2pg829jiG4v5rIcSm3K5Loe5B8Gd7fwuQKijZKYaaygMwZ9NF8m4hGQRkQ8Hju4c/GbZ/rp3kHNS63i6h7iW0+Us/dTRr6eu5h8hWpthv/5JTOll9rBdV2/lCf37GFP3PdJbQw2ejn74vM88/Avqd6NMa97+P/2LVF11fsOMtuSzrGq0SRzZbvyLRicaeTEGTPJbBOn6QSZ5sWocpNIabTyKJWjMUXR7/UQU1kSayv3Xubsqj/h0B9pF0b9WczOhJ2EhVZ0+p6k43aPt5J3Oo/miytE15K8s1iMFTQPOln1xXhTeo9dVzCXmpiJZWinBA9nN/PgtuRyqGQoCW8eevPz6RPbFKsW9IYB/CzSlqXHsujBF+LLj604h/NuCI5Wkdv2BpS7XZFfPExr9ipyq+xxuypLFj2p+U0Mu7azAlaxG3Mx9C7E5o3PSXNOOiXmERY2b/PEd46LTn0V9q3EHJzF1tSAscBI/46VhXGMp4yEbEDAZc4mvdqOOzLJ5lt0vFI6nPS5CDMpnsss9JZFgr5VlpbX8Ir2rjYyim3brE5fjfmzhiXnCPVTCRC+odvdxkdh+mrJX9DfwJKbSsu80pf2ddF8mnSTM/53wD9CfUETF90BRurKGVyF4MYKi24P/k1zdY7GtFy64xZKrnX57zY+iiwuV/4eeitqmFDIyWtSBKQRkRSaZAWr6E+NR/9EktW65Px5B994pJnDXWusuB186/NdmDSJ+DEfqOame95sRkQYjOByNo/u+RpZW61kbvSif/Zh3r8niZGhieuVygzSkTrPex7+AxgRyxZyDovV+CS8b1eepJnI9vQVkGIcS1Jjg279VkrHIm3p2VjEH2Rw0z9jEprhbO/qEivrvqgS5hkp40i2mbkEndPbX0iqyQl+L151F75F7B1GMl4/hsGsNkgs1BcXUnc+ktfTREH2OcY2bxZAYJiKisGY8ZGEY6+tKMyDWCH2KTy7aE3X0TqvZkpNwIEx9SxNwkBqyCVHrP4GhjDkitXrSWrTC7GtOGnIOhf6A3O15VJ1MRktNd349G7JT+HC42xDf7aNWbXluDpAbe0QUc+kYDAqZ6Vd+OphsqWU6oEllQzWsDeewzKzrfUQITWLpWkIxcEsnn7kzjOJxZDGSylhrDXrJGYud5CR1xtWDNcHKM0zMx+1UsVz8RJpzduYn0sW8vM6WUwQ63J7NoV9WhNSzcRVmD/+IQwpZdij41D3d4npXcdH4fcqyT9Efhzj0bKtDVT8DBiObzbMnCZO6rvZTsqhbjx95KU1EW+rXOPy33V8rpT8HZyrtMYbgAppeY1DQBoRcXBc/RtLSp/m6rntZC2PGpQ/SD+TExuaK1KeARsPfNXIXW/QiLC88IJm/1d/5DvrYXv+xI7EDoyDYAnf2Um9nbG141oeu5vPf2+e+6+6EbGOrfgwOV1LSXjbrjxJs0j2RO1hTpZ2Jtlmb0R/qBBbwubAxsxIpH4dma/nYOqqI/t0JRe28hOO8/kG95id2KbDIuaMVGr77Zv4aC5IIb2qg5qMFNIbI25TATdTdgcuzyjlaXVMR4fowpyho3lWpbU5znHUMBhb5Y7WBWYaKWvXwNU9xUDUfcFKmIdurF11ZKWk0+L0EZisQ2cYSP7ns9JBbtlISHmea87GKAyEmUayhX/Tejf6gj68nl7yCqx4ETsSZ+neCj8136r0bslPsOB1tpN/9DV0VZY4ubVUltOouJVZuziXqaN8OFHNX2fcdIYT+c1xbbsbSiht6onmdVXrOWue0ZafCoftkoGRMg7kC6x39hH1dY3CSPAz0WSMd8vyDWE4dYqq7pUtiLnpzU8h2zyX0Keb87l6ereT9dWYP44aDudvVpgCy05mky1QJBnhruOThK9k2Zcq/xCd5Q7OHC3GrPotsG5Kt1F4JJ/+hInl6c0jtWk2ws4EbeVql1ELDXl6Wmci1pyjhuOR34oo/9e4/HcdnyhQO0sklf9KBxVROe2M1pu1ljQiLkHy/g0vC/Nu2oxORi6hXahqwI+z387jf6W1g7DOse/W8Nr4NkT9yxzYV8+LNgdPXqoREdjA2XWCx+/YgQK+DRtXpXjH/O3QiGCn9cRoynjq5pt5+9vfHve9+eanKLuUwQZ8pDzr4tWRdf75KhsRnjEjR3XNzCZZPdyufOthrdGVfZKQrqRVcdGMTtfCJicbnzfkluEZNPB6kS0UD+GZ22wARP9whc/3ycMU9C7FVqQ9dppbHSEFy3OhklThFuQVLh/rxDyQVunMOkNHMl+ruWZOpVVE4zl6TXoOniylU/VH31WWSnoSNyFPbxnVWs9icIOVRTce4XfguUhFyhna43jwMFiSRYvaWEnALzBcir5DKJk++gv1IQPB05tPgfBvGjOS3TwnAjLIEVemqcupx5lAY/vb3ZKfn6WRVmqah7Gb0sJjijC73JFJVpyD8UUqjpUwoqybiHo+FyPtrTSXxLclOEqFTo2Dl74CHU1x2xyRjoI+PGtuFqeHGXFuv94715ymUuq2R3a2KZ3S4QC4+jAPxvtA+e3lnDAYaBJ+aEk+y9YqKkuyOVl1Md7QXOtBn9u19c4JYpPsjc8fv+uiZvxFu+E4R4raogZa6PkU8Uop+3kt9zyuJL8xWkPcbXy4yvIXY/YNlaATu6CqT9DZT8dFd+x3zD+FtWN8U2yM49yxWLDuSicZORaidpp/gKL0ZhYiax0rnVlkdcYbpNe6/Hcbnysl/8BwFVUyqFo1w5MnpRGRHJuEEhf/+VgZ7/+sIcGVaI7ff8/EJ790nrKleVKeq+V9Dxq47W9M/Os55UfFxfMPF7Hn3uLYN84ImOMnf9lC5pCDHz9ZybseKOOeH9poWoxnYTS3hcf0K/iZvEQjopvnP7JVPIEPh/F3fPPTd3LrO97Bu+/8DE+n90X+5Jap+NmX+MJn7udD7/keZbhoffUb3Puevbz/b44zFGHR3Z3GUw/dya237OV9DzzBv/zzl/nQfb/Cogwh6KLj6Pf4y4/+Ce9+/yd4/NdGJqKrNNvxpxAR1yTGQWCe1te/y2fuuo1bP/AA3z71O/7+D7wTMVayyLdLffjZSGJECGPlEg0T9dCVtN9JQ+pxahxRAJWS8HW78vjam++Co5QfMiB0Ja2Pf9DAoQp77A8zrpKLttO/J8VgC/uJ+z14onSCjJQdiv2JxrWL3bjaDdRcnKIlMxdLSElfZHRkNrbqLIKqj8X80mMtwynfmJmGkfCfr2eqldyUHDriNhb8TJqbGVlX7UyoiCQNqo7W8eM0pbH/pXRqhufwKGSWz1NQliwWItx4plFHdp1wqWqlIFMEVQubIQdhMyy151JuD0SvrFnQF9ti4472v01il+Tnc40zOicUd6HkHyKvMeI6ZrVSn/N6ZNyRvM5STugtKrcODwuOSZb9QYZLT4fwiI7S1cbpOBwmqdFpy99Rd4LXD73GSy++EsIySiOU8LNkb6akSrFVAAAgAElEQVQ4/SivvXqI1OJOGvNfTZiPgvfEPIWKB2t+Rsh43RhpxxJnxHgZKkmlpreFc13aRkTAZcXU5WTSpAv1qVbqe2syOFrYGlHke2gqyqFGIzD/suaPby0Wf6EMKTBFzYkcuqf66FMCPZSyS77uPj5XV/4CkCBjxpObXQz9I5S8lo1FLfpAQOWOJ9q66cjMQLELgvYKUnIaYsZbWxGplRciqIvnQPzGxwvh2pb/7uNz+fIP4x0Kqo633+IFIe+iCEgjIgrFDhM+B38fZwB4GDTb+MI9NTzxuo38vlXcHh+OuvPc9fluzHFkkyn/Uzz98Rr+x697KR/1sLq8TO6/V3Hn72djW94zF/n+rxyRVclkdOI607hJooDTyc/v+VsO9c6w7vEw3/4CD7zrGepCFLxM97XQVPULPrPnOxzK+ik/TW/H6R6hMqc14q9p47f33stPKoaZX55nuOx/8Wd3/TvtKncXR/rX+Pi30uiYdLO2ZKfy3x7iMy/1JyiiyfhTD0W7ztiph/nTv/4d9WNLrLmGKX3xK/zpH9KImF/nRwfXI8G4yYyIeYZahxJ8XNVj20k6iKs9kyOlwyoFTN1uu3J13STphVbSzphJ9hvqNB0nVwQ8aHw2hkp5ff8BylpNZOm7wqtqG27cIXtnjsZTGXQuJsQxJNLxXqTy2KtktsxG5ocPW/FJzo1HjKb5FtI0AprjyAQ3mLYYKa7uY3bYiN68ECoOuB10lGWSnlNGj+I2ENdwBXOZCcXhIK4ocuNx1JGVeoKDejO2iuMcKe5jmQAT9UW0KcuIWg0RQZEFCUHVK5hzS7EHPNiK9XS5AwwacjWCqic4l/Ji9PjB2DGEmaG6cd3ttvxwYDwmxqRwNUdjal543JEs34CBUw0xhzOlJszRmK5uCz5bMRnqXSN3F9lbyn+MqoObcXEPGDihM2JzuvF4Vhhvy+fwS4n1vCxNT7Gk3iGJMuegOk0xXpboMFQzptRzd5Ora2LeacKg5lVp63HS3+NgHQ89ZzPDp75Eg6o36M3PiSqXCPzSKri4aY3gcuaPwkj8dd1WxGHDIB6PlVZFu42vErnbyfzbbXwUxq+W/AX9GUxphVidozHlP7TD2UlVcQXt0d3Obkz642S1qVzugnZKj1VH4yld5jMU2WJCXu/Wq35XRVB1/DPDZf1+KNjEX6+s/HcbH2VslyN/QUMGVStI7uQqjYidoBRXR0uBD+cZ1EGEwQm+E2dsCCJabUX+NN/7RB0p6qMAnCP81V/30Bnq20Pha32YolpdMjpxjGrcaCvg0Yr+ZcY6z5Gne4YHNyngpTz5lo/z04Zp/H71QEVrC7+46x7+1ejA7VnH2fxz7v/Qz+mKEh5i//1fJE0db7iSwyP3/RZbtI5IbMNfqK5WnUFe/MSf8dteZUl4p7SUzi/XnSlASZqb5ugqVDIjQunvMq5uK3kpenqjfSXQ2q48obrWrQhaPpBVm/Anqawq91ClSxJU7ZuiobgMQ1oWltUFmnNKGfF4uFBxmCOlQ7hFoGBKNRMbgzSbnarz7+O5CC71UJDyKjldMV8hcQRlSnV4WS4aVB3fLHIXwD3ZR2tDIxaHm9VJM0X6ArLSC2i21FNm7GLKrbJuE2mEgqqHElYQY5WCywNUGtpwdBdySrg0rHSR9VoZdnc/VTUXwka/x07vgJaR5cCYEw6UFKuQoaBqdzc5KTk0dDeiPy1OhHLSkF3DJLDQmrN5xTPGStLUbsuPRTPp2SrXnFCAaCPCQUv5TNWfxDCgIQdR92hRnL95a+FRMmp6Y/OxIZe0rY4SEm4iicHSfuF+lsl59YEMWvUUBrWuImhYZbzMt6STbxU7LwGcpgwK+1eF0MiuHN3U2u92R9xWHBh1CYHcnn7ys9tjRvtCK+kRd8B4Qld4/gTnaU5Ppy10CMAsTdXdcSdpxfe9g7tdxyfCo5Zcr4T8xT7EdAPppcN4xQ5ryL8yiOPcUXLjtiCSYDXXTJoSlI8PW1E6reG1jVCD0ao0ahUdIFlQ9ZX8/bjS8t91fK6U/B2cq9gcI5REqm/6bGlEXPIU0FLgLydPMLDAz75oQqf6QcHj4Bt/cZ7aEH+CfoI7lOIa9VNHUmVs89C0FPBwrTXLUR6/+07u/8o+fvyzv+cTESNCvAxMGA1er4F9b9uHwevVMCJgofi73PvRu7ntlr3c8fFH2d+oPlOihh+8M9Gdag97/uj7GOOYTM5frJpWHUH//yE/zgVaq16MypVNCaNhhv/2t7Obvrf+dv0S5LMdVx6GS49wxryQsIOjtNuuXKm39XWi9gh5mi9JEO3GqErZHFQtAk2nW6vonLFRfCysBIt545usJ1XXED7X31FDSiiA08tAiY4ah7KMq+LH66Q530DfiInjJ2M7Ai6znuLIeekTtScoGUo0ZEWs6wrT9iHszlX8viVGmkoorrPhWp2mLu04JucalsbOTX7Kqt6TB1WLP0j3CNUGE44NmKg9jmFQ8LDO1OQ8Uy1GeqJG/gpmgxFHoo683EFuSR+LMw56ytLIbR7F6V7C5fIQGK8mSxgl6z3o8yy4Pav05L/RoOpdlJ9ApFvP63pTTOlvyuPQaSO9qlXaSp0OzdcSOGrQnUvw4YgTEKwMmDCLubOxobkbpxksOWbkYMKpOJr1EvpS3/oTfOGnG46T3eUm6OogJ8eMS6xheKycPRWbt+r2ofRyOxkJgdye/kKyzTHf1fUePZnxwTZhMld0/gSYM2ehqw3HH4kOHDV6WubUCzGbuN8yY9fxiXCnKdcrIH/xG3eh8gz1UyqMfHbKDh6jpENZZBHXDipziulJOH5LnJiWFg3WneDckTOc61XadVJy8izRd1pqBVVf4/LfdXyulPyXZVD1lg96QqE0IhIA2f72cgyGSfapdicCSx7Cfx0+8n9axpPVKqXKMcQnH7UxqMmQFg+aFRMyy9in2mEIuFyR/u0c+OS9PNeqrPyGFXBhMHijXwP73ho2Ija/ZbiDf//gV8jYFGmrdD/A7z7+JXRb+YiEqibjT6EjrlrGgZVf3/0Qh9XBsOt5PKEaq5rC1U9fnZ0I30Qtx0/VM62hP4sxbVe+s3G76cwSCneS2ktm0jWCqj2TFtpH3eA0cVycMCSa+2dp1hdiXQz7tYi3gSonk4jV8pdOJryLIbhMf6WBdqc3dMyq4aV0FN3Kv6GcVrbK+ewtgqoDayH3u5pzTdhmN/AvDmLMM1B4+ghiI2OuWU9J9M1gm8cogqq1dNigewxzUy+zoUdU+DbHeGOll5o2Z9zuhaP6KPru2HbRQp+R/Ows8iqb6R2dxKzX0xM9iWeFbkMxvcsQvGgkyzTKWEM2qeXbHFG6mf2Q3/WuyS/Ezxo9eZm0x3Riltoz4oOqRaD00Uq0Tq5d6cxO+nbwxOEuWK2hHZvE/Nmm1Og8U8p8/YW8UqY+DiPAVP3xTfWU+lpXEQdTaB7FPj7J5Fg3hlPZWFwuOosKOB996+IsppMnMTmjvlxxpAJDJZwOBc0r2R5sRZnReS52NUbKUjcdDXql549vupEzZ5pUJ6FBYKqe1NNNiMfvjXx2Ex81v1dL/ritFBd2x3aMCOLqzCG9YSo+bmmiliOZbbgSFhEcNcdj8TfLXRSU2FRB1RcwlVkj/8eQGFR9Pch/N/G5kvIPDFfKoGo1oNukpRGxDUCJxcHVMR6/p5ms6KojBNxjPHZPMzkxnQGlXsayatUCEUB9jue7PWy4VzhzYhQljMrd2sUH/8ZMhm0D9/IyBb+s5qH02JtK1Xz45ux8+R4TR6f8SVak1bXV6RZ+cvsneN7sYmNlmDP7M0L9B4MN/OhPHuBX7fOsLjnoqniOz950P08dKGXY70cYDUG3nsdvepSsBY/G2f8uTM89wG13foovP/YdfvCTX/LSSQPd0T/WIPYjX+S+J0/RdtHFumeNmf5S/vPnWaj1ftDmTz0C7fdE+Onb/xd8bF8mPTOrrLsGyH/xq3xkz508+psqkr3tQE33SqZ9C2s8/rCLVGfiOfiXERMRmKNZd4SqUZWhqWZ6u3J13a3SgRFKDuio6lZWyBKuddkaQdXLOByLISV6zaInLaQkrTNaX0bbtMKvCBRUBVW72tDtVx2BGHQzbKqlO/oeACcNxzRWq4MXKNcMqvayPGXHZrUxtuiB4BpTFiNFFR1Mra/QnqEj5Kq+ZCE7RUf1oCv+jz+Cyfi58thqYBQnNxN2Z8zVQ2B0uDI8r4Ir9BobYr7xkTbuzixeVL2sL7g4zfSq8lvgwHhGOW0ogKu7nMrILstCaxbl4g1pSd+hEGVKO7Fb8otw45+q54xhULVDIGI8jsUHiArZ51pieEZHIuZIOtHF2mi+VmIdS7PKZUqpEnDTlfv7uJOhRFFwqp6jKcVYZ9fxet1M9zWiP/oih/XNjEd/t/2sOCdxKVNWoRm6ihOvhPG6gaM2jZdTcjDZp7AZizGNRa3BUM2ZxlQO5Hah9pxSSDlN6fEB395BijNbVSedOalPNTCcsFBwJeePb8GKQbyILzpuhbs1Bg0pHMyow76UoAErVZJedxefKFtXTf5eLtaVYlHtLgRd58lJqybxfAtx4lfGpiOixcLDGUIHswlmNwVdR0cgZuumoOprX/67i08UvcuSf5jKTGO5Kj4pSlkmkiAgjYgkwGzO1jhh6WErllCcQ8TV6GFr5E3WqrqqnQfx42DLb+Pehwzc+rfNvG5VL/l46T7byUN/XcI7P2vkqwcmGFMXRxiq/nVJ7ISne4t54JSye7CZ4805fmy6b3LvbXu59WOP8HqnO2QgeL1r9Gc8zSff/27e/eG/4fnq82Q8fjt3PHaGcUZ59VNhV6S3vvWtiO+e9/wo4UV4k5z+u8/yiw43AY+b2XEb5rM/5L7798diHvwzNKd8n8/dfQd7997OfY88j3EicbVuM3+xMYgdiESXKNVxtZ5RDP/xVe65/V28594nSOnU8+MHv8mzL/1hjYi6Q/EuTZ/Xq/+M3/jpTEtdOaQU9sdWrmLAhFLblSdUT34rdhJUym9iRfGm6uykR1gGsVekUDrswzXQgmVSrY1FgqoVxSVwkeYGe/gEMJ8Le5eFsRX1fHBjbWhn02mpSd4SHeUz6GF+2ExNZS0dY8thQ8FtIedEHdMhHT6IqyefQ/tf4UjOOYbiNL0V2rcJqg714zRxLKIEO5vTOHgym3y9ngJDJTWmFsxd3Vjrsnnp1QouRhlTJRbNnCnsR5zjtWBrpHlIeamaOBkoM+HYWFW7nSR3Q34KXx4HtUI5jdOpndQfV7lpiB0zWzEnNGMa5mlKzadf/cgotBOvIpD5eBn26PmYbtoz4gPPX3ylhNgpjWuMN+Vx8vUDvHosl/qRAUy5Z6ms72E6+jsrgocz0TxcSRhnRyNB1Z41VpfHaa81YZuPNo5x6O4n/7X9HM47z2zcWERQdVYcfe+ggUz1q4+FP3/2eVbx4o1rGyMvYk7e6PzxODswFDXiiHsLsor2xgSm0wd48eXDZFe0MaY8r6oqmsldx+fqyt/n7KCuxxVdtAusjGDUl9AX2WWNYeKiRctVLzCMIaVS+/dAaeyepLeznS5LI/pjBoY0plao6jUo/93H50rIX6Drobf8XDT4XRGNvCZHQBoRybG5IUvUbxAWacVdSew2iK9yr66nACHKfD6tf7Y2nn3fXTyd08vMqhfv2iy2gmf46Id/GTviVSHypr6W8dRdP4sEy18CEP4J6nV6kr5XbrvyS+hqfaCBSlsyvzQPww0l9KrDXeJoL9Ccdpr25XXcSvDy0kXMploaavM4ekxZfY9rhGfRFT4ONj47dudfYLi1hspKI+VZKehaNzPgXZlkqKcTc2s7VscS3hUHXaZzGGuqMeiOkter2jokwOJQB32zCf/SQhF6JaaIvpgp3iK9+ePuyuFInQh9hnVbPeXmQaaWPVEFI1TgqCG9MmIkJZAITPViHp/DaR/GsajmYZrWoraIsZPQaIe3uyG/EGvrDsxGEyPLakNQeFd1kXlMHGW7wrjFTGt7BzXZKZQMaf2OuGjPPEhKaibZ2dlbftNPHONMpZV5LTI7xGpTNXcnWafNql0BVQ1nO0X1o3jws+Sw0T80xWrCUFW1WR4bCO2IxVUJjlGlM9J3sS8aL9KQcwS96ijc3ppMDukbaCs5yeGCXuI2siMdvKH5E1xjsttEffvo1s+a6MMzS09DE8OXshtxDeGjlsMlpZPJf32CbutU5MjzIGtTFqorm7Avx7aL/ItjWK02rI16Dmd3qVyeIhzMncdQM7zte0CC7gHK0rOpHVK9OydhENec/K8xfBLg2v5WBLHvj/3u748Gv2/fVNYAaUS8CWaBMAjCwdHhGAclpkExGpR7AYUwEoSxcGlGBMy3pPCPX/gY733nH3HLrR/gvi//gNTzl7JL8iYQBGU892xjnO/8DTVqzwCV2W2qN0VHRrcxRv3ZYton4yLfL3Hofha7S8gwdGn4bK+yMLMce1+DQtlzkeqMLIw9zvgXeynlb+jq54KpCPOEepdFg1DAj3gn3XX1eYPy8y9PYBsYR0vnDC5cZMC5FjawghtMmnJJL+tlIU67vjZQCozUUW3fRq6Xw6rLQkn9RdZXl1he8/7BfgcCK5PYunsZjTNYL2cgV6ntLuGjjCaZ/NddrvAOsGcee5+FnpE5zd+T9cEqzuQ1YF+5th78qy3/6x0fRf7y+sYQkEbEG8Ptumml7CwoV2EkKEaDuArjQm0wJDMiRJ3kOxHXDRySUYmAREAiIBGQCEgEJAISgSuAgDQirgCI1zIJxXhINBa0eFYMBdEm8aOUabszJdaW9xIBiYBEQCIgEZAISAQkAjcyAtKIuAGkq7glCeVfGAvqj3pnQRgCoq6yE6GuJ9KKy1OycsUgSWwn7yUCEgGJgERAIiARkAhIBN5cCEgj4jqXt9qAUJR89W6BYhgoxoRWHQGBstMgypN9lLairvxIBCQCEgGJgERAIiARkAi8eRGQRsR1LntFsVeGodwruwlqI0OkE++VdoqxIcqVHQtBS20wKO2VNvIqEZAISAQkAhIBiYBEQCLw5kRAGhHXudwVo0EZhtpIEHniXuxCiKvySawj8hU6iVd1O6W9vEoEJAISAYmAREAiIBGQCLy5EZBGxHUuf0XpV+8YKHlbGQBKHTF80Va5V65iZ0JN8zqHSbIvEZAISAQkAhIBiYBEQCJwBRGQRsQVBHM3SCluSOKqfLTyhEGhGAWK0aDETij30nBQEJRXiYBEQCIgEZAISAQkAhKBrRCQRsRW6FwHZVquSUqeYiQoRoXYZVAHWG+1U3EdDF2yKBF4kyEQZMnRH33bsdVqxdrTSqm+nIHIq403JkwUGEdY3wqZoJsJmzWejqCl/vaYqczQUWiZIflRC6pO1q2UZhmxuWJuk6rSbZIexkyFlLSOab4hfJvGslgiIBGQCEgEdgkBaUTsEvBbdasYAYprUaKyL3YORJ4wCJRdBFFXqafkKUaE6CvRkFDqbsWHLJMISAQuEwHfJHU6Pd3JXt6+XXlC9/51N2P1WdQ4RMEUtdkNOAmyvDDL7GAzxjoLjkUPs911mCxWrJZ6iitsCcp5kPWVRdye2O6l03SS02ZXQm+XcHvRyMFcS/jNvts18/nwJdZZ6yPvcBn2TQWJFeW9REAiIBGQCFwrCEgj4hIk4e7P4Iefv4s/vuVdfODjD/Hll9qAIQy//zU//OJzVF4CrWRV1TsF4fQwBx56GzfddBPv/uE5fH5/OH6h4Vne97a3cdOnD2APBOLeJi0MBGFUCMPh2v+U8uSePewJff833nn7n/HX//QqDZPXizZxZeW/WV6jvPqpMD5C/tHDdZue5b0Cs0+9yujmRjInAQHDb2f4b387G/e99ckVLAn1ruxtkNmWdI5VjeLRJLxduVYjD735+fQJgqsW9IYB/CzSlqXHsujB5xMzxI+tOIfzbgiOVpHbtp1xsIYl5wj1U1r97SzPZT5NWvNcfOVgMDZfoyVBnE3l1Kh3PUJpC62t7fG7IVYr7RV6Kgbd0dYyIRGQCEgEJALXDgLSiNipLJaMfP+jn+aXNeO43U7aUh7h9q+m42KI4p8/yof2PEnpTmlF6okdA/VHS/kXeZ6FTB5/29vY8+nXuBAxEC6m/N+85S1fI2spTENtfCg7GIn01X1dS+nAUhaP7PkKac5Vlib6qXz5Ee78yD9jXLiWuEzGyxuXfzKKifnB5WweFQbDp1/jYqRw/PDn2LMnJv/ENvJejUCATP0a26nS6hZXJL1sIedwEQNrSahtV67ZzIEx9SxNQvFuyCVH7B4EhjDkduBmktr0QmwrThqyzjEBuNpyqboY/zuziax/CENKGfYdeiLNdFRQcz7e/ak28xUyzvWqjAALtTk6yoZX47oLzHeQldvOisj1zTPhVDleBX34VOsegQULJUUNWCdXUGXH0ZM3EgGJgERAIrB7CEgjYofYT536Mnf/zKz6M3OS9s+/pivUXqym78yIEIp9osKvKPsiv/OFFyhRHccqyHu9Bva97W4+ct8+ykIOyj5K//EW9iT0KXYeBA1xVWjucHi7XC0RPy9dv7qXe35t0VjJ3JpVywsvXLIxtzXFnZQm8r+TNtp1tPkX9D+yrfy1KcpcsTJ/VL++2YXmqkKzjq34MDldS0l62a48SbOVDnLLRkLPxVxzNkZhIMw0ki38m9a70Rf04fX0kldgxRvakThLt0pP16TqqOFwvnXTbklg2cnsJgPIR3/hSUxOFSX/KOXCWIrbbhmj6mgJI3EbiusMncuj4cIq+BfpKz7FKUMvC4F1xm0XcPvdOCz1GOs6sS9s4Jp2sqHqRiYlAhIBiYBE4NpCQBoRO5LHDCe/9Kf8hzl+RW/RZmMy9C6GEva9bd8m5T+RtFDslV0CoeiLb9TtKLDBVOdxnvjAZjo+nzAivsV3v/sgL/YLqv385ksf4AMJRkRif9fPvYYSbv0td//FK9h3OojABs6uEzx+x86MuZ2S3Vk9Df531jBWa0v+Bf1/uIHlH4NBO1XGUzffzNvf/va47803P0WZdoOEXC8pZ+M03ITyK3/rGTNyVNfMbJLV/e3Kk3EUGC5F3yHW8YUyrw8ZCJ7efAqEf9OYkWzhUjReTU7ItWiaupx6FH3f77pI3yY3IivthuMcKWpT7SKIWAoTuSn7eS33PPGx0k7qTxoYUm0NeIdLSSm2xRshi2bSs7s0YySCa5O0V5TRZF/CT5DFnnwOHtRjWRBgBXGPmTj92uvkdM5e8iJCMtxkvkRAIiARkAhceQSkEbEjTM/zszu/jE7l8ivcjJTV/kAgbEQUTdbz8rc/xQf23sKtdz7EM/oRfCGXJR8O4+/45mc+xJ/s3cutH/oMT6f3sR5xTfJ6z/P8R/bwlre8hbe97W289a1vjdtlCO9E7OPgwb/kG3o3LGfz7R/8E/+gNiKCLjqOfo+//Oif8O73f4LHf21kQnWsymLHSZ750r28711/xDv++HY+/MDn+PSTOhQ36K3LI/x/+k5ufcc7ePedYf7Vapm7O42nHrqTW2/Zy/seeIJ/+ecv86H7fhXzOd+SPw0l3J3Lo3/8Q+pD8tmu/+4QfuG4CiW+Qm1MbNd+J5Nggwtl/8k3H7qb9+7dy+33fY0XjJMRJSfMv8Fpisr/3f/9IZ45a4/sXG3X/3b8h+m//vqNKv+d4H85dTyk6DeoTV/kC/tm+eDfz/PEyQ0uqidwiLwwVnZqmGzBj99JQ+pxahyqB1Bdfbtydd2E9Eyjjuw64UrUSkGmCKoWNkMOwmZYas+l3B6IXlmzoC+2xXZPfWssLa/hVRs2gSlqTuTQPdVHXyhYO6HDxNv1bnJOm4nurwRdtGemcLp2hBUVXf+ggRN1YolF/fGz7LBx/ryN2RD2Qdz2KnQZ9YyOdmKyLUeNhrWRCs6cG0NFUk1IpiUCEgGJwJsWAaF7Ch1UeJ6I625+pBGxI/SrePrmf6A4sjUft4MQal/Kvrc9wBO/fIXi9hFml5a4WPJD/s/3/4TG0KlJHfz8nr/l9R4naxsbzLe/wIP/+zOc83qjOxPhiVDKvrfuwxDJF3nhnQsDT970JCV1P+LPf9EBTf/G0xln4lyoHOlf4+PfSqNj0s3akp3Kf3uIz7zUH/lTFkbQPfy4dJC5NQ8bS9PYuyp57f87SW+I/+3KO0P8H+qdYd3jCfH/wLueoS6KnY3f3nsvP6kYZn55nuGy/8Wf3fXvtKtcGbbmT8OI8Bv41s1PUxXqY7v+FUY06FxSe4XO5utcyXd5/4e+TkrtMAtrHlbGM3jiwz+hJVRV9PsJHv/lAQwddhZWV5koe4YP3a6UXy7/4XHduPLfjPeVzfHwu58scqDZi2MliHveQ9oLc/xVhjfBxWmeodYh5i+r8yCu9kyOlA4nccXZrnyrzkVQdUFCUPUK5txS7AEPtmI9Xe4Ag4bcHQdVr9uKOGwYxOOx0toZilTYigGCF6s4blQic4K4zueiq3HgHjvH6YwahpfCWxTTDScpsiUYUZ4lXGvKH56X2W4Dp/UtTIUMCi8TjYVUWOcTZLIlO7JQIiARkAi8KRBQGw6KR4u4SiNieZnlyLe3N6zSXnszopZn9n6VzMUwZ0KY8XEHpez7L09S7AkbBSHr0FvMt256MmQQiPvQx7/MxY5q9Gk/5C/e+iSlEWtSTIRwnbCyaPD5osZFeJKUhA2GWR1f+qqO7sP/woFhtcI8xP77v0jajAq5lRweue+32EJZFzj6hY/xjUNGui4uapz7vl15hK5/mbHOc+TpnuFB9S4IFn5x1z38q9GB27OOs/nn3P+hn0fiRUTb7fhTjyXS13I2X3vvv9IcuQ1dkvavVNKgoxSJ67bt1ZXVaXFC0p/yrya1g/gqExecERcO0e93KFF7uwkjKA6jnfSfjP9I/g0rfzXWWunLdWciLmA31MPkKv/jKTdWre4uJ89tJS9FTxNLSNgAACAASURBVG+yA4W2K9+ybwfGnKaQkRO0V4SDqt3d5KTk0NDdiP60iRmcNGTXhNwsF1pztg6qDs7TnJ5O27yYuLM0VXdv/X6JUKD2afQ9IshC7CJUk1vUxVzo582P05TG71OKGXRvYNHraE12MEJgmeFzOeTWDLOs2BRi3EE3QxU6UvPr6R5dwKN+nrbERRZKBCQCEoEbF4HYgnJs4VkxJBSPmN0avdyJ2BHyNn573338PqyRh1oIwa2MjzEfclcq5cm3hA0GIdiwUMOKn7KrsNp1hMfvvpMHvvpdfvyzf+D+t4TdbdSTIxiMGAsRnmKTQ1Eu23nugX/h2ed+QStKnqhcww/eqbjxqK5/9H2MyvjWxjFlvMgzX3uQD9/9BZ7+bRFD6oNTtilfsxwN8X//V/bx45/9PZ9IUJAXir/LvR+9m9tu2csdH3+U/Y3q9dzt+FOPJcJw16/40BeOMh253a7/cDUNOpfUPlJ500UYkV/nrNqGiKuj1W983uXxr9C6UeUfB+ZVuZmfC8T77HvW2ffoMg1XtDcPw6VHOGNeiLrlxJPfrjy+9qa75Q5yS/pYnHHQU5ZGbvMoTvcSLpeHwHg1WSLaeb0HfZ4Ft2eVnvytgqoDzJmz0NU6oosKjho9LXNbae7i6NhTmJwe5vqqMRj7caliI/AMUnwglZb5MaqOVTCqQWrD2YepqpJcXRZ1PfEnPFmt3ZgMuRSW5nH8lRd56bU0DO0T2xo2m3CSGRIBiYBE4DpFQOh9Qi9UvmIYIk/olurFa8WI2O1hSiNiRxLwUf3Mbfz1sbHIjoF4edsC+gNpjIXexRBW8hSDQW1ElISCpwc58Kn7eK51OdQ+FOPwX8IB1GIiiF0IcQ0EStmnUs4DLhfhzQ9FiXST8/V3895nitiIMyIG+N3Hv4RudkeDIbA6iTnt29zzucOagcuby+0c+OS9If7DPSj8KP118O8f/AoZSc/Q3I6/RHprNP70I3zq1eFIB9v1r/BRlgS/nbZX6CRe+/nNPX/OAYWdSPHy4GAkpiSRf1FBnbfT/pPxr9C6UeWfiPeVvvfw7z90060iG7C7+YsfuEkQqarGpSd9E7UcP1XPtFqxVpHZrlxVdVNyoc9IfnYWeZXN9I5OYtbrCW0IhGqu0G0opncZgheNZJlGGWvIJrV8CPU6gZqob7qRM2eacKpcDgNT9aSebsKZ4IUUa+ek/thJCmpqaRtZ1HA78jHW08+SCKrOiQ+q9rgcDPSep8vmZD04Re3x+ODsUB/BUSqOFmFbDeB3O+gbckYNnBgPMiURkAhIBG5MBNSLyoqRIAwHrY8oT1amVf9q5UkjYofI+rp/x59/+P8lrXOaNfckzSlP8ePcybDyv5TFo3seJXsxbAyErEV3Lo/v+Rpn5kVeHT9674P8qsPF6pKDjrLn+KubH+SpA6UMx02QFn5y+yd43uxiY2WYM/szuCCs0NB7Ah4lZwWsv72PL56YglU9X4++JyCI/cgXue/JU7RddLHuWWOmv5T//HkW46Hx1fEfjzxPWc8ESxs+fB4X9sp/5d7//jPO76jcxI/e8+ch/tdXJumqeI7P3nQ/3321PGKEuDA99wC33fkpvvzYd/jBT37JSycNdM8rk39r/sLj+ztOz7mZH20n97nP876P/pj66Ft+t+tfEaI2frDT9gqdxGuAgQOf4U+/8jL19nlW15e50HCQf3qhOqSkifdcCPnnrMSWXoMR+WeEjrbZaf/a/N/o8k9E+8rf+8k85ab+op/FjSALDg+//ekcDxeqNOhQp5cRExGYo1l3hKrRTdHa4eFsV77NoIOL00yvKvPLgfGMcupSAFd3OZW2sP/UQmsW5fagWLpKshsCvgUrBn0V9k0uV2sMGlI4mFGHfSkRG0JHyOboWnApbCTh2T9g4GTcm+v8eDZUlsmqhSx1cLZCx9WGLtcidx4UPORVIiARuKERiHmbxHYbwgvK4Z0IxZBQ1xOAKDsTwujY7Y80IjQkIAQkDAEhwJjwfNiLf8ZX/6//g3fe9jEe+50JZygA2sCTb3lL6I3Lb/nILzkfygufthQ+LehJir1r9Gc8zYO372XvnV/i+XNdZDx+B3c8dpr4A1H82HTf5N7b9nLrxx7h9U7xL79A2sNhF6V3/FMlntLf8FJvLC/6xmL/DM0p3+dzd9/B3r23c98jz2OcUCbYAK8+/CCf++zH+eAf/1duvuU27nro2xxsVpyWtyv3MZT1j1H+f1VjIePx27njsTMR/ic5/Xef5RcdbgIeN7PjNsxnf8h99++PxGSIeIBk/IlV9ogL1k0386733cuXf3AQ05Raidmuf0WIWviJsp22V+hoXL0TVL/4D3z6w3/C3nd/kE/vO0pXyMhR8f+R5yOr3erTlp6kZMf9a/Efk/WNKX8NrK9CVtDl4fBLLj7xxCwf+u4C+854NHYM3vjpTEtdOaQU9mseaSqGs135JQ150cyZwn58+FmwNdI8tBQ5xchLX0Em7VHjezNVj7MDQ1EjjrUklsDGBKbTB3jx5cNkV7QxpjI0gqOVHKtSgqo301ZyJuuOU2xTP79KSfgatJdzNBqcHSvz2Yo5vulEp1i5TEkEJAISgesdAbV+qRgMYkzKLoTaMFC8VGJ6aHj0WnV3CxdpRCRBXjEiokHRQhWNuB0pTZQ64qp8tCxHUS6+iRNBaXP9X9t49n138XROLzOrXrxrs9gKnuGjH/5l7IjX63+QcgRJEbhR5F/GU3f9jM6k40xS4J+gXqcn6XvltitPQjZZdmCqF/P4HE77MI5F1Qo/07QWtTGtZR8E15jsNlHfPopbWVtI1oFnlp6GJoYTdiPmmnXok7y5zrNgx2IqRZ+TzpHX8+lPGj8k3o13ihMlHfHvpbBaaS08HH7fRTK+ZL5EQCIgEbiOEVD0Q+UqdErFaBDXRD1R0TkTdUdpRKhOZFJOZhLXa+10JkWAipGg3CtzWAhWmQxKnqgr8pQ2Sv6Nfp1vSeEfv/Ax3vvOP+KWWz/AfV/+Aannt1gSvdEBeZON78aQfxnPPdt4w72bILAyia27l9E4g+NSJ6iHgbpybJET6rRbexgxldI2vprUlQo82GpK6NtEx8NgfSUD0RdQaPcgcyUCEgGJwPWKgKIvJhoLWuPR0i+VetKIuE6MCLUQhdASjQghUGVSiHLxEW2UtCJweZUISAQkAhIBiYBEQCIgEbixEVAUfK3FZEWHFHqioism0xeVBWmtckU3vRYWq6U70zbzWRGWYiyIq/qjTJhrQZhqvmRaIiARkAhIBCQCEgGJgETgD4OAog+q9UVhOCgfxTBQjAmlnrqOqKvWO5W26ut25eq6VzstjYgdIJw4MdRNriVhqvmSaYmAREAiIBGQCEgEJAISgT8MAopRoPSm3Cu7CWpdUqQT75V2irEhyoWOqdQTaeUj6oj83f5II2KHElCEKiaF+qMINzFfXUemJQISAYmAREAiIBGQCEgEblwEFKNBGWGifijuxa6DWvlPrCPaKnQSr+p2Sh+7fZVGxCVIQBGouomSJ4wM+ZEISAQkAhIBiYBEQCIgEXjzIaDog+odAyVvKwNAqSMQU3u3KPlCv1TTvJaQlUbEDqWhWIuJvmsi/1oV7g6HJqtJBCQCEgGJgERAIiARkAhcBgKKx4p6UVkrT603KkaDolsq99ey4aCGSBoRajSSpIVwFYtwK2sySXOZLRGQCEgEJAISAYmAREAicAMjoCw2C31R+Sh5ipGgGBWizo2gW0ojQpH0FldhGaotxy2qyiKJgERAIiARkAhIBCQCEoEbAAHFCNhqIVnoiMrOQWI9ZWdBMSIEJImGhOjjev1II+J6lZzkWyIgEbg+EfC7WXKrYqjEmeHRkSzRaSig0xleyQqurbEWK4zWik/4Ga3JoWpoWUVHnEMeXyvp3XIXRXoz06GTCJewd4+wGDuVcFMz/8w4EwlvpHb2dzGxEasanDdTUHQepyeWlzy1RGexnubx9eRVNEo2bEbyWx3Et/IwVGug1bGq0SKc5VlZYTu2plvyKOmZQyWlGD2/Xztf1JgwkVViZTHSUCgOW4ph8TyFOSbGEvDckfBWujGcNeGIaxvkQn0uVbaFHb400Y9roJmuCRUiMx2Un+uMvFG8G1NBPubZAHMdZVS196reNN6NKT+HBoeqbQylUErMA322CYdqbiRU2XzrcXJxSt0giNu1iDIlp1oLqR8NS92zsaExzg36akox91pVvGqlLdTm6TE7NaW8mS+h/Lku0mfVoqWdZ2kyoDtdweDS1kricq8BfZ0d95aTJYElzwhGvZGhRRXtdSul2XXY3Ql1VbcBl4OxhAfcP2mhyTaPsn4emGkhv6SfpWT8LDq46FIkEiO+YM4jy3Qx4ZmMlWun1rDXFVLWMXGJ7WLUAs7zVJlGWFZBEStNSF3C/Fp1u9nwekOeKOJZXh9tptbmigZGaxkYSp5iNCj3wnC4ET/SiLgRpSrHJBGQCFwZBHyT1On0dCd7+fp25VpcBF2Yc9Ioi7z+OTDTQVm1jQXxnxy0U3rEyLhoF5jHnHWEwr4VDSpO2str6RQKjcVIXqGJbpVy09tahC6vG+0XQAeY7mvHvhRWAlYtuRyrnYgqu6sDBo6eLGdwOYkGsdJBdmotat0xMFrF0Zwuwi+i9jBUqsNgW9JQ8DSGErRTdrScUT8IpTDUq9eJ2WgmYktpNFqjJ+8UlXZ3lO9QpeVOMl47Q2vyhvgmG8g628nsZh0o0o+H3ryTNM5ojz+40ElxQRPjGnbKmkXPMYM5rLx21ZBxOItOlzYdgstY9K+Roo+XndVqpjQ9A9OWmvcGQyUpHCsfxh0gqtTAEm3pOtqS9RmHpIcJcxWmkZU4DL39heha5sM1g6NUpFUx5vFhK0qlaVZFIGCn9GQ1jmSKW3CJrtzXOFbcSq9qblrbq9AXdzGXFP9F2rIyOR99q/kS5szTmOdFRx568vT0hmwMP7biU9SqJ2KIPQfVRwwMqXU23wBFZ9oi8zMyBpF33IgjKR+qsSpJ3xpLy2t4E8e8NoQh5Tg1m3hRGia/Bl1dZB9KQVczElXik9dWSoLMteg4mGNmVtH8BTr9hRypsG9NJ+CkXpdOa5zx5KJF9xpVF4MQdNFZUkr3bDLj0MeFyqOk1Y6hNvXwjFBy9CS5rWNbPvcB4cajDEO5rvWRl1KKXS0zpWxH11W6cl5Cb9F4KDe13zy/2jLSaZsTncfmVyDgxVp4knMqCz8QWMFaWsT5uTDoioEgdh+UnQjRnTAglB0J5Sp2JG7EjzQibkSpXu6YPIucPW7lme9bqb5kWi5+80w/3ZfcbvsGru4hvvVEOXs/ZeTruYvJVxPXZvifXzJTuj3J3amx0cvZF5/nmYd/iRETP3rPHvbsSfzexN+dntPgz8Jv/u43GviOYTz0O55/9mkevvtfKNdoeb1nLdpW+f4P5/jA1+d5ssSbXP5XbKBBZlvSOVY1mqSv7cqTM7Lem8drJUORP9N1evNeDitu8y2k6XvwsM6F2kKq+uc3/+EKsp5e9ClGHEm6cJpOkNWpZXwA7l70RwuwhlYj1+nRn8LkVBNaoTPrJY7UTaozVekJqlOOYppWZa1a0Ke3sSBWa6daKDc7Q3xr/m/6FrgQp1SWcOxECZ3tlaQdFMqNC2vhMVIrepmN01JU/bk6qGx2JuwIeLFXnCKvV2Xxxe3yKO2d1B87iDFkqSl56usE1cdLsQtFMejDt0mx8dBfeIBcyxJud7yiNWbUkRQ2dRf4mWnL5mTqOYbjSHgYqz7J61kmLiyqtMO4tuCbqOVkmokpUSXgwJiaRcesHwLDGI4mnxcxMgHmuwwYLK44A0KUT9alUmGPKDwLrZwxDBLASX1qCSMq5TnoqOFUhT2JwuhnpjWP1KJOFtS6k9dJ45lUyvtdSZ4pwUGQCw0l9CliDI5QkmMmfOugOttE2JaZxZSpMVb3eTJPK/UjI56qR1c1Ghu+SE3Vc8IwkDCH4qvs7G4VmyGF1IZJ7Wd1KyKeKUwZaVSOuHFZ6ji/oAJ4q3brAxQdy6MvbsdB/I6IZzkGuObzBzg7jVjmAqB6FmtydVS0W7HUFFPS0oPV0kCRwUKiPRpc7ECvP5+Q72falEle9xKORiO2+O1B1Ug26K8y0Kx+/kNpC60tEeM7WtZLa3EmFSNxW21hWh4b1YYWeqJ1rbQUn6GwObZT1lGZSXZr4m+EaB6bXyEjwDNAcVYLC6Edh9Ho/PL5pqk7U8lYgquRx1HL6YphPKp3OKgGGE0Ko0IYE2rjIlp4AyWkEXEDCfOKDcWziP73jbz/njeiiK+iPzWeVLl5wzzOO/jGI80c7lpjxe3gW5/vwqRJzI/5QDU3vSHeNQle+cyNXvTPPsz79zwZMnSCy9k8uudRsiMrv97lC9S+9FXu3GeIX+kJceJA/5JeA19hRLzE73/xGHdF6F55xneRomudp/7Zxck+P+7VDb7/rWWarzY7yxZyDhcxoPEfFup6u/Kt+Ntw4VoDn9POuBvWbA20TPoQq8CnTA5mbZ3Ykq4EAo5zHDpZSpfqT9QaTfdQpTtC/ZQWAx5Gyk6Sb41oH2s95OqaiKw7Rxt47E00j3vxb2xoKEZe5qbnwqudGzMMh/rtprtbuHRYMBrKMVutdDXoOZXdysymZUcfq0vLrPvCyo7XVkSqYsUElrGV6Mg0jWu7NixYMNZ00lZWQp3or6eF4uxK7GvgdzaSeqSQ1igOXdRmp2O8GKelh5QI14SDFZ+Li30abiiWClKPFGG29tBceIwTlfZNz6Fn1sm8047d1oHRZIm4zXRgOJZKhSVGs6e5mIJNikyQ5YFKCupGWV0wY2x3RXAPsNhbQErqObb07Aou0JqdTXtoZR48gwaOlQ6HlfLZJk7l9UYUdBHLF1Moo8IV59A7askwDLB5aq9jyc1GWdAVssk0L4L4zcpoRziCrbiWWPeuMlhykrIRbUPHPVyNoXmCDWcbxq6IoRJYwWbQkd+dxNUqOpfC+J0/l0VGnQPXSBknsmrDGAvZ6KrCymOvkdN6y6Z5ErRXcMw4ph4uYrdN3x2v2a5acjhtVrCPq35JN25bMa+/nINlR740KtK+Wdr1Okpsi2FDzDdBvb4s+Q5gtKkHe4WOwn43wZUJbMp87zaSnnKWpsh9r7mC01mNODc9f1FCYs1c9Sz6GTCcpi0CicBHLETEzyA31rISwpujPuYmnaG55p1sINdgQ/yqBGeb0VdsfmZEr2v2SnSViuEZxNVxljPVdrT2DzwOU2iHtdexvNlQnazjSHSeq8cT3pXzet1Yco9Q41CtACTMr87qTE6fG2V2oIQTmTV0d3fT3VnGqbTK0Pzq6a4iPaeT1QQjwuebpOZkAf0bOzT44tm74e6kEXGDidSS0ndlVuCDE3xnFxTxZPzbTtbyqEFRBvxMTmxobtl6Bmw88FUjd+0C75c0lYIlfCeq7JfyZDStUFml/pVjWJTbHV+1aMUaW1544crMjxjJP0hqMHeBb1UrP9pBpp0BTflfOWbWsRUfJqdL2yEItivX4GS2j2abamch6GLANs3FtnKaIopnc0EKuipLSCHvqMilsHsh4U88THelI5PUON8SdX9jVKUUYtNQHpZsxRw5lBddCew2niYlr0nbd7yrjszXj1Jpj1e+1D2J7X/38ipeoWkI95BT9cRtasRX1rybqD1BifA98S/QazhDQWdYMRGV193uOCNGKLVpjTMxOo5zpJUOs+Fz0lRQzrDaqXy9m9zDlWyyIYSiE9KM/KwtC2MmRk6kAiNlHD+3eY9nw9FHn1PZGlnFbhtnpUdPZkdkydwtdmNMTHvB63bj8c3S29TOBZfabz+Ie7SFmvaJiGHipteQR8fcBjNd+ZzQGRlZiVfb4rkLstCeycuHihgI2YGrWHJTyGsKK969xjMcOtsYkmd3Yz4nMpo3K5GBWZpOZ9IRdRdS9zBG5ZEcGiKKaHNBanjHZrya1GqxdRNkY36AitSD6Cpsmj7z64526jomI+PbwG7MwzQ+jcWQhaF7dovnVhgoK2yEjEsXY8OzIQXVMz3CmBYmi3Yso8p2RWwM8y06TpYqMR1hXBpyj6A3xYw7YXA35B4lwdaIEdlhyutsJeOEDl3KYQyDy6zNz4Xcy7Zt7p2ly5BP/Wi8O55/1kx26lma7bEYkERanjEjR146SfXYOgTWWVl04wmAy5xBriVuayKxafQ+tkMxz/mqGs6H5N1G4dEznIvEkjTknqAm4TFYHWzAZA+r/L6pBlKPFWObtnPO0KJyPVxnuDSNnBZljke69U/QXFBOX2RrwzvdRPqBFPIbu1W/Px1UFYsYmgVGBmK/A1HGI4n1bj2nVL8DYkdBcRcKuxhdoPJQfvQ3UOQFAussLyxH55fdNoXb60WZX2LHQLgeRWMZFobpHF4I5an7FwZKV04KdZNbPafqFjd2WhoRN4p8A36c/XYe/6s3snugBcIkT16iIu7f8LIw76bN6GREi+RWeVvyv86x79bwWlL3gwhh/zIH9tXzos1xybxvxdrVKVMr++r0EIaXDAxpdOpfX2bBaaetoG4LfNW0VEQCGzi7TvD4HeHdD1XJHyBZxlM338zb3/72uO/NNz9F2Y56D5D2bwscSeZdsyMal1ZJ/FEf1TUzq9gtCc23K0+oHr4NOqk//hoFER8E96CFodUV2jNO075JF1qlMyuNZuFysOkTZKTsVU4be1R/vioFqbOUE7pWtNZYA/MXuagEYgZnMJ0uoH/zcvSmHmGN6cFwH5ZzevRtGm4CjhpOlI2oVg29bGzEVgLdUwMa/FqoSDtMUZuFuuwUjhQ0RV0UeloMHHv5KFUXYkbMVH0qpcMxTFY6ssi3rjDeUkPPfKwvMYDghUoORd1VArjG+kL995pLSc/tCLtj+MZprrLE+efPNqWRb1UWLFRQeIYwvH4c01QQz3g3NpfYENJRYZvHOeXgYnshR3Pq6e02c85QhmVknIk4nc7D7EgPtqm1OMMwON3AiYMHOZHXyYxGtyoOEEqmIUvHoXxrSMEOTDdiULl1Oc4dp0ztc6RuHEn7hktJMQzGGWfRaktmMopskbJVOrPD8QfLHZnkhQMRQlWFwqX1WXXasI3Hrxx7Juo4tf8VMtu1DeIYnRWGhiLbZ7NNpOkaGLLbNOaMMtfPU52ZQb06KBwv1nzx3MSowgLNpxNiJESeLpee2NRSN9hROrDYR8GpHDqd/RSnVCDCCVi1Y6oyM7EF3cCyHVNZNb1aO42BAG5HE1mvv8JxvZFmyzBTy6pJsTFK9dlUjh0MxxDFGJ3FpCvApti4kQKhPIc/ifPfzLzgd6WDzJyu8E6AMLpzlZ0dD86RUSJhUyES3tluTJaZsPuXb4q6zLNYnJN01LThiBtvgMD6OOdOvcpRfR3W6fj5Loj5XVZK82o439kdC7r3u+gtTuVMlYUJ9WJAZATqy5jxSPR3QFH+1XPSO99KeqqJ+WBQFZ+wQH//eDh+KDS/6hkc6ae3tze8CyF2IiJfkWe1nqcq4ww1F90hQyJsnIggaw/9RS9TOqzm6M2blkbEtrL3UvH/s/cmwHFdVf6/i/rXH34FBWUo8k+GClRgapJQQMblLJBiScJQBBIISxJ7EgoGEsgQfpBhyEACgQTCAE7sLI5t2ZYsyS1rdduypdbe2ltra2utra2tpSWrtbW61S316+3zr9fr69ZrteQ4wcGvq1R9313OPfd771Ofc+855x7Uce8Parjprk7KEGhTtbP7Lg03PGmKCnt+gc78Tr78QBkf/moNe1PmmAnscFk5+rSOL32jh7OjJn70cBkfvEfLfX+bYEh6hpewvcigH3OTke9/v5JrPqvhw/fV89PzUp8AKy8+UMSO3cXRv3gFYFP64vabQNupDu76RhnX3FvLj84Y+UE8jU2xsvLXPWXccI8mzpRokQNP6vjC/d2U2ZZIea6Oj92p4bpv6vh1TXgXJhn/i/zmy63kjpp5+vFKPvi5Mnb9l5HmuJ20idOt7FGv4mX7CtBKZzpP3b+bj33wvbzvQ9fzyc99hS89riJiEeK30nn8Sb786X/iwzfczt6/aJkJnOS3ceCbX+cLNz1FmVVPyo+/yMc+8AGu++S9/FozFRUWfEu0Hf4Jd918Hdd8/HP8KOMlfhA5fYgK/h7TIe6O5EsB7+Ovd1zHDR/Zybtky8N1o7TCOdDLi5+K97mIUyYSjs9OxfP3c+9dd3DTtU9ShpW2g99j97U7ueGbadH1H+3sLUgJPP/9FdQXXPz+mUU+8dAiX/qzg/YNgreorGxVMdmETa+FxkzRSVLeVINk5ZuQnq0/HvR9ECbRd83hEx2pj4ccqaXt/BcoT60KOlhL8wPpRZoysglvgMcXe0dLOFxuiq69+Aqh53VjESl5dRGhPWIO1afjbF41U3ECieCws+bxMV6mCjgd282xAl6HJi1mB7hTe4pDGXWEZTy/y8GKQ8Abt4EnLI7Q3tTBuDWEd3SbNI5zgV51Dp0RVw8/Y6UqKrsGGF9aZnp8PmTGE2y20JxJbrQy3jU7tjU3Kx055OhXIvjMN2VwtGoitEMuCqFxDsQRLrxMtdYwbF/A0HkBN6LDbxH983PMLa8w23yK80NRgc/Z20qv9H88AkK0GDwOzL3VqHMKqdaeJuVwFpVdF1haDwt+kY6DCcFMW10vFw1nQo7PdgZ0XUT1TAeduTkkcoUJEvEyVnqEIqOUkWg/3hEN2RGn6guUZ+mYx8dY6VHONIWF9+B3Z9V5akK70lEK0ZTftYCxuYJy3SCW+TG0WWnkabswLaxJFM1ofVhFX60PBAOYb8qncsKNb30Vm1MI1HePlgR8MOQ5D9Mxoz1RwYR0jXmMnM8J0g3XQsxLb9z2qVm4vc8+SkX+ObrF8GMWHakR4Ru88+3kqUoYssYrWl5skwZaOkYxT8a+O8F3r4NyVQbl4068NhOtGhWq4nZG/0C32QAAIABJREFULOFFtMqQVotxrJFUtYElqVLeXsTRkxUYwqZN4ndnFap0DaMhRTa6/nNRG4K/vY6eAvLDC2ZSiyqhQ4/oeH2IzLNl1DbVcy4zG51pmqGeYSyLZoYk/RoaCgL+Jy7nJK26biaX12Pm27M0QLXWEFSYhUl0lT0srpppOa3iXHfi04cw9rBCe5a48RBch6LA39fXF1AGwv/D+mrzeENjRAidLIgKgNe7QmtVK0seD+H15XHaWBJPcjyegFlgetlY4HQirHyJpxvxTtI+n4Oe/CMbTmmi/F1dKUWJSDrfPubGFmnW9XPXLj1HNAaeOb+EZW2VytLFiC2x+XwLtz1rotPiZm11lcpX6rkrQ4xOIjDW0s+Xdml58OgF9BZP4Aj97B+13PL6UuRHL1H74P/CZV74bhNHRlysu30s9Q3yuc93U7+B98TC8+b0YepME594wkjDrMCafZXStGY+sS0lIsSMxxynfAiM6I3cu6uWRw4bKRx04hA8mOu7ufmrvehjxpCI/4v89LZavvaXfsonBJx2O6d/X8WNByRH4/OT/OzP5tCPQiI6MZ1JHrp5/sZdPF06wuKagMs2h6mnkjd+l05/qJY560Fu++FJOmcdrNlMVP72bu56ZQgfS4w07uPeHZ/lkT8doLDbjMPlxFz6FDff8NvI+KYyHuATX3+Jhikba9YxSl/+Np+IKAOi4C8V8uMEfAmnuIskyoe0IJyWUyKSlyUen5u5wVaaq/7IXTse40jeMzyT1YHFMU5lQVtk/Yd7eGu+BX75nWUePOJAa/ax5vBQ+MoSt6cJcaYRS4y2jb5JnvxYO3I5JprIyA4mWblso0imd9HMxXUfc22NGMUTgKVWMkWnYsmPcOCHsLOENHWvPA/CAOrXcqmPbxN6bi86Rk5HIjOsECueGWqyzmO0j9M3GBZSxLJ1TBXpZNVPJwgtu0hTVtDBVhTwVsMnDb4ZqjPOk0A2jYw/knDZsbvWmDXUUF6nlygy4u5fFg2yUW7MaI/lScatpzijhLGQVmJtz+Vk81xIOVjHoD5Oo9T5O9C5j9GSEzHOz/5pLUfVvSG77Blq0mIdiCM8hxL2Ph0G8ZhHGKTwdGgXV3RWbVGRmqOhrLyc8nINeSfzZcKHellbMNHbUkN5eQ164xzOOT1FZZ2MGNsozjzI/lcOc+KUmuKyKrQNei6I8WL9Nsb0fYGQuVPa1IDj8/rMSMCfJsKfqJCmVkv8pUQTjkhpKCEqoCdpEz3gZT4WXQbZ1SHn1M4SMgNO1aE5Xx/AYAwpesIYmoxSxtel0nqQoNdpwdjZgq61F7PVgnnGERQiPXYm9KWoDr3GoRM5FJZV09hiwBw5rVlAd7qWWb8FnaY97iTNy1hNRWL/pPBYxMAEZ8TABJKP6FStnZRkBJ2q0yKnVLFFyZ7cCwY0YmjVUNhW0bQmNcYByc9KTwGvpxQyGIqR6ndaMA0bmVwOchZUjtwxwnVsvwKuGJt7N3OGZgYXPYj9pTXO4XethpRyD6Zy0exsw2THkgw8ies/K3hS45qk4lgK51uDwnhXaTonK8L+PQN0Vp2mRBIZbs3hwIubOX0ZteOrrC6HnOO966yuurbgoO5j1TyEYXiO6LLxYxexeiWNstHYEywZ5oNZjh7yMsLO9cEsUdgXTyLCJk0Xm3I41xs0RQrnwQL1+dVMCTM0FgdPasORkyC4voZWgyZNYn78J0LHd4HyI2cZlP+BiG/2D/+sKBFbnmJRMK3hmU65lWNn/x4dJ6XeiY4pHnrIiDFAPyjUaqTv+Nw49zwwEIqyk6x9iEmvm6kBC2cLu7lTVsBPJDwno2/n5Ye17BuRgpGIlrSOXFquXWj80o0ZWZ8LubZiH3M8eXs9KTOS/izj/NvX++gKZAmcf2MQXWSHMhEdSfuY5AWO3/sZvndES8/kSpxgKlYcZf8d93FSYorNagEP3bovNL+i4P5DNDHjk/o8jPDy7f/Kvn7pD65U2I+mhcGXuCOiXMQwGXqI1pUrhc3KE5UlG5/Yk9j2Np5pksZ4lOdgY+6bNWcS+O/vWjkhNbZfcPKtx1cvwWdkI3cxOY4Bzqao6Y8INjGlkKw8rrrco3+5g/IWS0DYDTpSSwcWbCHa/meEnY3jicwbqNKbg4KSYGag96LkR9nL7EA7EwkDvIvEfCy05qE2iIqGg6668C6tH/vgOdLUBlakS1XavzDI2byOgANlNNuP3aDmeE41/ZaNpgvRetGUYCzmeMkwTun/RLFYpJ/RiCU+XyxzdJErdaYU6+bqibz2c62cb54NCjM+E2UpcsrAPLrMc4Rl4QBHvjWcYalGjOyTEz++KN+sjaCtD4bQdA9rOB1S1lbM48wvzzBiWsQlg53fYWFseIj+XgMD4xexiUbsoY8weI4jGmNIaXNjNw+i19VSVqLDJMZvFWFZmCVo/WJHn51Hj2Mdy2hQ+Avvvg7oNRzPiDrbd9fmcKKwn9hIvWa0R9T0x0jZYU7WMKjD4VMh6FRtA2GAM7kiJpO0tQW1sqW2HAq6JYqqx8Gcychgfy99w2ZsQhAEv7ma46daYp3r3XbMg21oS+sxSu8a8I2iydRhMTfTEApZtTKoQxfwF9Kh0QR9PcLj7ag6T0Ocw4ujK4+UwpYYEyhDpYoTJZ0b8rJFh/FtfXysXmhD2zDEskTGnNSmoBmOc6zxL9CU+TLp4XfY78e9PBHDQ3gcct8dlSreyKiNhFF2mAcZXwr2EehvRPJjsz5EoaoRSVCmgNOPzDJEFKR1WaUEg2+tM2MS72ZYZ0L0pTkkVS5dGNS5cadaPlaG6tGNxjtbbxXEdZySF148qRqqyyczV0tHm4asXC29Zru8mZ2ki7VeNZlN8wGzpPCJQbxJU9T0yB1RLPCNUpzRwMxEI/WjQfurxb566rt66e9vpLhYFzFnMhgM6GXWl8iGb0pLirpvg0O/hMWrKqkoEVue7s0EUwu/uDPOnEg0LbqjE22Avkxbwcyjd3ZRGyhP1l6M3jLO3m9XcsfP9Tx9sJ3bt6VEJKMvlrdRGPPDIsPzlrCSa/dm8sROl3n+Ph0q6e6ZYOZ7n++mLoKvDP7iHDxjTvpPKUBibRpdzss89eCdfPKWe/npviJGIxu0tfziA9KTglD6vT8Lza+ccC7NE9s/SmGM/iktl6R9Lbz8wAHaEmItqStbZ7PyRGXJxid2lKitLBOXOdPNXx+3kiv9zXev88Qee4IIXZfavcBY6TGy9Ylst5OVb6Ff/wrd50oiIRAD5k1VUsfCoGDYcu44GqmgECLtF4SA8uAWTzQCP8gujEWHOK6dlCi/LhyOOKFGwpp3vhV1UV9EuFxsOU3p2DprU3WoTlYxsZmPhLkWVXWst6XH0oZa3c68e5Xx6jyySzuZccqLMH7XPEPNWgozD8bY2EfYM9eQWjYeMTWK5Is/3mOlqCTOlJhrOZnIM9aiI+20YWP0ITHKkKo1bpc72ovPVE5a3PjEUmFljhnzKM2nT9Me+D8kYNSo6VkVL/UTTaDSqLxgZ6ZORcmoO6EQ5166sEGQbClMkZiBGWg8fZSMmqnY3fQwi95RNGl1ATNLwbGCw+WNYCUMFMY6nYfbxHwvoEvPpVtOSfaMUJwfDY0qjiUQBtdcE5pzB52VzSzYelFnNyK9ZsDntLMqKg7rFkYlJ2TNhSmoKqO72wNdWgo1fchGMl2foGdonnF9F4vidQUeEePMQPhh0dn9tOg4NN9EfsDbd4qqkxVxTvNrGE6rCFtjBYftD0QyCsvy0bzU7TlVe21MGPT0mGxxO+429KdUyAV5svdpaZKaRHqcgTsmQkHJwDHEucOpaCdjHApiZmvjg9hfFlH9x8l42XGOnJUqWN1oc7OplqMrKoT5XZJNgHWmdUWU9g5RqyqPmoGJu+2iYhJhwMOSUUfLqBWXY4WFOTMTF22sDjdR1xWnzHZqKSgyxN7JEaEDntVZBpuKUWXkU917MXLiuW7ppfLUEQ6nF6DRNtPZO8TI1HLce7BKV0E27Uv+GCdo8ZQgeqoQ7CxesWB9gu6BOYZbxftnPIH1NViUQf2MG9dwCflty/jmdJusL5Guk/7CTGqk8yoZ29WYVJSILc+6nCAcbmznpYfihNxwUeB7Y1v/mJFdDxkZDpQna+/g9e9V85whvP2xkV6wu1l+LFEufDYh9CIno7/CX75dz9GIAwDgMvOIhFbMcDZ9kONt63ny/HsofKaMx6slWo55lC88bCTm8CTCl1x/kcKkCZ9zFv3JH7HrK0cxBWoP89Jt96NKuAkvJ2BL8wb4yy13c1TqGL5+lkciJw7SusnYS1Z3s/IyfhzpE3xWa2h9JBufyNNmdJPx/GbL/Wj2LfLz5ujuLRedfO0XDi6nb5sYez8to4E5ySaflPNk5dK68Wm/3Uy/Xkfl6eOkN1wMCX5OuvPlfBtEp+os9JKN3iC9NYxtwR9niy4dlW4uoDiIO+Kp2smAcONzOllHwFiRT90FGUlRMFNfqCV04W+Q7GoPecdOkJ5RjDHJzbpBR+boe7g23UpJRY/EIXidC1WpvJqhi9kZ9QvLTAwZ6DKMsugSGDx3ZIONvbgj21OWmfB+C4tOFXGmFBlf7crbELYzjLvoCBy5MC2cKX5PaUmtiPcXWcNqWcLmcDBZc0LeqdrrwNyQxYHczqAAttzOmQoTq5M62ifFCwkrg461gdusV5kY6qFZ28xUZCMixIRbFCTXsU2PE7yUWZxr8WI7D4KQYOFJ+bfoSD8/JLsxMqU9HoOPtFk07WVEc5xq80Ylz2Oq4ExEOhXXZsipuiM3golNf4609KyA4BWlKU0JOFYcuLx+/Cs9FOS0BB14Q1XEecnWb7ybIljswWHRU6nR0WkYYMRsokEVdIheaM5H1O2E/kLODQqwoic7HofVLvILuqMnUwGiSzRnFROrj4v2/Wr6YjZ1pGPYmHYtL2CXmx4xIllKJbEBZTe235DjWaA9L42zhsXAXHqsC0gPZTbUD2d4RyhOqYrpz2E2MRd5JdeZrFNzVmfEIreRYK4hqy50pC8s0F+vpX3KgX+9l4K8LhzCEqZBI8bWM6hqzBEFlYVm0l85RHpuMbX6ASYsq4GIUJNVGcQHMrN3iD4XzmhbfKwvmxk3DtJn6KSzqYiMkxpaJaGQw6cxPbXnUFfUU30+i+OntIwsufCFTJVEpUAYLyMrtGEiKg3hSEoiPGElInw6IT2NCMIXXF/lRfW0d/UyPD0eWF8jHn/ARyLp+hI3E6a0ZJeMKqcQ4fUIKEqEBIzNkv61KfbuaqFA5ndZbGfK03Hr70y0zwisu73Mj8/y1zcmQ46RolBbxffyLIxZ3djMFv72RDlfzY0eC27efp5f3VXLn/sF1h1r9DT2cc/uGn6img0JuWHORQfkGl7sFXA5Vsk+McGFUNHm9P0MnqjjM89N0rfkYd1mpzCtmU/tquThYxdj/mGFe0r07XcGccqL2BiAzzHFnjjswvVyYs7aE/PvaOvhn7+pJ8fowmG3c+5P1dydZZf8o4py5Fk08Y1dOo5fjO7SRUvlUvX84aEXKeubweby4BGsmCp/ze5/eZ7uQHU/pmP3cevjGbRPWlkX1pgfKuWvL+QF5te3WsCeHQ9TIAlD6HecZu+OB8mxioKvl8H9n+czP86lb97JunWYwpe/w6d23MjDf6tiInBPxJ6Y9nJcinlhunkJzFX8AV4eJFfWHqWV31x/Oy/qrbhWx8jenxNaH5uPL9ivmr1xY0zE41uR7+yxc+sTNtQmX2CXXfPGEt8o9MTN/5vwifAt0qI6RtVE5Nc4dhjJymNryz/5Zqk9lh699Ve8qTlV5rIsWadqP/ahIrIDjo/ijcoS51+vgBA6eDB39wR2D8Ud9dcPxTlme630Vmk3OHwK8x0UvPEyaZWmyK7ghgH41pgbaKG2upTiqgGs68uYejvoGon6dUXaCOOUZmqJyqlubAtWiZnPRerS4qPliK3FqFOiQ3uEkiThwnA66kwpCh0NBZkyPg9iEweGgtQN92SI/4f05WpyNe3MxQiQXsSoQjWnDvLy4cT3gtg7cjgZCKvrYKBKS3dvFdl5LVgcvRQU9ERPPRwGdF2rOMSd6JmNkue6WUf2sSyqR+34xbk+omHM58U6oqO6ychiyBRIMvhIcr1PLa8cBW6qlovyFWkaSXimq8nSxt8qLGAs1TAU3hQX12bIqXpEowquWZ8NY0kqr8Q7KUcoSxL+VXoLc2icDW98iWWrdOadkuyih+uvMKRVc0qVT1nLEBfDwm/EIVpg4NxZxIBZ09qCgD1/jAN4gIwXc20etfHXT4smb6faYnfFRboZosN4+ONlpjmLIykaRsLjDxcl+77YwLECmROvzdr5bAxp8igZXI6earimaCzWMpxMkxCduNWGqK+UsMZ6ZIkJzHTU0jYZDlgiZcLN8qgeXauepvo2RiZHMRiGmQ+9Bz5TBSdCJ3CeZQMVmriIS34blrmQb0uErB19zpnAvESyAk74WdH/cYECD+sh53jxUZy7U7HHRaHmbgbPifdUxCq4kVOG9Rka8ooZDinm8UrEhpOHiGKxyGDV6cj6MttcQf8J91DI4X4r60v8tzJCeWETFxP8REQxuLpSihKRdL4dHPxenKnMXYaNZhReFy05nXzl2+Xs/Hw5tz41gDZipBjcGc9s6edrXy/hQ/fW8uhxCxcjL7/4Zm3W3s+opoM7v6xh5306/txqJee/y/noLyckTnTiQPwYC9vZfbeGa77VwuEByT/wTemLKrYDzevN7PpyCdc+2EbKwBRPP9LOsxlbVSJkIiw9MIAhECkphF/EB0RSN+a0YxP+cdN7pou7v17CB+7R8p3XZ5iSDC88jdV/KYlGqNpdzOcyNoTwCVeVfA9z8IE7+co9t/HPH/o/vPv913Hz3T/iUIvEfso7T0vKz/jKLR9l587rufWhF9HOiAqCuEMfMm/61IshHxdpNKSQk7QwgeYP32HX9R/k2t2PkNKl5uk7v88zB/6XveH2klMCCXOhpJRmfH9iFQkfCel5Maq+z+7rdnLNZx7icJdEI044vgkOfjHOlOvaX21c/xsZvsw5fgbK7Xzj8QU+/v0lvpfpYuOJ8qVHZ7L1FJByfigqCMZxn6w8rrr8o2uQs0clSsNiC5nxTqBiy8Ct1bFO1XajhmOvqWgX7TyYpfZ4MSOSg5lAh2IIWXV1MCrcWi9FZ/uju7LeZYy6JkakJw3+dS4aysnNLccwaqDo6KscU+sYXRJilbPVcbTZKjR9wTsu3PPdnD1ZQP3AFIuOYOQc6YB97nVsy/NYZqaZlwvVKDpGZkfNZqJtF2k6eRZxo3nDxz9BRbrUaXiRJjFsZ9hqy29nqqedVn0n+rp8jp7SR02W/OvMGSrIUzcx6wKfbQRtYTG63nFm5q041gTcHh8+2xzmFQG3sI5z1cbywhxLIZ8EAuF5X6fC5MVqbMUgbv2Gb8MO+Mmkk3/uPOfPn0edreJ064zEvCw8Gg/LRi1ni1uZDtNdbuNkdtivw8fKwHmOphTQNhOj5YQJMFl1jPLwbdKR3NAdHSlxSqO0PCa9Sp+mmF7Jv0bfgh5tl8SMb7GFrNBN1Y0nSxhzzKIvPk3F4CyjlRmotMOEg2nFkBYfvCsMlaspD1+iFq6w1Ioqryu6JsP54n3Y48Msxc97xFxtJnSL8Cr600F7fosui8oLEmHT0Utp5djG99dcTVrcyZNvuprjgbGFGfBj7SvkyAE1fZuZ8oWrS75FH4yj8lqvpJYk6VlmoLqMFnH3X5ItJgOXJR7Jp3Pj7YyRmmui75E0gpKwzHiXDq22kfbmFoaWwy9EpAkIM7QUiJGP5oNrUpijvaSYRsM4s0vivRw+5vWFaMdDGpTPjcthZ3nBErgQM0zJ71nDOjfJcL+BvqFhzEtGNKpYB2cQnfBDt72HG8Z9iyeKkRvRY8pmqFFJ/j9KysQ7Hi7UFdEo4haK3havRESUDYlTdFCxcDE7OvTm1tfaNC0VjZgkP5kS9q7qpKJEvA3TL+6679nVzCnZ3eG3gQGlCwWBqwKBMp64+fmQs/02BuydoUGlJuG9csnKt9iVa/Acr6h7Iza+rv6zEudpgcXxThqrtZTlpARMPqRk3fZ5LLawcG+h+WQKJ3Lyyc8P/xVQkJNFVpE+EMFH3FCIREp1LWIamZIIfQJWUwe1peU09s9GnJt9jkma1Ed5Zf9BTqgr0PWYgiYWfgczZmtMJBmfc47BVi0adQ6qk5mkHz/KkUMHee3VA+x/+WVefuUkNeMrwUvopAMRfRtM5RzODd1ALLGfH+iv5lS6dIdY0nB1FH3fvMSMx4XTKd2FEesKzDbmkXlOh0l6wumx0Fpaj3g3V+TjsTPV10pN6TlO52aRmZ7KsZQUDr9xkNdfe5UDB9KpMC4QibbqtdBV0kj/5Agmufj+EcLyCb/LgrGtkdbhJdy4WTYZ6OzooV2TzrGweUmgqcBE1TFeLRndIGSCaIaT4LRhtp6jkjCj8lxIctcnaGwOOojjX8GoNwbuzRDD7TaVn+d0ZgrqPvEqdQMFh05ypkyHcTEk5QsW2vIOkVKgYzJGqBLvOOijVdfKYHiLe22OgY5OeocGaMwX77CI1xQkPMUlbfoc1OJFDo4u1IH7Ryx0afVMzJvRZZ2mNyLwOzA2tDAtQ3pFf5rCQJSEdS4ONFF+Nh9VykEKByKNA7165xpRaycj72YcKwkefZgaTqObkFf4NjSyGSnJSCWvvI66Gi3aygrKSksoq9BS26Cjpa0Nbe4h9ud0INHvJGT8mMrfiJiWSQoCIWF1BSkcyixlKG4nX7yVetkirjvJx7+OxdhOtUZNdmYqKYff4PVXX+HAgdD7u/8oxYY5gq9Y0PRKpa6ktX8yGoJ4rpHUrNDt4eH3WHyHc8JKsaS/SFK8ET0VjT7Oj0JsL95GflpyyhJp48Nq1NE0ZguEbBWVB/ETr0SE88T8sEmTqFiE0xFyocSW15fXQm9Tn8RkM57S1f2sKBFv+fyLpkihnfhdzUjNfN7yrpUOFASuKgTKeO7Zphhh90oavnu2A60hakQx21FOt9Q7VXRFGtOSV9Ibc/nZZRuD285F0wgDBgNGs01WwBcF8eVxPeVnSuiYdb4lWM7rz6IdlxG8lgZpNFgkisJlG/nfl5DXhvmCJaKsBZnx4xiuIPtM00a/iTUzJvHa6/iPMEZDSV+Mj0G4inOggnOGhE5b4Wqy36vmSZak3a0M0dBkQrTO9E23oOmc2zgn7jXWIm08WM2jGIcGGdtg8iKaYI6hzT+Nti+0Ey7LRXymD3NHHSOiX5DgIhxJGO8qJm0u2fUXInbpa2YjE9ITNgkpj9sdo4wJpnrO1owQU902hk43xHK8Tiqhc1mS7gvoirXo9L0YTdPMLa7gEGJNbv2WFgrrzbECf6TzFfq11UFMInmShN/BWFUWmohNmqRsS0k/fvE+BfF257hjEte6KwZHkZyzvwTNgMRuWcxc6KXaML+hbqR73zQtZX3RU8JIAfjNeqoGJaf/oTKnZYzJ0DFV2GQpfHeD1CdCrB72gxDrbf7Z+vranI5SqigRyhpQEFAQUBBQEFAQUBBQEFAQuOIRCCsQcicRciZNV/yA3uEMKkrEO3wCFfYVBBQEFAQUBBQEFAQUBK4WBEQFQk6JCJ9EiGXK5+1BQFEi3h6clV4UBBQEFAQUBBQEFAQUBBQE3iQCYWUh3pwprFwkN2d6kwwozSMIKEpEBAoloSCgIKAgoCCgIKAgoCCgIHAlIxD2jYhXFkTlIhy96Urm/x+JN0WJ+EeaTWUsCgIKAgoCCgIKAgoCCgL/oAhIfSIUheHvP8mKEvH3nwOFAwUBBQEFAQUBBQEFAQUBBYEkCIinD+KfokAkAeptKlaUiLcJaKUbBQEFAQUBBQEFAQUBBQEFAQWBfxQEFCXiH2UmlXEoCCgIKAgoCCgIKAgoCCgIKAi8TQgoSsTbBLTSjYLAOx8BP3azkYHw7aTid08jxZoWZtdtTA/F30LaGbhkqumizFWyMWC4udheTJHORMwFuDF1Nn/wmBs5qx3fXnv3DH2GGdZCFytFIn24h2nSzSa48GlzPpRSBQEFAQUBBQEFgasFAUWJuFpmWhnn1YmAZ5Z6lZpee4LhJyuPa+ZbX8XmFLB25KBqXZKUelmz23AKPklegqTPjTv+QlH3GJq0ciY8Cdpslu1boP28BsN8MmUllshy+ykO57dwcQ3wL9GSlUHtlAvcg7R1xd3EGttUeVIQUBBQEFAQUBC46hFQlIhtLwErf3tqiN5tt9u8gWdujn2/beDmuzV86N5qvr1/CqMo3IQ/6zbUr7Vw+1dL2HlPFXf/1kiTVIYL17vk7ym0R17ixWd/ygO3/JLyS6Zz+Rsa/nILO3bs2PD38d+1Xv7O3iKK2oML/H/fiv275oerdL1F/QXJ+llozSK1agJ58TpZeSLmfIyWHKHCFNrCT1QtQb6zX0uZPv7UopeOjp7YU46BAbqr88htnJHh389ESxktvQMYqosoae2XtO2n5XwWGuMm5xprRorSzxOuIoyVklY4EDzJ8I/ToDMn4F7JVhBQEFAQUBBQEFAQEBFQlIhtrwMn6oxpLq+I4eCNZ3vQXFjH4fKwOGnh1V+U84k/zxHcQHajTesje8CJQ/BiNS+Q8qtKPvw/0yxvm/9EDUQl4hUO/HEPN+94nNJE1d72fAe5jz3AEcMCLlcRP9jxA84LAvaxbB55TIX1befnUjr0krbfTsWcn8gGvGWNFN0Wdu0vpbtwG7uBgqNFDEuV0XCZ+J2sXFo3Jj2PLj0PgzMmU/7B78Il0WDcC12os3VY5GuHcv34fH5YM9FQpmPE4oziFmlnpVWVn4CHeXQZhQxJ+o00CyRcjJdlUTYeAsYzQ23WGfojpzVW2jQ6FmIbKU8KAgoCCgIKAgoCCgISBBQlQgLG25E0pAzKCOhLvPCTAQxSBuaHxo/CAAAgAElEQVRNfPWLPTQG8ub53Z+mQgpFqNLcOF/+Qg8N0jaXJV3K41eUEqEn5VB7SIiU8uZn4EQG7ZdlzG81ETfa9oj6INrO0KJdZ+rSNvK3yOw6xuKjFPTYEtRPVp6gmZjt6kd9vI6L+PH7faxMD0lOAaQnDAZ06hSOV4ZPQjxYBtoYmFvAvMF/Itqut6mQ9Hw9MwuLOBJh5B2m6FABjVL/jHC6T4tK1RpQMMXLh+I/rguV5EZOZ7xYmtRxpxZ+LjZkcX5wk5OMeKLKs4KAgoCCgIKAgsBVhoCiRGxjwr0uN8tLDtq1Fsa30S5Q1efFMmRi77/pZZQIGWJz43zlR6NMBYoc5L1uwiit5pjioe8MMSjNuyxpqaB+WQheRiJ/L97KeOLd7+Y973lPzN+73/0EZZcyuiUXp7sTSceXQnBjG2FKy3FVCwsbZehA5WTlGymCsGgKKgtNZzh0spy2ymzyWywIa3Zsq0aKU8qZ8MF8UybnBhMeAwA+3CGniHVzC+q8CoxWqTOEH0Fwy7EQzbPoOFFkRNoqUjitJbXChNfay9lTWqalrKwaKTn+Om+oe7H7QTA3cL5+ClekcSix0sGp11VUj63InILEV1aeFQQUBBQEFAQUBK4+BBQlYstzbuWve8q44R4N79olVQQWOfCkji/c302ZbYmU5+r42J0arvumjl/XOAiKilZefKCIHbuLo38xNKJMuNcEpgbN/O2FLjJGZUWkQGVrVQcPFmxlp7SPo4/cx5du/i/ODpzkR7dfxwc/8hnu++9shmSbywnqHszal/j+l27kmve9jw/feBc/zRqU2KmX8cT73sf/2bGDx4s9UPqfIf8FiVmU30rn8Sf58qf/iQ/fcDt7/6JlJiAn2ql4/n7uvesObrr2Scqw0nbwe+y+dic3fDON0Sg0gBxvYoVk/IGj9yRP3H0j17x/Jx/73CP88uff4KZb/xx7+hPT11v30FuzzoisDiEqK5eomEjZ9VpozEyj1pxAEE9WLqUlTbud2FbXWdbHO1WDf0rL0WIjbgT6z2bSsihtKJP2OZhsK6Wouou2hlbMEUHfxcXOQlJP1ofWh0xbYL1PTUphi+wJSHdZBvk6A6WqbGpHrVFFwzNPT72e3tpMioxu/Kuj6HSjCU47vCx1nSbluJrmSdkXRZ4xJVdBQEFAQUBBQEHgKkFAUSK2O9EeMz+IUQAERvRG7t1VyyOHjRQOin4LHsz13dz81V70MfRneTymbUwhIJYXseMeHftanRIhPa6edY59KTNcTLDLHFt7hbHqF/jSjn/lwb+q0M84WLMOc/Znn+GWP+hl+pAT1Lt4Yde3ONI/z7ogsNTxv3zug09RL+3I383zPzzMdCBvnXNP/5Rzc1Eh1pz1ILf98CSdsw7WbCYqf3s3d70yJO5JMzfYSnPVH7lrx2McyXuGZ7I6sDjGqSxoI9Z3XI43scNk/BnZt3s3v6kYY8m+xFjZ//CvN/+ejsQ6mnRklzctCJwoT9TxEqNto3Fj3m73fqwduRwrHdu4ux4glaw8WX9yTtU+prSpFBtFTcBMdWoppkRr0+tkzthJs07P8IILv2BBfz4dVb0Z59IILXWNdI5aWEvUPsSe2J+sY7ffgUH9Oq+lFWNYiK4/vFZGO/q46BLoO6OiZWoKg2GSlaWJjYqIoZGisn5WceOWkEiGjFKuIKAgoCCgIKAgcDUhoCgR255tOUUgmKeJMXuf4bENCoNc21gGfG438xPzpDxdx6OlMjugq8tkn55jRtpXLAmZJ1H4/hEaqWBmPsY9n3pRJspUIkEd8NqZ6qrhrOop7pTxmzDsewrVnHgwoOPlV1qIdjfK/jvu4+S8hLXVAh66dZ/EREvs9zaeadrMnXUT3kTSCfkz8Mebd/FrrRmHsI6l5QXuuOkFeiTsbJ68fOZMzmYHRy9s3tubKnUMcDZFTb/M0gnQTVaetPOFjU7VbhNlaaWYRIF7tYuc3E6Z+xoElqfHGDaasDjFxetnfc6AtriK3vl52rOz0M3MotePSNaNlBkfNnPY96KH0vTjaDZEeDLQqE7hwIE8uuzR1SdS8dms2ALvjBltWjnDDmfwhMIrIFiayZTwvNqZR0FP+BRRyoOSVhBQEFAQUBBQEFAQCCOgKBFhJLb8LacIvJm8BB0vmbjvm3HO1vYlTqktzMXKRwkISLNlhG9XIY9+4BfUSqsF0jJ1gTXDcfbeciN3fPvHPP38D7hdRonAeID/PGRCqNnHAb2UyVp+8YGNIVp3vPdnaCP9y/cbKd6EN7EoGX/LxT9h96dv4br37+Sjtz3M/ssbHzeWzU2e6o/Y0ERMdzapeElFAmOlx8jWL4fM6OKJJCuPry/zLIScqn0uVmYnMVsFbF35ZLUsBPr0jZWSWhOKXSaYMMmEMfOvWRhsqkLbNo7N42a+5zzHDqjQr3gYrG1gTtbUC7zrq6wK8tqzy2KgVF1Kz3Qn6pBTtQz3YO8kO78baWCpheaT5HeH74XwYCw6RdvlC3smy4aSqSCgIKAgoCCgIPBOR0BRIrY9g29GYZjlx5LTCZ9NYCXQ/wr7fj5At5SXBRP3fqU3Gn1ofYW83FnMEhlqTndxizb9GwV0/+BL7LrtJYalfQbSG+uCide/sJvn2sIxMOXqiI3HeeU/fs9LL75MZ4wgOMxLt92ParNDhoT+DlIGE/WbjL9Ofv/P3ybn7x4P1sPBp+1vQUStIEaemTrSMhqYk6wRKXrJyqV1N6T9AnbLBEONao5nldFqMDJjF/0KBijMqibsfiE6VRcOBLUkz6ieHgnmntVZRvq60XcZsTh9gZOj8frT5GsN1OeqaLeKMv5ZimMuSNnASWyGf53ZrjLOlhsI3DU3XR1wqo5ZfpIWvtES0utnozn+eXRZ5zGGPav902gztZc5hHO0OyWlIKAgoCCgIKAg8I+CgKJEbHMm/c4p9u5qIS+8cSmaSjim2LOrBamfc7hejhgCJvJZ5DdfruHFXgGXY5XsExMELVvsvPp0N8WTroA/xdL0Asd+XcVth5dCdu0C1TkmDOsRQghLCzz3+2HGolmbpETh+ya+d6yWsUUHtol6/vb1j/LVlPENO9b+1QL27HiQ3BUp3zp+de1n+XOnlfXVWXoqnuOed93BTw6WY4rr9cLhu/nUHzvj6PoxHbuPWx/PoH3SyrqwxvxQKX99IS/kQwF+h5q9Ox6mYFXabyxxvz2fh3c8SJ4tvk4y/qzonvsc1934Rb6x5zF+8Zs/8Uq6ht6lBNJ2bLeX8UngN3tsVCWk+CZ8InyLtKiOUTWR4JgjWXlCnkTLo1nqU98g/VwDfdM2wm4CfscE1QXnMCyGfTxEp+o0dIFLINyMlZ6jJ2xW5bAwObuCEJo6Yb6f6vMamk02vMxSe7SQIZGwc5ii4ypqR6y446c5hkc/65Z+6jRlNI9aIzzZOnICpkgxVSUPFl3QqTqctWbUkNdsiZpQzTehKk4Q9SncSPlWEFAQUBBQEFAQUBBQLpvb+hqQibD0gGhuJJ5MhCIvPTAQ8jGQ1JWcPIh24MbCdnbfreGab7VweCAsjoEwPcMfnqrho5/X8JEH6vmP1LnI7m7E4Voa3UlMPz2FRK/YZCjBHfzM6j/ytX/5IB/6+Gd5dF8NF8OyX6ClWCfe5CgcXcnDaN5/cuf1O9l54/38udZAzt7r+eie7A07to7iP7HfICP9eedpSfkZX7nlo+zceT23PvQi2hnR5GmCg1+M6/faX6GLH43owxHh7x6OxZjJJONvllPfvYc/djrwCQ4Wpo3oz/wXt96xX+KTEd/hW/Es8Lf/Xo1ztpf2c+nRmWw9BaScHyLRvXLJyqVcbEz7cNhXo4I2XuwTeqoqW7iwKlXE1hgqOkJKZi75uZkcO55PW+wiw70yQU9zI82GSWzh9bfUSuYpPeEbLZyTjWQdfJXMsgEWo69IhC1h2URHfSXVbeOshGkESn2MaNKQHjREGgUSAn3qk7SGvPX9tn5KijpYkAxhRZ+DujcRirHUlCcFAQUBBQEFAQWBqxkB5STiKph9v0M8XfgOp5alfgqXc+Beli+MMmcb5tB/H9n+HRqXkxVZWu08+7Gb+WlBP/NON+61BYznnuLTn/zTFs3BZIm+BZllPHHz83Rtl7J3hgaVmoT3yiUr30Z/gm2WceMARrNj6/cneNeYnxzFONhH/+gcoiWTf9VMX3cXvX3daHPEyE5SLwXwOByxCrJfwDo1RFd7C+19U9ikyoVzjoHWerTaIjJTNIxKy6Rj809RmVLCuA8ESx919SETqPV5hvWNVGtLOJV2njhWpBSUtIKAgoCCgIKAgoCCQAgBRYn4h18KoqlPeKf/u+SFt3sv67gHeOUL13DNZ/aS1r+1s5HL2v0WiC21pvCf936Gj3zgvbz/mo9z6zd+QWZ32MdjCwTeliplPPdsk2TH/23p9C3vxONYwSEj2PsdY1Tm5KMdWIiYI8kyI9iYnZhizi7EmclJanstNJ/OpWbElrjOcjfFmnaGR4cwmu3R+yNEMn4Hw00NGBcSmINJulKSCgIKAgoCCgIKAgoCKOZMyiJQEFAQUBBQEFAQUBBQEFAQUBBQENgeAspJxPbwUmorCCgIKAgoCCgIKAgoCCgIKAhc9QgoSsRVvwQUABQEFAQUBBQEFAQUBBQEFAQUBLaHgKJEbA8vpbaCgIKAgoCCgIKAgoCCgIKAgsBVj4CiRFz1S0ABQEFAQUBBQEFAQUBBQEFAQUBBYHsIKErE9vBSaisIKAgoCCgIKAgoCCgIKAgoCFz1CChKxFW/BBQAFAQUBBQEFAQUBBQEFAQUBBQEtoeAokRsDy+ltoKAgoCCgIKAgoCCgIKAgoCCwFWPgKJEXPVLQAFAQeCdgoAfu9nIwMBA9K+nkWJNC7PrNqaHJPmBOp1o80/TdDHZBXJuLrYXU6Qz4dgOFPMdlNV0RXmR8tVdjbpQz4J3KwRX6Co+i37GtZXKV2YdczPq0l4WPJfGnr1fg7rehMO/jfaOEVp0Bln8+1uKUTfPbf1W9W10+2aqeq2TDErXSZK0oVmD6lQFIzbfxm5XB6iu0tO/gUYvusJctKatX/x5teC/EUQlR0FAQeDNIKAoEW8GPaWtgoCCwOYIeGapV6npTXQ5eLLyOOq+9VVsTgFrRw6q1iVJqZc1uw2nICNsSWoFkj437njh3j2GJq2ciW0IwcJAIcfrZ+OpB55d/WdJrzaTTH0JVPabKD1ayVScAO11u98xt5c7DQUcrZ6+JH791h7yj6Sgqh3f/ObyOKT9E5WcTIC/uUZFrTkO0Lj2f5dHzxo2+xru+GW6NoomJY1a85ZWTGjZlJNSYdp4Q7t/gorUCibi+0gw4KsK/wQYKNkKAgoCl4aAokRsGzcrf3tqiN5tt9u8gWdujn2/beDmuzV86N5qvr1/CuOapM26DfVrLdz+1RJ23lPF3b810iSVoSRVr6zkKJoDf+G/7nuOSlnGdPzq2h3s2BH6e9d7ue6mz7Hn+UJGnbINkmQa+Nt3//Ym5idR+ym0R17ixWd/ygO3/JLyJFy844pX3agOW/nCfyzw8e8v8d03nBhW3+wo/Cy0ZpFaNZFAmE5Wnqh/H6MlR6gwXZqQ6OzXUqaPP7XopaOjZ8Oudnd1HrmNM7L8z9Qdp8jolmVySpu6df6s7ahOlNAl3VE2NFKQkkn9NoTKACPuZUZ0xZw69gavHUwh/XQt4/ZLw0l2YAkyJ6qOJMQiQZNgtnARXc5JKscdWA31dC9vUfIFrPqcBH066Mg7y+DW5XEJi35WLzRxNuMQrx1M47xh4W04zXBi1KSQ2TjLNnRYlttUpGr0G9bsQGcJaepetnSudcXhL5kKJakgoCBwxSOgKBHbniIn6oxpzNtut1kDB28824PmwjoOl4fFSQuv/qKcT/x5juAGrhttWh/ZA04cghereYGUX1Xy4f+ZZnkzsldE2SjFLzzMTTsepzQBP357Pg/veIg88cjes4Z1Uo/qJ7fwqV83sn09woz6FfWbmJ9E7UUl4hUO/HEPN28ylgRDvMKzfZS8vMi/pbgYWfGztupBc2iJT7/swvpmOLcbKDhaxLBUGZbSS1YurRuTnkeXnodhK4vD78IlESbdC12os3VYYujFP/jx+fywZqKhTMeIxSkjSK7Rk6+iTfYFtKPP3iJ/gMdYTKZuc47iOZR/tjLU2Ixxzo7gcbO2bKIu61UOV01s3K2WJ3CJuTb0p07KYiFYrYnfYc8CHWoVJcaV4AmGZ4YGdRkjW1J63AydP8q5lnhlUHxuIF+lY/4SRuOeaSAzo5ShxXWEpW7Uh9UMJFq/l0BfronDWMzhVwsw2LeuQIEHY1EajXMbKbqNRaTLFcRXvQLxj2dReVYQUBC4shFQlIi3eX4MKYMywvQSL/xkAIOUl3kTX/1iD42BvHl+96epkEIRqjQ3zpe/0EODtM0VkDb87//KjK+UxzcVvGXKl7L45vW/ofUKGFMsCzK8xlZ4Bz4JPLvXilrqEGBb49/32mm65NGsYyw+SkGPLQGFZOUJmonZrn7Ux+u4iB+/38fK9NDG3djArr4BnTqF45XhkxAPloE2BuYWMG/wn4gKo71NhaTn65lZWExso++foPxQNjX90XZRX416ctNE/rb2udiQjmYk3r5qa22ltfzmOir7JRoT4Ogp4IBm5PIoEesWRqWnJZF0Pbmvb8SiX19Gxmuvk9+xuNHMyb1Aj6aQhglHDG/eBT35mWdoMa0k2ZW30FHagUXukMVhQt9vSdJeilwo7V+iRZVB41x4LgR61a9RYZKpe5my3JY2ck6oUKUcRTNiZ21pEceWdIkZqlNOUmnYuP5azh2lyJjkTONKxP8yYaqQURBQEHj7EFCUiG1g7XW5WV5y0K61ML6NdoGqPi+WIRN7/00vI2TLEJsb5ys/GmUqUOQg73UTRmk1xxQPfWeIQWleorRfYGXS/OZ2lRPRDuf7XFh6TrD3o3InDskEb5lySwZf+5c/0BWmv4Vv77qdZYuJ9nP1258fYGvtZXjdAm9vbZUynnj3u3nPe94T8/fudz9B2ZY69pL+zCJPtUikl+U19jzrRN7iPzlRYUrLcVULCxKS0lbJyqV1w2lh0RRUFprOcOhkOW2V2eS3WBDW7NhWjRSnlAfswOebMjm3qS2LD3fIKWLd3II6rwKjVSp0+REEeTOlMC8st6FSG+RNRiw60s8PbVGIXaOn4BR6WV1LwOGIVQoi/cskPOZ2GkekmqCfmboMzg9drq10D4LLEyP0i2z4p7UcydbHbnLI8BfO8tlN6Mqq6V+QGZvPh8PcTN7h10hTa2kxjHHRHldvqZfqhgQO7SHFxlBbQHadeVs+Fp7xMlIKB4ii5cdYvB/NsJymEh7NpX/7VgY5l1FAl2WI4pQKJsVunCZ0VXpmkvlEO4bQaodlAgEITHS2MS2e0gkO5JbPlYr/pSOptFQQUBD4eyGgKBFbRt7KX/eUccM9Gt61S6oILHLgSR1fuL+bMtsSKc/V8bE7NVz3TR2/rgnvsll58YEiduwujv7F0Igy4V4TmBo087cXusgYlQo20TpiylrVwYMFUoEhtlz6pH/+Rnbs+CFv5D3Gpz98DZ/9vRZ95vf41Ic+yKd+cpbgifgiuv2PcttH3s/7/mk3e/5WF9rla+PAN7/OF256ijKrnpQff5GPfeADXPfJe/m1ZiokUPTy4qckfg0B/wapMhEUvDUWHa/+6It8fOf7+fC/3M1TZ0whMxGJYO5zYTXpSHn0Rm55roU17FQ8fz/33nUHN137JGVYaTv4PXZfu5MbvpnGaGSgffz1juu44SM7edeGUw+Rfoi//yjE0/o7rt/A42btI50AEl6l2X4rncef5Muf/ic+fMPt7P2LlhmJHOroPckTd9/INe/fycc+9wi//Pk3uOnWP0dPn5K0l3b1VqRd02v89MklfnBqHcOMG3XGKuoNjqmisrIFxcRroTFTdBKVACBlOlm5tK407XZiW11nWR/vVA3+KS1Hi424Eeg/m0nLorShTNrnYLKtlKLqLtoaWom6Hri42FlI6sn6mPmLpyAMnuNkk7zBjKtPHef0LbZ2s2TauGs8MKDj9OEc6iK7+uE6/ejLMnktRcPo1l7zeBbx2/vQnDdgfWtk4FB/fsy1x0nJ1ScxEROre7FNGmjpGMU8GRdlKzD+DspVGZSPO/HaTLRqVKiK2wPmZNLBuYfOk5rAoTpYz894WRra6QQarJRYJO1nojKFs/1STwIHnbmH0E5HKl22hM8+SkX+ObotAlh0pJ42ENYbvPPt5KlKGLKGT0SC3a5bxhKcuIXXjPS7g4qTr5NSbJQoGlcy/pcNWoWQgoCCwNuIgKJEbBdsj5kfxCgAAiN6I/fuquWRw0YKB0W/BQ/m+m5u/mov+hj6szwe0zamEBDLi9hxj459rU5ZZ85AC+sc+1JmuLjV30h3ET/YcTP/WTDI/HgKX/nALp7KH2RhOp37/58nqAAseXv456/to3Haht2sY//9/8xDOaJ6scRI4z7u3fFZHvnTAQq7zThcTsylT3HzDb+NG18CATsgeN/O3j+9jqbTxLLTyUzZU9wUMVeSCPk7/l8++PHbefgP5xgLbAm6mRtspbnqj9y14zGO5D3DM1kdWBzjVBa0scG3PDBWqQITxNh9MYc91z5GSWBTc52qZx4jdTis5EnmIUH7aA35MZqzHuS2H56kc9bBms1E5W/v5q5XhkJKlpF9u3fzm4oxluxLjJX9D/968+/pkOiIm7eP9v7WpXzo1XZ+d8LGvY8u8FC+IHNytcRo2+hGzGOY8mPtyOVY6Zj8Lj3JymOIyTzIOVX7EB2Zi43i5JqpTi3FlOjd8DqZM3bSrNMzvODCL1jQn09HVW/GuTRCS10jnaMW1hK1D3Dkx1RxmGxtn6xQ13TmuKxTtdtpY3U9bid/uZ38vDYsCfQtGQC2lrVupkNnQJRRox8HwxUZHEnRMByWWKOFl5byTFKZWkR/t35THxW/04Jp2MjkcpChYJStzaJPCbhc8pNwseFEjEO1YKwgp8rISkRZWqTpZCFDMWNPNrw56o+doiMmipgZ7ZE8eiJK3OXBz71gQKPWMhoK27reqya1QWr85melp4DXUwoZtEUGFThZWHG48Po9zAz1R+f2YgNpmmEZv53omK98/KO8KikFAQWBdw4CihKx7bmSUwSCeRrpxpF/hsc2KAxybWMZ8LndzE/Mk/J0HY+WRn69opVWl8k+PceMtK9oaYKUVPDdmC7BxKt37ualwegPln/oZXZ/7pWQWZDY5ofEjq+Ex2R3/DcK8MHd+8coiZIHr4YfRtpLeUowhIAichvPNC0kqhDKT0TLSdFjN/LLWgE87ezbV51ASUvUPtytXPko+++4j5PSjenVAh66dV/IBM3AH2/exa+1ZhzCOpaWF7jjphfoCZMkWftIxQSJN2vOBCaNlR9XBBeVzyrw0m8WebhUouUk6HlDtmOAsylq+mWWbqBusvINBOMzFjY6VbtNlKWVYhIF8dUucnI7Jbuv4fYCy9NjDBtNWJziOP2szxnQFlfROz9Pe3YWuplZ9PqRjfb7YRKR7znq088R0FkieeGEHf2prTtVi06wKZpB7FsJTRvuIsm3d2USQ/+0jD+HhRbVYY4W6LHIy+dJKG8sdvadJaPOjPeiDu3AJpqJ3497eUJW6Yr6kkR30jsqVbyRUSs5IQr37cKgljq0+xgvO0xBjySUmDDIWVVzEmU3TC/0LfSjfrWEcen/qIVm0k9IHbTfLH4+Vi+0oW0YYlmiNE5qU9AMx71r/gWaMl8mXc7h3tmP+o1MaiaChldOw2my9SsxA3K74+ld4fjHcK88KAgoCLxTEFCUiG3PlJwi8GbyEjCwZOK+b8Y5W9uXOKW2MLdtAUAq+G5Ml1DLLz7wKIXSk3xXIY/ufIq6AHvSNmF+t5on1k9WV6483E/4eyt1EvUVpOE4/yOu/7GGhYrf8UJdom3KZP3IlYv4xZtz7WDHe3+GNsT+cvFP2P3pW7ju/Tv56G0Psz8mPm/y9mEU3ppvN/ueiHWs9s86+NpPHPRtq0OBsdJjZOuXN9jNB8kkK99CZ6KwJzpV+1yszE5itgrYuvLJalkI9OkbKyW1JhQ7TTBhkgmj5l+zMNhUhbZtHJvHzXzPeY4dUKFf8TBY28CcVJCUYck/W09GkVFeCfWOotmGU/Vs/QmKDWb6dRrU6mJq9UPMrMYJgDI8JMpamx3CYFreoj9GIipbzBcmqcg8h1G0v/ebqdN0IRHlNxLxOAN3JHjC+DqGOHc4Fe3kJspHPBX/JBXHypkI0xBGKE45H6vQmWs4VjKaYA3GEww92/RkpdTG+ACJIVRPyAnxCUhsmu21MWHQ02OyxZ0YiJGtVOhlwqDZ+7Q0bTAJ9GHRZZKhs4SUXfFU7Ai5dVEFrK9NQ+qxIozxivyVjP+m4CmFCgIKAlcqAooSse2ZeTMKwyw/lpxO+GwCwf2jFfb9fIBuKS8LJu79Si/t4bz1FfJyZzFLTiDmdBejNvXherLfUsF3Y7qEEV6+/U7ekEYhGT/InXfsD/kcSNuEO5DLK+PHkdMF8FmtofHJ1ZXmSdNh+vHfW6kjttmk3uo5vvfhf+Mb//4sjZKdwNieNmkfqChXPsxLt92PKuEhSSe//+dvkyMjKAT7TtY+lsPL/yTwu0esZEv5W13jkUfttG2jM89MHWkZDUSC28S1TVYeVz320S9gt0ww1KjmeFYZrQYjM3Y3/tUBCrOqCctaolN14UBQQfSM6umRjMmzOstIXzf6LiMWpw+8dsbrT5OvNVCfq6LdCvbOsxTHXNASywYImMpPUSd9EaVVtutUnX+KjpBTtXd1Gr0mndcOHKVifBuCdaB/HyumHvpnnFHh2WNm7MJ26UgHs1naxYVKFecHw2qDn9n6fLRTiZTzOFqeBdrz0jhrWAwoPB7rAsKMpoUAACAASURBVDG+7XHVI4+LLWQV9oecn/1Y9blk1k3gFMJaBTiGqqkyxtglRZonTDgN5L+iYSxMxj1B+bF8DNskk4i+a3kBu+R/d6SeZ5iilMpQAI1IbsKEf1lPblYpFaU1BA8irLSq1MS4ciRsLSm40vCXsKYkFQQUBN45CChKxDbnyu+cYu+uFvLCv52AzzHFnl0tSP2cw/VyYmKeL/KbL9fwYq+Ay7FK9okJLgT6t/Pq090UT7oC/hRL0wsc+3UVtx1eCtmVC1TnmDBI5AFhaYHnfj/M2Fb4XzvDIzse4Yx4+r0h/e+onTCVfj837TmKfs6Bw9JJ6t5P8cDJoEehb7WAPTsepmA1/AsLfsdp9u54kByr9Fikld9cfzsv6q24VsfI3p8TGJ/PlsfDm7SP3hMRpR8/LL9Dzd44GvF1xOcwX3lSW+JIRTvqR9/Lx/6nMeFO7ebtwR/A4kFyowbYAdMY07H7uPXxDNonrawLa8wPlfLXF/IIImhF99znuO7GL/KNPY/xi9/8iVfSNfQuhaUKP5u3jwzgLUr4aUxZ4o6X1uhd9rO+6qHy6DK3HxHizII28YnwLdKiOkbVRAIhMln5ZiPzz1Kf+gbp5xrom7ZFIu74HRNUF5zDsBjeuRedqtMIbh67GSs9F7Vnd1iYnF0hLGsK8/1Un9fQHNgZnqX2aCFDomLpHKbouIraEStumeXonW9BXT4WcYKNZ1veqTq+VuhZDBObqo2700TA0llMiSHWPCUBhTAhbOOd9M9Fsfe7bYxpy+iMkPFxsS2XlCM5dCRzOt+8MzHGLuam0xQ0mmP9Xlb7OaMqZVTyf0KWlM/GkCaPksHl6K68a4rGYi3DyTQJtxCZQ9+KgdOZVUyurTDWUsq54ho6RpL5s8hyBCzSlHGIQsMywvo8fZrMuNC0lxM/CQ8XGzhWYJBEhJKUxSfdczSpCzEs+fBZ+ynOOU+7qYPC9MYtOLVLiF2R+Ev4U5IKAgoC7xgEFCViy1MlE2HpAdHcSDyZCEVeemAgdFOypK7k5EG0wzYWtrP7bg3XfKuFwwPR7XBheoY/PFXDRz+v4SMP1PMfqXOR3dWIw7U0upOYfnoqoTAjHVb1Ux8M3Aj9vv9bSeX/fd+G9AefqgbvLFV/foh/vU6MnPQFfvR6C4sB/UDceQ+Z6nzqxdD4pNGYpD4QXoyq77P7up1c85mHONwlnqcna/9VvhqmLznFiPI/wcEvxpkKXfsrdNEKoZSUp3h+o5Wtp5/i901hoTOaD8naS8Yhx693npaUn/GVWz7Kzp3Xc+tDL6KdCStYs5z67j38sdOBT3CwMG1Ef+a/uPWO/dGwvZu2l/L5FqVdHjQZVu7+4QKf+MESe4+uyVwSlzg6k62ngJTzQwmFoWTlm4/Kh8O+KvFV8GKf0FNV2cKF1bAiJlJYY6joCCmZueTnZnLseD5tF2Pn2r0yQU9zI82GSWzhoqVWMk/pCUdZdU42knXwVTLLBliMvqIgzNJa2cbFqKweYNvn84V2/wVGNEdlnaplxxcIE9snbxYl2yBR5gw1KS+zf//+mL+XVW2hk0CxnRuT9jgpqnq2elgg25vbirH2PKWdF2MViFBl0SH4jeNnaZuwRxUEKSHPMgPVZbRMbQxq4LU0kXkkn8758MRIG8amPcuDaE6JAnV0/tdn9KhT9vNaqhj1SDpxsW0TPbnMrRQce53XjqjQdMzGje8y4RfXuaMrj6O1MjZ3cfXwLNOnLadL4ikvRrDSnU3j9eNnaerqwzgyjmliksmJC5hMY4wYR7BE49UGKV7B+McPWXlWEFAQuPIRUJSIK3+OFA7f8Qi08+zHbuanBf3MO9241xYwnnuKT3/yT1s0R7tSACjjiZuf33h3h3eGBpWahPfKJSvfxvAE2yzjxgGMZoe8kCpHy7vG/OQoxsE++kfnEC2Z/Ktm+rq76O3rRpsjRnaKvf7a43DEKuiChd6W3mhEHEk/ztk+dCV5nEw7wqtvaBiNUzIkVWOSYpjYE1u5WTim1d/rwYvDbKBBq2NI7n6HMFt+JxN1Kl57+TUySgeQyPhgM1KSkUpeeR11NVq0lRWUlZZQVqGltkFHS1sb2txD7M/pSHjnhNsu+o+UUVSpx+zceFTkXe6jMOVlUt8RuPowNZxGNyF1RgsDKflen2fYMMCMzHjFjSnBasZoaENXU0FJ0VnU+blk55b9/+29CXBT1fvH3XHe+fH7jwy81YFXZIBxGQGHxU5ZhHFBlBF/gIiyqYwKyqZIRXFBUUBQKSAKigVka4HSlrKnFEpKKQRKSQtN6RJoG6BNl6Rp06bpkrTJ952T5CQ3aZYWWujyZCbee8/ynOd8TorP955z7oWs1OBY2sbMEX8BVDolAkSgJQiQiGgJimSDCPggUHY5BAvGD0Hv7g+jW88nMWzSYuy51kILrn203XLZsVi+7KJgRqDlLLempXp9BfRubkyb9bmIC4+EOLPUvkTKrR96FXJyi72/SdisxfWzCcgQ3Cl2a8ueaIby0iFI7jRRcdjr3f8TQ3k+5BnpkBc1VbgZUHK7qPGslPEWJCfEkEjTIVcUoERTAb2hwSnQNauScCTR5SVxDToU5cqRIUtBiiwHJVVuBlOAxVCchrSCts9V4PL9OSX+94cztUIEOhEBEhGdaLCpq0SACBABIkAEiAARIAJEoCUIkIhoCYpkgwgQASJABIgAESACRIAIdCICJCI60WBTV4kAESACRIAIEAEiQASIQEsQIBHREhTJBhEgAkSACBABIkAEiAAR6EQESER0osGmrhIBIkAEiAARIAJEgAgQgZYgQCKiJSiSDSJABIgAESACRIAIEAEi0IkIkIjoRINNXSUCRIAIEAEiQASIABEgAi1BgERES1AkG0SACBABIkAEiAARIAJEoBMRIBHRiQabukoEiEDbImCq06Ig6zJi94fhVA5/a3YtVEoNGr8uzYxKZTYyMzMd3+vJOBl9Cjd01rc31xVKcFSc5/y27bvqciVkp2Ig8/XyvJo7EEcdQVppffNbUacg9uxVR1+E/boWj+gjUpQ2NMVsBa6eOAxpoY83P7uYMqmScDgmCxUmnlGHvKTzyNPZE3iGj2MDbidE4UyOTvDiPDPMjV+o7cMOZRMBIkAE2hcBEhHta7zIWyJABO4ngfoiJIZFI93Ty8V95bv6WleOAkUubmSlI+WSCLv/icKFjJu4U6hGud5gDUJrMxD9x78Q32kcFDfU6pF/PgIJSma4GOciL0AFM3TlpSi9mQRxogzKCgNK0xMhkWUiU3YeJ07LoXf1w9e1WYHYbcdxo8ZzJGzS5UIc+ic2h52C9LpN2GQkQxQZi5tVnuvxpg2ZR7A9sYhfOh3rMg5jV7zSjZByKma9MCtwcmsc8l2abDAavbxdvRoZh3ciNq/WyaBRfgJ/Rl5z8DKZPNhQIeXUOVxlwkcmxuFjEqQLRFBG8nGEHU5HpZN1uiACRIAIdCwCJCKaPZ5arA3KRnqz63mvUF9SguDvz2PgKyI8Oj4eUzbkQ14jqFNbieg/kzDi9Rj4jz2DV76X42KZIL/Dnt7G5pf84Ofnhx5fnHXc6bu0DL39/OD30mbcbtW+50D0+6/4YsJyxLltR4KvHrP6x3z0e+hh9BowCjNWHIH9xrLbep4SZVj7ztp7+H15qp8P8T/rsHrZQkweugSnPDXfXtON9Ti2VYuRM0vx5OxyfHHS6AgE77pPZpRe3ot/z9z2EMz6yvfRcHkywg5db2RbLzuIf2JyGqVbrRmQceQIstg0RbUM0aIbaEAFrkREQ1ZhQH09i6QbID8RhWt6wHz7DA5e0docMUKjEMxiWILeNIijD0GqcplJYL5FN/bNasgMfUEyDu87jKQ7VY4g21gKmfg0km6qUG3xw3v/C89tx3G50W2hfPG/OK1wUQVuSwLQXkHYzhhrQM8DedkFRIXsQaKy8XwOM2O4cwZ7Y+QovpPlPBNy/iB2HE1ChsVOOiTROxBxRY1GEyKGDESHiGHRcm78Ukl2IuJqlZscSiICRIAIdBwCJCKaPZbViN5d4PF/Hs02Z6mgx1/L0iC6VQt9XT00d1T4Y/EpPLWmBNYboEaId1zH/sxq6A0N0CpLEfJVHHp8XYDyu2uwXdUy6yIxnQXoL/+FOzbPC7aOg5/fVERUNjHQuOse5+DEyukY4PcJTnqwYfVvGiIqTUB9DbR3pAibNxSDvrkAvkDFQ1U3yUpEb4y+h9+Xp/pMRGzE76tmYKCXvrhxqF0kKY5oEfhLNWRaM6o0BoT8VI5l1+7xt6GTIWoruxvvAYGvfA/VeLJRfhx7JCrLZUN9vU0ga5G8NwzJZZ58V0K85xAusSD3wkFESbWAKQeig6nQowjn9h6DvEqFCxFnUWiJrw/izB2HLWN1JapqeVuAIS8W2yKl0LjE8sbsY1bfGowwOqoD9RVQpIoRvuVfiKRCQSLD+RPHkHjNlnb9Eo5GnkV+48kUW/drkBYZhmS3/4DpIN0fAVkT/3jq5SfsHDlbr8eGElyIOoncGvbnqoOuxsOMhcdZCADKs/hn10mkcdHidLyOM2HbcL7YqxeUSQSIABFo9wRIRNznIZSFZLkJRsuwcl4mZEJf1Aq8/lIaLljS1Pjh53yboLAVKsnDqy+m4bywThPOZb/84qb9JlS8T0Xc+3cSn/gNwqBhcxFrCXbqcXJBN/i1QjDsuX3PIgJg/rnkl+3Fm32+xeX7xK3pzbjxtemV22jJevz5eTn+EdwWNufqMWZt7T3MRtRCfmIrotI8LUjxle8Glb4YNwTBZtLREOw9k47MtEREhOzFZVU9TEWJCBPd8DALAaAqFQdj8yyCQ5MUCTETCOqLiGTrm2rTEX00C0ZDBg4fzYTRMiNxCOmCFTv6fAUckw4VkIbvwblshfPd+MxMWH1LRUJ4CPZeLIZlnsKkR7FCCa3hNk6FJqLE3kUtpOFhSCoVqA3lWWwX3Wx8B5/XMd/Gqb/342yGUIjw80Qc2HEOTY3Bi8/vguhmo7kC3pLLsQElklDsEN+xMjbpoMzm7QqOGVLE7NkD8R0BPIGlqtQD2HOpVJAiPM3HmZBjkLtM7ghL0DkRIAJEoCMQIBHRjFFsqDOivEyPK2IV8ppRz1LU1ABVtgIzX5M2LYgvycO4OTnIt1TWI2KTAnJhm/p8THs7G1nCNG/npjqo0nZiZl+XYNdbnfuZ59U/Fvh+hHnzRmN9NnMqG2snPoknXQP3e/HXZ/veuLkJzFW78cYzP+FqM3xqqNWhXKXAlaOJzf99sUUsTarvxtdm+Ng6RWMxv0sX/Pe//3X6dukyH7FNatCAr6dVQCS8m15Xi08+rkJak+o3LmTIF2N7WBJKPeyx9ZXf2CIAcx2qKvQwNJjZehqcDtmPFKe9FgbcjInAZWEw7mLIlHsS0alsmUw9so9FWwSCIeMIjrL1TfliRCZpgIJ4RLEjSpAYdR7WuQ6bIYMCSclKMFSGW3HYw5ZNGatRqauFYwVSNa5G7Eeqk28CRzRJ2B16GjKbIMqQROPvXSedlhOlxe7BXvsyKkFdfmpZLiWD24kKlQS7jmVbhQsv7/FYg7SofZC61XoG6PXOy5nqSy4i/O9NiLyqsy3DMqG2SodaR+c9tuTIMCMvdjP2ia83El+WTe9XT2JnWDL4IjJHPTojAkSACHQsAiQimjyeWvw2IxZPjBXhoQChENDg908leHHiNcRWliFk+Tn0Gy1Crzcl+Oas3r5EYfXk4/ALPOH4OtlwOGGsMSA/S4m1K69id47nW1naMymYGtXU7ZLpWD1IsG6fLQ1yCsDroRSvwwcv90fPrl3Ro/8YLNybZbsbqsPpFRMxfsxIDHjsU8RCi+TNsxD4mD+eeHMHcmyu69NDMf+V/ujZzR/9Rr2HJZ9PwoBhaxyzK2YtUrd/ilcHP44eT4zAzF/FKLQHfb78swa+W7a8ilnRekAXiTmLF+Ejpz5oINnwPob37oaujwdixtpzUFlujCbj9zf/hxcHBCFWK0XI3JfQr3t39Hp2PL4R5dvGp2nti1QS/DHnJTzp3w09nnkFQYcUtjutgsDcVAetQoKQ9/tj6PIk1KBp/IDr+G1kLzzR2x8POfWLAWb2beP30RHUX/4BfRqNobf6jt+X21kTlu11fIB7G19h+61xbsQvH2uxUxAt1+fp8dI7lUhwao6JlSYIkwYVLuzZgQSl/QfqZAW+8p1Lu7lqgEoSig0b9yIhVwMDv4Gvu4ajsZ72QljNqC+GITKR3TFPxtEDbFM10wxRYJqhMuUgTilM9iNqZIg+IW80G6BNESHhTjEuHzgImUUoVOB2XqmjHNtU/a/n9f71+VJcyLOu9zcUJ+NgSBRSnYL4BhRJk5BXyzvWGIEh6yhCL6obZwCoux6NsMuuG76MKGu0n4NxkODglnCcE8zwWJ9elQFp7B78GSJCDv9nskYBSXw6UkR74XESwe6RCSYPAhLQ4OJuzyKrIScGW04pbP+22A3SCREgAkSgwxEgEdHcIa1X4kMnAWDATakc4wMS8N4WOY5ksX0L9VAmXsPA19MhdbJfhE+c6jplAmD5x+E3VoLgy9WelzRoSxAcUohij/+Tc7XLrwXBLk+yHK9iZcBb+CdDjVqDAWUpv2DUI0FItOQZUZJ1GZfOrMIYv4/xT8R3+G5vClT6PMRFJcP6v3o5ggMD8e3pXJTpypAb+zWeG/gjUgQaSLl3KobPDkVqkR41lQrEff8KxmzMdvkfrSf/rOkxiV/h+VWpwKXvsTB8v9MSIlXEDDz9RjAuFFRCp5Rgw8SnMS2cLbgow80LwRjv9zze+/l3HLmmhL6uGsqTQRj4xPcu4+Ot/RGY+fMmiFIVKK+uRmFsEAbYlyuxelyk/QePPDkC0386allzDTSFn2AwjMfxYSMRARiLwzHjsY8RY7mxWosz332Mf29wkeq7vqOE+z56H5+WGl+HFy17Zkb8XxqM/L3W8lSgMkUtftqixRvv6ZDk1FAZcpJzbL9ZpwzBhRnalAPYdjLX/V1y+MoXmPJwalAmImLPTvwdLYX89A5sO5EFdl+88PxxXCn3HHgDbFP1UZdN1VWQHjwJhckA+YlopOlNuCk66GZTtcAZ4x3E/bsZBy6X2v7+6iE/sQtnC2yiqewyQt1s+BZYsMyqlMjEOBGfhdJcMaKl1s0NJr0SqbEHsDcqFtfVnv6BMkNxegv2e7iTf/HQdrebql33c1j8Kb+CyIhkqDzoPbvPDeWQS7NQatTg4t4Y5Flca4DWdWO1TYykJRzAzsPX4XbLlSET0X8eQGIj4WJdDnXl+DaEpzipKrsb7k5MJhMaGpq6HMudBUojAkSACDwYAiQims3dnRCwpomE/x8wF+LjRoLBXV1nB0xGI9S31QhZeg7vn+S30ARlqsqx/2AJCoVtCbK9n7oPIO11GnTIv3oWh8OCMLpRIMvqDsd3F92tA5Zh1cAAfCNWQm+ohSppJUYOWClYSpKDDSMnIFR447EqCtOGBTsv0XK3t8DinM3v0jBMfDsM6VuXYFOusC8K/DE6EOuyHAGYOXs9AkdttC0LYmVnw3l8YvCx2z66W7bE6n+MGId5oEGE2fb6Ql/sNF1OWBlP/IRFPdmqxvGP+2NJggGov4Lg4HgPItNTfd6Gu3xf49NS48t9cD3e63ImwFxuwO+/lGPozFKM+KEK4uxqvLlIj5uuTfm61mficEg0Mtz86Vmq+sr3Yd+su4E40RUo049hN9tUXZWGiL9iodBn40zCLcsyIxgUyLjhblexEuKoSxYRZFactm6q1qcjKiQKF9IvInqfBGqocCEyAezBqeXJUU6bqrlr5srrOBqyGVFpjvVKKskuhMRbN5XYN1XzCk5HE/RFWUi+cBEypR7VRVIcjz6KiL1HkSQ7j1hxGor1grsHTnX5RQkSdx2F3HmlkS1TB+m+pm+qZpvTQ0RZ0Bk8CRarWZOuAlWsiCELhyNS7HtlvG6s5u66HtUynJHaHj9rUCIzvRiOSZcGFGVewW236sNhiAsHo9EI/jXTiyUcgOiMCBCBdkGARESzh8mdELiXNA8OlCkw4U2Xzda6MuyLVqHE+/8vPRhkye4CSGvxGtl2zBzaHyOnzMXSFR9ihD1A5uY812Ulyk/MQ+DgoejVzR99h0/HBqfnzyZgcXd+p15wfPgziLl5y9FTGzw9BctHLcGy5auQ7NQXZv99HBEusK47gvf9g3DOo11uU+iAuzSW7y5dmCY8F9oTnjeljKe2rHb0x+agz1wRSk//gJXn3EZgHnz15Yfv8WmZ8RX60brnDWk6DPqtuRurDcg9uQ37peUuM2TcV1/5vJz7o1mfh3iRBMo6oPDcDttm4FoUF5Wh+LIY1+1PBK2CVCSG0jUW16XiIHs5mlqJ67GhOJh0Gyp9JbRaA0wF8YhgoqT2OqIPy6A3VOP6EedN1RavjCokHREhK0+CHbsk4LcEtNJonJBblVPhuZ2IyXFzl6KhCiWKHChU1Wior0TepRicSJRDW12CxNAdkKhqILt41R6gu6cAmIsSsfu43L0IbsiBqBmbqosSd+KETIkMiQjR0SeQIM1GYZUrOIEnygSE2cQSexSu4tJpSBtt7s7A5RORiL/d+G/MbDBY/DZqlCiuZv8Q10F+/G9sF9+xCkBLU3XQexBSTDxw0eB6FHhJp0SACBCBdkGARESzh+leBEMR5gpmJ0yVBlRY2q9A8OeZuCb0pVSB8ePScYWn1VYg4kARlIL/t5dIih17Dng5r8dYzBWIA5NWa2tfgU0vBmJ5Mr8z6S7gdZfGG0vFj09PQbjHnYQ3sG74RITxiIVXa3T05B9vW4+od3ugd9Bx1DkF9jexfsRo/KUQGMzbjNEjN9j2bPD6gnyn+jzdV/u8HDsKbQrPhWWE500p42pXWJ89mecoZvV4DZPeXYYLHpdv+GrHXb6v8Wmp8XXpT4temqEuNdkDOenOMnyS0Dy1XV94Djt2n0eJ4G9M6KKvfGFZ13OzPh/SSxkotcSleqQe2Aup9Y8fqMpAwhWV430L7Ami8dsRne6YDinPEuNIZAQOxyUh43YRpNHRuG5/cFAV0kUnkKEDzHfEiJDcRv6FSOw5leP8iGGzDtlxIqSwtT+mXIg2OnxoqKuzsavGtUjP6/1hqrEsb0w4ewny0jo0VNyE+LAIx/ZtA4vNNUnRiLFvQnClwK4NUJzah3PCf8iExZq7qTpyH/jKoYaqAkhFu/Dn71tx2uUlcryJqtQIHMnk4qAUkjARGuulYpwLi4Pgybi26jWQJ8ss/2aymZswSYmFmfGGCP+K71j2lJiqq1ELA+SnI3Hulh5sdkE4w8CWLTHxUF9fDyYoWB67puVMfIToSASIQHsiQCKimaNlrs7HzIAkRNjvGgImfT5mBCRBuM+ZlwvXCdfAaPDtq2exOt2AOn0V9u+8jVuW9nX4Y+k1nLhTZ9lPUVZQim3fnMHwLWW2ddkGxIcrILMHDYChrBTLf7yB3Gb5fxnf9hmB1VIt6qpysX9DuK199sK057EmVYvaqiKknV6OsQ+NxLzNp8DjcrM+GjP9piPK7ZtotZAsH4Ve/V/CpBkfY/G3P2PjLhHSy3g0ZoZi2wQM+2Q3rtzRotZQA3X2Sfy2MgIFTv6798/6HgbWNpAZPAwTdhYD1dF4V/CeiPxdEzFgxlZIS/TQq1Lx78xBmBxqtW6qisIMF9/N+oOY6TcV4VphoOm+fVNlBKZ7qe94T4RwrJ06Bu/8HGW5X+7ff6FD9PsPo9/XFzw+ucZ7fcBsYTEVByqEvvoan5YaX0c/W/7MgO8/qICo2ozCa1UYP1eHc41WBHnZE2HSIClsG864ufts8dVXvtcO6VGoUMH+52vKQwx7wzKrY65ChvgC8nlca7OjvxqB9ful9sc6mytKUFLNx0wJ8X7+1CUTtOmnEGebRShPjsAp9pI2FrwKfTLrkSs5h3Q1b0iFC/+Ggb1mwuljvoVTbjdVG6ErVkCeKUd+hQEw16BYJsbx06korq1CSngYLA9jqpQhMiQM8Te1jo3aggYa1EmIPpXrYCHIY6fuN1W7FOKX7DGxjXw1QJV6AjEyrtB4YXY0IfekYFN1vRxH919p/FbpGhmiol2fHGWGLvs49lvesG1AxuE9js3ZDQYYbJMfymtpls3u9Xmx+POv07jlZrmSUFRwEcEEBX2IABEgAu2NAImIJo+YFo2esDSZLTdiMxO2Jy9NzrS9aVhQVjDzAJghP3IFga+I0POtJGzJdNxONhQU4qegs+j7ggi9Jyfio39L4Hg4jKAN4ROeluZ7/J+x+241QB72AQJ7+aPnkGnYcpXf6axHTsQCjO7jD//+E7EmQYbwmX3Qd8Z+FMDxxmjLG5nZBuLHvoLEqYEi7HtnLFal6mEy6FFaIIf00BcYNnKDY89DgxpJIZ9h3NC+8Pfvg2HTVkNc6Po/Tnf+lSN0snUJVNdFcTCcXIuNGY40+xurG4pwZs00PNeLPTnpRczZlASNxTy7825bQjVotW18hE9jEu6BcNe+r/qv43VuXzDL48DTFH6stNAnV38d1rQHg/DjRXfLNXzVF/TDnb9ex6elxtfRj5Y/M0MaqcWIGaUYHFSJ0BynENrWnOenM1WmRSHkWDY8vVfOV36z+qOS4N+DMsvfriopFH/visSR6GgcFcUhQXIZ0rR0ZCZGYuPm0/aXKzrZr5Biv+URqA0ol19EUk6lbRbDiKyjB1weG8ueBquFIk2GfMumAG5Jj8wLKWj0NFkPb9HmtWA2oCxXioS4c0jN11mFgl6GqJ2JKLEgN0N7/Qj+2fAntkWdRY5wb4ChCJfjklHMdYzNqOWOvOXcgJuirW43VdvbF554fau2sCA/Z5uq2SZ023VRIv4NT2j8mFZJNPbaXgLIa+rkImz7MwxXNKyTRUjYfgI3uR2mBdl+BrMK56PjUWAwwVh5DUejZag0mSyzDnzpErfHPXEJ/QAAIABJREFUj3x5k1BY8Dw6EgEiQATaOgESEW19hNqFf1ewrN9ALIzKgLraCGNNKeRHgzD42Z+budyqXXS2EzrZUcY3FvMHrmj87o6GQpwPi4bH98r5ym/mL0KfFoVtljvaQK38PE5Jb6JYZ3CeOVAmYG+cwu2+AVNxBqQFGqgUuVBWOG5EsPdCJB+/YgvmHU4ZKrTQCwJeR47trKEcuckJiIsT41RECMKSXR+vChiripBz/SqkySnIVFbCWKVEmuQsxAnxEIVtx+EMwdQsTKjISUVWqcA3gwrpSelQuQgI5kF10XVIYiIQuuMf/PGXCDluyjTy2bJH+ih2XnC88s5dGac0QwaiI9ibva0fXWokDmfY54fsRcuvREB0w9kJo04NVSUfIxUuhYZgx/4IRERE4MCBAzhwIAKR+8Ow97gURdX1MBoNaGhwQCcRYcdLJ0SACHQgAiQiOtBgPsiulF0OwYLxQ9C7+8Po1vNJDJu0GHuu8T0WD9IzarslCHSM8Y3F8mUXnfYetASb5tlowC3JcUgLnYPURjZMDWDvpLt/nwZUpMcgXJTm5nGp1ShX6xzvs+BOGe4gPjwC4usqt2KHF4NehZzcYu9CxqzF9bMJyHCnMuyGhCdmKC8dguSOD46CKuZ8CY5IHS8TMdTWul1yVW80Ogs6gQ12ypcgcWHA9zTw2QS234F9+TWrw8u6mLLPUgjLupahayJABIhAWyVAIqKtjgz5RQSIABEgAm2OgFBENGUvAy/PhIXrh2+0JhHhSoauiQARaA8ESES0h1EiH4kAESACROC+EWBBPQ/w2SyCq1gQziywPPb1JASYeHBng3WG1fOUd986Sw0RASJABO6SAImIuwRH1YgAESACRKBjEuAigQsA10DfXT5Lc31UK5+FYHnuPlxEuNZzV5bSiAARIAJtjQCJiLY2IuQPESACRIAIPDACroE9vxYKAVdxISwjnJHg5Vg++7CjUDBwkcHzH1inqWEiQASIwF0QIBFxF9CoChEgAkSACHRMAlwQCAN7PvPA05gQYAJBKBhYmnA2ggsEnsZtsKOwXsekSL0iAkSgMxAgEdEZRpn6SASIABEgAk0iwEUEEwn84y6N5/EjFw28Hq8jFA9MaHAhwuvRkQgQASLQXgmQiGivI0d+EwEiQASIQIsT4GKABf/84ylNKAi4aODLlYTXwnLcJh2JABEgAu2dAImI9j6C5D8RIAJEgAi0KAE+eyAM/nkaX4rE9zuwdOE5z+fHFnWMjBEBIkAE2hCBdiEiFj/+tOXlZWEy/q7RNkSQXCECRIAIEIE2T4AJAr6Xgc8WuDrNy7AjFwe8DBcKQnHA01hZZlOYx+vRkQgQASLQUQm0CxFh0Bfj2raZ6PvyZig66khQv4gAESACRKBVCAiDfT6jwI486GcCwDWdX/PZCG6D12kVR8koESACRKAdEWgzIkKtViMjIwM6nc49PsMxfNRtEcTucymVCBABIkAEiEAjAlwgCGcfuCDgabwMEw7snAkFPhvBxQQ7snr0IQJEgAgQASuBNiEimIDIzs5GSUkJ5HI59Hp3y5ZiMb/LfMTSyBEBIkAEiAAREBBgQb9QCPDZA1aEiwDhDAI75+msDLsW5nPTzA6zy8SD0CbPpyMRIAJEoDMTeOAiggkIoXBgAkJ47RgcEhEOFnRGBIgAEejYBFjQzoJ3d8G9sOdC8cBnGJhA4PW4WODXvK6ndJ5PRyJABIgAEfBO4IGKiNLSUreCwb2QEGNRtzk44XjqnveeUS4RIAJEgAi0GwIsyBfe7efiQJjGyngSA7yjrvVcr3k5LiL4NR2JABEgAkSgeQQemIiorKy07IFwv3QJliVNbI+E438gahxb8Bq+jFWBdETzBplKEwEiQATaOgEe1PN/89mRpfF9CMJZBp7GhQcXF1wwCOuxPKFtZpfbYuXpQwSIABEgAndH4IGJCLaBmokEbx/nfBMKTq/GtKFLaF+EN2iURwSIABFohwRYcM++wpkGHvzzoJ8LC5bOzvmHp7NyQtHAbfF8bo8dSUBwenQkAkSACNwdgXYkIiRY2vtZLI3Xgu4d3d1gUy0iQASIQFsmwIJ9YXAvnFngfnNBIJyNYKKAX7NyXHQIbTFBweqyLxcX3CYdiQARIAJEoPkE2oSIYDMOrl/WFeeZCLaxejaOG5rfSapBBIgAESACbZMAD+yZdzz4Z2nsw4589kDoPU9jYoB9hdfCOiydPkSACBABItA6BNqEiPDUtcYigh7x6okVpRMBIkAE2hsBHvC7igbhDIJQIPD+8RkKXo+X4UeWTrMNnBYdiQARIAKtQ6D9iAjDcczusgCnWocDWSUCRIAIEIFWJMACexb888CfNcVnEXgavxbOIHDBIBQWrDwrw5cwsXosjX1JPLTiIJJpIkAEiICAQLsQEUZ9CdK2v4s+Q1ZDJnCeTokAESACRKB9EOCBPwv+eaDPRQPL45/mLmni9ehIBIgAESAC95fAAxcRrnshXK8ZjkU9+2HI2A/x+3n1/aVDrREBIkAEiECLEeCzCnymwZ2I4GJDOPPAygvFB3OIC5EWc44MEQEiQASIQLMIPFARwR7zKvw674FoVj+oMBEgAkSACLQDAnymgYkEdyKCp3GhwbrEhAUv3w66SC4SASJABDoFARIRnWKYqZNEgAgQgbZDgAsJfhQuZ2Je8hkL1/S20wPyhAgQASJABEhE0G+ACBABIkAE7isB4WwDm3FwFQvsmqULlzTdVwepMSJABIgAEfBJgESET0RUgAgQASJABFqagFBICEUES+czEWymgj5EgAgQASLQNgmQiGib40JeEQEiQAQ6PAEuFlxFBJuFcDdD0eGBUAeJABEgAu2IAImIdjRY5CoRIAJEoCMRcLcngs1EMFHBjvQhAkSACBCBtkuARETbHRvyjAgQASLQIQkIlzKxGQf6EAEiQASIQPsjQCKi/Y0ZeUwEiAARaPcE2CwEbZxu98NIHSACRKATEyAR0YkHn7pOBIgAESACRIAIEAEiQATuhgCJiLuhRnWIABFo0wT0aaH4fOIwPP34Ypxu056Sc0SACBABIkAE2icBtyKisrQUt+bMRM5rI5H7xguQJ51F371z0H3nTDwTvgC3Sgud3jQtfOv0vZzTG6vb54+IvCYCbYuAApte6oUpfyZDWWUAbc9tW6ND3hABIkAEiEDHIOBWREhDj1oEBBMRJQfCLILhYPZ5/L8737UIickxq1Gpq2xxIUEiwt2P6iQ+8fODn/37H/j3GYiXZ/2CuPwGdxVaP60uA4fWr0bQ5J8R3/qt+WjhNja/ZOXT44uzjoDx0jL0Zsxe2ozbPiy0/WwJvnqM/wY+wUmvDsuw9p21SPdapjmZwt/ff9C9z3P436LNuFDUlp/fL8aibh/gSG1z+klliQARIAJEgAgQgeYQaCQiYlJ0eCO4CpfmLUb+90uchMIXidssIoLNSARLDzrl3csMBK9LIsL90JkqIzDN7x3s1zYA9TUoV1zGrrmD4T85FCXuq7Rual0GopdNxhN+vgLa1nWDWzfrIjGdCYaX/8IdW2LB1nHw85uKiMqOcR/a2sem9EeJ6I3RUHI4LXC0/v6mIFRVjcrCbMT9MQ39B30OcXkLGG8VE7GY32U+YlvFNhklAkSACBABIkAEGIFGImLqn3qM/UWPj/7WolRZ7CQUSrWleOHQEouQ6LF7FtRajVM+FwN3eyQR4elHye4GuwTs5fsw+ZEgJHqq0trp5hh87OpTa7cJQPbLL27uxDM+gzBo2FzEWp4WWY+TC7rB7wH413oI3PwGWqExz3yFvz8j0tYEIuBXmWPmp4m+uLffxMpNLkYiosmoqCARIAJEgAgQgbsk0EhE7D9fZRERTEgEH6tyEgl1OT8j5/xQ9A79EF+e/9cp726EAxMNvr6WfplNqCishvYuO9n+q7kJIJXb8erwdZA/sM658ak1fTHVQZW2EzP7CoNZ3iDz5SPMmzca67NZWjbWTnwST3YyEdFQq0O5SoErRxORx9E09eiTrwv3zGAMfeFPKFrEflONNLGc8QTmPPwp4ppYnIoRASJABIgAESACzSfQSEQwMfBtuENInEzVWcRCdbEYOP8wkNgFZ698juJSNSoqKu5JSPiaeeD50s1x8AuQ4i+RFINfOonnN5VAeugKBr0Yg0E/Kq1LeswGpEam4tXJsejx+lnMDClBoWDZdkWGAkEL49HvBRG6vngKz757AS//cAvFNmbe881QXpTjgw/i0PN5EXpMSMTCYxUwCHjr5QrM/ygOPUeJ0O/dZCxZLcGAaZmQ8TI+/OPF3B+FAbsRlbcu4O+Fc7A+ia0n0eH0iokYP2YkBjz2KWKhRfLmWQh8zB9PvLkDOXaDGkg2vI/hvbuh6+OBmLH2HFT2lT71UIrX4YOX+6Nn167o0X8MFu7NcuofTGVI3jIPYwb2Qs8nR2HO7nX40ClIr8Ot2N/wwStD0dvfH32GTcUv4iLbnWrf9itSdyFoYiD6PfIwuj7aB8+OGoeXPwmzjU86Vg/iewL4URjUWvls2fIqZkXrAV0k5ixehI+E/pm1SN3+KV4d/Dh6PDECM38Vo1Dwjivv7QPe8333T58eivmv9EfPbv7oN+o9LPl8EgYMWyP4fXj3DxD+BuyDKji5jt9G9sITvf3xkLDfthLe/W8aX6e9GPqDmP7oFzhvse+r/77s+6ov6KbPUyPUcV9i2MSdKPBZlgoQASJABIgAESACd0vArYgoUuswfbN1WdPE9Xrk3lHCnPSkRUCYJT1QpZbhRPwFlJWX3xcRgXolPgw4gwUnK6DOz8G40fEIiqlAabECE4elWB7hqDyWhOHLFEhVGVFTVYW4jYkYs7vSFsSWY8WEeCxN1EFTa0JdVS0U2cX46w8FMizkfOevfOci/rlZh1qjCWXXszDqhWuCpUSVCJ4aj28vVKFMb0DueRmem3QdKYJ9z9798zV8LIDkwbMf/B4bh1/O5MO6b9SIkqzLuHRmFcb4fYx/Ir7Dd3tToNLnIS4qGWU206qIGXj6jWBcKKiETinBholPY1o431FxFSsD3sI/GWrUGgwoS/kFo1yWSuXvnoyn/rcO5/MrUaPNxcn1U/CUIFjVxMzDEwPeRci5XJTXGFBVEI73nv0Wly3t+7J/DSv6B2DpyZvQ1BhQV1kCRVoc/vphl218OB9PgbQ1PSbxKzy/KhW49D0Whu93WgKm3DsVw2eHIrVIj5pKBeK+fwVjNmbbfh++2veV76t/cgQHBuLb07ko05UhN/ZrPDfwR6QIRK53/1j/PfWds7EdjcddxB1L9+U/t+GpDTfpDSLM7rIQZyxVffXfl/2m1ud2vB1j8eVzHyDkqs5bIcojAkSACBABIkAE7pGAWxHBZiOKSnXILayyfItLiqHXZFq+VeW3cFGahu0Hjt4/EYEifBIgta2Fb3weAx02zJAglEfMDIo+H9OmyW3LffTYPleMWftLkFZogOAGtA2fr3xbsQYj8jNVOHzkGkbb/WF5WqyaFI9vLlVDb2yA6loGRk7MQJqtGpst8O6fvaCHE0EQV1+NsjwJQt4fhan7bgnKszLD8d3FUkEaP1Xgj9GBWJdln3qAOXs9AkdtdF720qBD/tWzOBwWhNECgQDcxPoRzyE4w1HfOahlT0h6Ct9IaniDAKpReEvlPJvh0f4tbB8/BLP+ESPtToWb8eFmBRx4kuVoSy8Nw8S3w5C+dQk25QrL5mDDyAkIVQsqVUVh2rBg2+/DV/u+8m12PfZPhlUDA/CNWAm9oRaqpJUYOWCl4Pfhyz9mX9gfQT8anbor10T/PbbhxqYuElN7f4MkYfse+88LubHDs9jRZ31hYU/nDdAmfovBA1fgqqcilE4EiAARIAJEgAjcMwGPIsLTHocSldoiIFpSRLjbF8F6xpczwaeIUGHx6OPwCzzh/B2ZCjFHVKuH5IQcQUEJeHaKBAv/VSJH+AhIH/k18jzMnBKHkZ9LsXTzFYxwEhFAeXwKAieL0WuUCH2nJWFDqnCxUxP84366PboJvkp2YfyQXwR36t2UsdtKwOLu7+NInT0BqDuC9/2DcM6WVCPbjplD+2PklLlYuuJDjHASEW7qOwWc5xDk/y4OCTWEoCl26t0+K1AASfh6BE0djWeHjsfC4OPIqXYx4tSmMI/3PQXLRy3BsuWrkOxUlvkvmMnhszoPf+b4ffhq30e+r/6Vn5iHwMFD0aubP/oOn44NF4WKtwn+OfXH2nezXo/GyDkLIZ+W4iuwmbYGA8Zvtz8dzFf/rTU9+NaU34egaZ+nhuOYTU9n8omJChABIkAEiAARuBcCzRYRhcUlLS4iPHWg6SJCh3XTJAhr4iMnTbU1kB6WIuDjXLcbQxvn67FpVjyWy/gchnA2hHlfjh/fuIRwjysomudfYx5ugq+yvXizxxJcsBd2U8aex2YSRuMv4S7YvM0YPXKDbc+EApteDMTyZN4BV1uZ+HXoK9gqXGReexjv2YVGNtYGPI9NufYGLSe6mzdtexp82XeuZ6ougjR0DgLGbXUZn1jMtbcJmLRaVFiqcn/1iHq3B3oHHUedU9B9A+uGT0SYu0ka56YtV57btxZunO+rf6n48ekpCPf4ZICm+Mf7yB02IXVLCJL5pf3oWs6eYT9p7D/P8sWXl6vBxe8G4aXNfMB99Z/X82S/qfW5HV9HejqTL0KUTwSIABEgAkTgXgk0WUSUa7U4fCrBLiDYTAT7is5K7mpfRGVlpWWmobZWOB3g6A5LZyLCZDIBtQV4LyAZh1jRRueXcbAGUERIMOwHBa4UGlBrbIA6rwi//XXHtrlShZ+CMhF7owaVBjPqDQYoJDIE/i8D1yxN+spX46sxCViTYUCtvgZpF65jbOBZzAsrsgW5Bkj+TECvCecwaYkUi9dnYmN0IdK1juU/3v1z9NvdmbkqCtP9ZiCqygyYDahSpiJs7mD0nSuyP7HKrI/GTL/p1jJujOTvmogBM7ZCWqKHXpWKf2cOwuRQrgrYy8yex5pULWqripB2ejnGPjQS8zafsvWvAVkbXsCQuQdwXV2NWu0NHFn/Ngb59cf0tWdwBybc2DQGT035A+cVZaiu1eHWhb+x6Jd4WCcTfNlPxE/TViP2eiEq6+pRb9BCEfcNAp9ZYRsf3qHL+LbPCKyWalFXlYv9G8LBFnRZ36HA+g5kBg/DhJ3FQHU03rW/J8IMxbYJGPbJbly5o0WtoQbq7JP4bWWE7ffhq31f+b76p4Vk+Sj06v8SJs34GIu//Rkbd4mQXsY3zfjyj/dxBg7qWYfrUJK0DuOm74KrLjLrD2Kmvd+cmy//eTlvfN/BPo0eZbdTcHD56+g3eCnOc80JX/33bh9Nrs/t+DqewoIuc3CCa35fxSmfCBABIkAEiAARaDaBJosItrzJVUgwAXEvT2jKzc3FzZs30dDAgymr/+yapSsU1lvn8b/GWJYpdf25GHE/ixqdP/JrCdBQh6TwVIybcgr+L5zCsKBMiO2PH9Jh82cJGDf7LJ5+UYQuo2Ix8CMp/r7Glxz5yjcjR5SC0a+K4D9BgjWXtQj/8hT6Lrlte6lXDfYFnceqDCNMRiNKiyshPZ2GYTP4ngy23tubf97Gjd1ZFi7F6YJHnwzEm1+GQma5De94Y7P9rdaPfQWJq8mGIpxZMw3P9eqGHs+8iDmbkqAx8UL1yIlYgNF9/OHffyLWJMgQPrMP+s7Y73hpmeE2RD+9jYA+j+CxwPcQcjUaS0d/gGUbzyCfmTEWIn79R3j52cfh3+NpvDx3O9LsQaYv+zewefJojBs7HE8/+n/o0q0XBr4yB39bnj7FfWTHBsjDPkBgL3/0HDINW66yiLocoZOtfLouioPh5FpszHCk2d9Y3aBGUshnGDe0L/z9+2DYtNUQF3IAvtr3le+rf0XY985YrErVw2TQo7RADumhLzBs5AbHI3q9+uf6G7D2t9dS67ORrITcPAFp0Grbm6t9+c8Zu+MraPuhLnikXyAmLf4bkmLBrnD46r83+yyvqfW5HV9HGX4e3Bczt6aiSG9o9rssfFmnfCJABIgAESACRMDNy+Y87YXg6VxI3KuA4PYKCgpw+/ZtmM3Wu/bsyK5LSviTg9rDMGmwbNwZLGRPj6o1wVhbB7n4Gga/KXjEa3voBvnYSgSuYFm/gVgYlQF1tRHGmlLIjwZh8LM/Ox7x2kotd1azqnPr8cErg9Gv5yLL09s6KwfqNxEgAkSACBCB1iLQrJkIHvi35JEta8rLy7OLBiYehKKitTre0nbL0nKwYK4YvUeL0O3l0xi28Cr2ZNF6ipbm3F7tlV0OwYLxQ9C7+8Po1vNJDJu0GHuu2adq2mu3yG8iQASIABEgAkSgkxJ44CKCCRK2JOrGjRvIz893u7ypk44NdZsIEAEiQASIABEgAkSACLRJAm1CRDAhodFoLBupq6sbPdezTYIjp4gAESACRIAIEAEiQASIQGcl0GZEBBMSjke6dtbhoH4TASJABIgAESACRIAIEIG2T4BERNsfI/KQCBABIkAEiAARIAJEgAi0KQIkItrUcLRPZ8pKG0BfYvCgfgPt86+GvCYCRIAIEAEi0L4JkIho3+PXJrx/UMEjtUvChf0G6EMEiAARIAJEgAjcfwIkIu4/8w7XIgXzFMw/yN9Ah/uDog4RASJABIgAEWgHBEhEtINBausuPsgAktomAdPW/z7IPyJABIgAESACHZEAiYiOOKr3uU8UyFMg/yB/A/f5507NEQEiQASIABEgAgBIRNDP4J4JPMgAktomAXPPP2AyQASIABEgAkSACDSbAImIZiPrBBUMFTi0IxNBn2Ui3md3T2KWnx/87N//oPvjAzF62mpEpxkeyFObNEoZQleuwvw3VuKouv6B+MDFjUatwNpRVj6PLhCj1OaP5uS36MWYjfoTaQ/YR+7r3Rw1apFg/P+Dbo8PxWsf/wlRRt194+7zJ9qhC5zEJ8K/vT7P4X+LNuNCUX2H7HWt1oiw36og7pC9o04RASJABNoXARIR7Wu87o+3hgpE/34RTwRIcbIJLaoV4Zjs9za25RqgKa5CXupF/DVrELq/sRvZDyBAZiJid9Cb6Ov3MSIfQPuuwXip4gDesgiGTZDZ/Enf8Br8/N7BDoXxvgXbrn611LV1/N/Clmwdbl3PQPSaqXh6wCIcybk/Aq4JP9EOXcRUGYFpflMQqqpGZWE24v6Yhv6DPoe4vCN124Twn9T4/94qRc/JlTjTkbpGfSECRIAItFMCJCLa6cB5clsWktWkwN9TfXu6uRAfN1FEWO9GOwfsmpww/M8/CCceUBCvUZ3A+w9ARJz/fnUj4WLlMwgDhn6CqKJ6aNR1iPyoG/wegH8tJRyEdlzHX6OuReKyAAz54Zp95kVY3tu5O37eyrM8+rDZiE8Ef/dGpK0JRMCvMpibCUf2yy8CO82sfB+KN1TWYBaJiPtAmpogAkSACPgmQCLCN6P2UcLUAFW2AjNfa9rsge9OFeGTexER6Vvx8nPBSH5QIsKyzMZZ2PgKRu8lX6PSQ57wL97u3bhNa5D9IT78YBRWXWQiIgM/jXsS/TqoiGAcNZK1GDRyI642cfy98fM1Lj5/y2YDKu4oofVZsL0WcBURADKDMfSFP6FoapdMdVCl7cTMvkIx0tTKvsrFYn6XLvjvf//r9O3SZT5ifVVtlF+Hz0lENKJCCUSACBCBB0GARIRP6kac3izB+A/PYsCYVMTCgOSwKwgcI8ITnyqQw+ubDUiNTMWrk2PR4/WzmBlSgkLLsmQtti6V4OVJaTico8Cc6bF4ZKwYE9beRnY1rwzAY31WxgzlRTk++CAOPZ8XoceERCw8VgGDvboWqycfh1/gCcfXVQB4tQ/AZEDyvhSMmRSLnuMTMOeQHB+62rC353wivBPN7kLfSj2H4NmzsSpWDY1ai+ivJ2Ds6BF4pudCRKlLEffb+xja0x99x2+H1BZkatQqxKx6DwG9uuHhxwIw5cd4yFXW5TDszv316GBMH9UfPR7uikefehmzQ66jWBCgalQqxAXPxQvP9EKPfs/jvc3BmCEI0jVqPa5F/oLpLwxBr+7+eHzoO/jhUIHlTnlT7CvEOzB/XAD6+D+Mhx/pg/7DX8Po9/cgS81EQRqWDRDuC2HnDjHB+QQHj8W03ZXQKA7gvbmfYaawjEqDsxsX4uWBj+PRvsPx9g+nkVnkWA7krX0WZHvLb0r/8s/vxkcv9EePrv7oM/xdfPrJRDwz9Gec5+PjxT/eP+HSMc3tSLz1SBBEFj7ex883P+/1nX+Nja+kK/rDz282/or4GIN79MTzP4oh3TMLgx59BIPmHUYJq2LWInX7p3h18OPo8cQIzPxVjEKjw1ZF6i4ETQxEv0ceRtdH++DZUePw8idhKLYV8Z5fD6V4HT54uT96du2KHv3HYOHeLMHfL6BPD8X8V/qjZzd/9Bv1HpZ8PgkDhq2BjLvg1T83IkJ/ENMf/QLnLfV9tZ+O1YNcf79CMeGrPnfyfhy9iQgmVu5GmNwPv6kNIkAEiEDHI0AiwueYmlCSq8ElSQbGBEjxj0iG746VQVVThbiTGpTZ6iuPJWH4MgVSVUbUVFUhbmMixuyuhAkG5CZl4OUAMaZuvQWpqh41Oh0OrxJj6KYyeyDhqb51OUI5Vr5zEf/crEOt0YSy61kY9cI1JDby3fPsgXf7QP6hi3hqvhzniwyo0VXh5I5LeKpZIkIQhPR8DT9E30KhJYCsRfbFizgVvQIv+M3Buu3fICjkCuR3biJ6xyXk2oJU+fbpePLV3yCSleN2+nn8PO5pTN6mtOwX0Kil+GbIZKyTFKOwqBq54tUY7rJUSrb5TTzxWjBEaeVQ5t1A5Mq38IQgSM85MBd9n56J9cduIK+gGndk+zC1/9eIs/jo3b5GnYKvn3oOiyLkyCmoQZFCiasJsQhesgMSoZDxMPvBg+yI40sw7BsNNElnAAASZElEQVQpNCe/w+xtezFL4F9GyDsImLkbZzMqoFTkIPqLMXhhdYZN5Hhv35d/vvhp1JlYMTQAQQdvIFehQkrkVxj8zA+IL3aIGO/+sc3VDtFkmYkoOYZ3uyzAoSbw5TMNnJNQjFhs+Rj/Rn8GrgnG4/jQbyAWRGVBnReCcd0DEBSZhdKCXZj4/8zHaQDKvVMxfHYoUov0qKlUIO77VzBmY7ZtOdA1rOgfgKUnb0JTY0BdZQkUaXH464ddyLC05Sv/KlYGvIV/MtSoNRhQlvILRj0SJPj7lSM4MBDfns5Fma4MubFf47mBPyJFsDfau39uRESDCLO7LLTtHfDVPgfmxo4lq6n1uZ3WPHoTEWXISc6x/5vcml6QbSJABIgAEaBHvDbjN8AC9LP4LrXOTR0dNsyQIJQrClZCn49p0+SQW0pbg3uRSVC1JA9jJ2ci3ZLkq76tXoMR+ZkqHD5yDaPdBvieRIQv+zqsny5G8E2Bf/BkS1jGei4M/jTFOuRKz2P91OfxZkiefdOwtcwwBMWU2NMcwWMOfhkRgJUXHZuMSy8GY+jwDUgRBuklWsjixQjbEoQRgqBVo5ZjVcBQrJA46jv5ZHlC0lNYLKqyt61R65CZWug8m+HRfh7+GDsY04JPI/FaGUoEPvE+WIPdxsG0U7p8D16fGIoLG4Lwm9RRlvn/c+D/sEXuCNo1tyIweehay3Iwjdp7+77yuY8aj/27im+feQ6LD91BQZEe8tifEPj0T0i09dO3f46+2NtSHMCbvZbitICVp/btdTyIMHu+B/8b/yJdU4TBcePzGORgw8gJCFUL6lVFYdqwYNvf7y1sHz8Es/4RI+1OBQQTFLYKvvJtxRp0yL96FofDgjDaaQ+DDKsGBuAbsRJ6Qy1USSsxcsBKpNnd8eWfsE+2SrpITO39DZLsNgB4bJ8XcmOHZ7Gjz/rCwsJzWs4kpEHnRIAIEIGOQoBmIpo8kt6CahUWj3ZZTsSWFo1MtT2K0E1dgxLvj76KBEv7vuoDNfI8zJwSh5GfS7F08xWMaJaI8GWf5SfjiGN9FHCXIsIe8GXtwNhnV9vv1AuDel6GHzVqMeZ1ew9hSkEQrYzGtO6LcdwWhCoTt+LtQf0ROOETLPr6AwQ6iQg39QUBqUYdj/ndZyK0wGGft82P3uyzMpqC2zi5LRgL3hyF/oNex+wVRyDNd7bnqY+O9Cv4angQvvhyBeKc/GP+C2Zy+CM7/+9THOGBvI/2ffnnq395++Zi6MAheKyrP3o/Nw0/x6gEgsu7f47+OXhoEn7GM2O32p/O5at9C2MBEz4u/Oitvu8/YWFw3Pg8BglY3N0N/4c/czxKtKYAkvD1CJo6Gs8OHY+FwceRI1yO6CO/RrYdM4f2x8gpc7F0xYcY4SQigPIT8xA4eCh6dfNH3+HTseGi8I6EL/+EfbLRSFuDAeO3W5dqAfDVvrWWGzs2c02r73sk7r2Et5mIe7dOFogAESACRKDpBEhENJmVGyFgr6vDumkShHl8pGLjuuZcOQKmyXHDYsNXfT02zYrHchm/B9rYntWVIswViAtTpQEVTbJfgV+nJGIrX+DN6tQp8Z7AltW++/+6DSJvhuGNR61r4n0FiNaZhFEIThEEodI/MSJwnWXPhEadi9+eD8BXp7WWwNa1PY06HcsHjcHvMkF9ZTSm2oSGZSPzkJH4TerIZz7dTpbb9jR4t88DWX5U5xdA/PdsDBkT4rRxmPn1gUDcqHNLobAs5+F36iux8+0e6DXvCIoEAbNGnY2Vz03AP4KZCN6Wu6On9nlZ13zf/KRY+uRb2J7nzIfb8+Vf4/GoQmzQIIz67YZtvJrG1zM/7/Xd/yqFqcLguPF5DG5g3fCJCCsV1vF8bqougjR0DgLGbXW7cblxvgKbXgzE8mSdzajQB5aUih+fnoJwjzu/ffnnaq8GF78bhJc259ra89U+72ss5grEjUmrtf370dT63E5rHklEtCZdsk0EiAARaA4BEhFNpGWuycfMgCRE6d1XUERIMOwHBa4UGlBrbIA6rwi//XUHBZbiLOg/g1kRKuRqjahUqrB2/im8fqDK/ghG7/XV+GpMAtZkGFCrr0HahesYG3gW88KKXIIYDb599SxWpxtQp6/C/p23ccvmrnf7ZmTtPIchy+/gelk9ait1OLLjEgYFxGH6tmLku++yPbX0VgTe8puOnbeM0KhqcCddipBZg9B71jFLEM2C0dI7UXjbb5qlDA9OhUfZpgl45q0QiLMqkJ8lxZ9TBuF/f9+2BaHn8VnPkfherEHhrQIkHvweLz00Ah/+FmMJ4jVqAy6tGo1nZ+2HRK5DYW42wlZOwQC//njrx1NIUxlw5deX8cSE3yFKUUGp1OKaaDM++f4MlJYg35f9s/h68ipEXcjHLWUdVIUaXI1eiqFP/YhzwuU66osIenw4lok1KLp1A9tW7cM1dT2s74lgfa/HxRWBGLdJCU1+FN6xvSdCozYi9ff/4bn3d+LMNQ0Ki6pw46IIP34djnSLf97b16h95fvqnwYxXz6Px556EePfmoN5i1dizaZjuHDT+rJAX/5Z+/c2tt6oRO7VK9j15Tj0GfglRAqrKNGovbfPfwcaD/x81bf/ED2d1BzCe37v4VANuyXvev4uDurNUGybgGGf7MaVO1rUGmqgzj6J31ZG2P5+E/HTtNWIvV6Iyrp61Bu0UMR9g8BnVuCapU1f+RJ89djzWJOqRW1VEdJOL8fYh0Zi3uZTtr9fLSTLR6FX/5cwacbHWPztz9i4S4T0Mv74Wu/+mXWRmO73DvZp9Ci7nYKDy19Hv8FLcZ5rFvhqn4O7jG/7jMBqqRZ1VbnYvyHc9u9HU+tzO6131N/RY9LkcmzINqG20fNraU9E65Eny0SACBCBxgRIRDRm4pKix+ZZLkuVxsggcSmFhjokhadi3JRT8H/hFIYFZUKs4v+Xs84c7EnKwBv/i8Gj4xPw/nYVinmMwGx5rW9GjigFo18VwX+CBGsuaxH+5Sn0XXIbSic/zJAfuYLAV0To+VYStmTymQtf9gEY9BBtuoSAV2Pw2NRkhGTmY+l7V7Bsty8R4frG6i54pF8A3vh0N84r2JOLHG9str/VuucSnBQE3yyI1JQU4NCyqRjcsxsefeoFvPerBDmCpzNJt8/HiMf90f2pCfj+6FVsn9IHvd/aiwy+3KdQgQNLp2DI44+g59B3sSE+CotGzMIXq09ZXvCmKcrH0ZUfYnT/x9H90acxetZWJNqD3Dp4s8/uxK99YxTGvDgMTz7yf+jStReeeWE2gmPV9iU/lj6oDbi8ZZblyVM9np2K4PgKaNRqbHnDulTm4Y9jURLxK9ZIHGn8jdWakmKcXvcpxgzqi+7d++C5yatw5DoP4r2378s/9nQm7/0rwNZJr+BbcQXURRW4KcuCeE8QngtcZ39Eryf/rLMQtqVAD3WBf58AjJ+7GTGZjjdW+2rfISIa87Ny9e6/05+Am4v4oEcsb1TvuigOcYu6Njp/JCgeaFAjKeQzjBvaF/7+fTBs2mqIC/kmphvYPHk0xo0djqcf/T906dYLA1+Zg7+T+NSjr/x65EQswOg+/vDvPxFrEmQIn9kHfWfst/39FmHfO2OxKlUPk0GP0gI5pIe+wLCRG2x7Mtjfryf/2CyEg/8j/QIxafHfkBQLdmXDV/scWgPkYR8gsJc/eg6Zhi1X+R2Tptbndlrj6HjZHHvhnOWlc1/qXW5w0NOZWoM82SQCRIAIeCJAIsITmRZMN1fnY0bAJeyr4KKiBY23AVM8CKRjg5OoaC88NOokfNFnIGbvkOFGfi1KCkpwOWwxBvZfiQsuYq8t9qkN/AncowtXsKzfQCyMyoC62ghjTSnkR4Mw+NmfHY94vccWOkf1WMwfuAJXO0dnqZdEgAgQgQdOgEREqw8BW4pkm8kIuISIqlZv8L430BYDS/KpeYIm99QWfDR2MHp1exhdezyJ517/HH+fte5Baess7/sPvhUaLLscggXjh6B394fRreeTGDZpMfZcs69HaoUWO6LJWCxfdhF8/qgj9pD6RASIABFoSwRIRLSl0WinvrT1IJP8a56gaG+82umfDblNBIgAESACRKBdEyAR0a6Hr204396CTvK3Y4mKtvFXQF4QASJABIgAEehcBEhEdK7xbpXeUlDesYLy9jaerfKjJqNEgAgQASJABIiAVwIkIrziocymEGhvQSf527FET1N+o1SGCBABIkAEiAARaFkCJCJalidZIwJEgAgQASJABIgAESACHZ4AiYgOP8TUQSJABIgAESACRIAIEAEi0LIESES0LE+yRgSIABEgAkSACBABIkAEOjwBEhEdfoipg0SACBABIkAEiAARIAJEoGUJtAsRsfjxpy0vXwqT6Vu292SNCBABIkAEiAARIAJEgAgQgWYTaBciwqAvxrVtM9H35c1QNLuLVIEIEAEiQASIABEgAkSACBCBliTQZkSEWq1GRkYGdDqd+/4ZjuGjbosgdp9LqUSACBABIkAEiAARIAJEgAjcJwJtQkQwAZGdnY2SkhLI5XLo9e6WLcVifpf5iL1PYKgZIkAEiAARIAJEgAgQASJABNwTeOAiggkIoXBgAkJ47XCbRISDBZ0RASJABIgAESACRIAIEIEHR+CBiojS0lK3gsG9kBBjUbc5OGF8cLCoZSJABIgAESACRIAIEAEiQASAByYiKisrLXsg3C9dgmVJE9sjYTKZbOOkxrEFr+HLWBVIR9BPlwgQASJABIgAESACRIAIPDgCD0xEsA3UTCR4+zjnm1BwejWmDV1C+yK8QaM8IkAEiAARIAJEgAgQASLQygTakYiQYGnvZ7E0XouGVoZC5onA3RBgs2aOmbO7sUB1iAARIAJEgAgQASLQPgi0CRHBZhxcvwyf80wE21g9G8cN7QMsedk5CDDR0NDQAKPRaP92jp5TL4kAESACRIAIEIHOTKBNiAhPA9BYRNAjXj2xovT7S8BVOHARwdLpQwSIABEgAkSACBCBjk6g/YgIw3HM7rIApzr6iFD/2hwBs9kM/uXO1dfXW2YemGjgy5iYkKDlTJwQHYkAESACRIAIEIGOTKBdiAijvgRp299FnyGrIevIo0F9a1MEmHDgYsF1poHlCT9MPLAyrunCMnROBIgAESACRIAIEIGOQuCBiwjXvRCu1wz0op79MGTsh/j9vLqjcKd+tAMCXECw2Qbh8iV3sw28bDvoFrlIBIgAESACRIAIEIF7JvBARQR7zKvw67wH4p77RgaIQJMIsNkDJgyYEGBf9mFpbGaBX7M0LiRIRDQJKxUiAkSACBABIkAEOjABEhEdeHCpa94JMKHAZxD4ciV2ZB8uIphw4B++ZMmdiOD1eVk6EgEiQASIABEgAkSgIxMgEdGRR5f65pUAFwVMADCxwISDtw8XHCQivFGiPCJABIgAESACRKAzECAR0RlGuRP3kQkDJhCYABDOKjAkrrMN7NqTkOBl+UyFK1IuMDzVdy1P10SACBABIkAEiAARaM8ESES059Ej370SEAb+fLkRC/b5h+ezNC4CeDlXMcDz3c1CMHtMoLC6nvJ5m3QkAkSACBABIkAEiEBHIEAioiOMIvXBLQHXwJ4LAeGMBBcN7MjSeRl2zT9cbPA0ds3KCgUDO2d1XcUHt0FHIkAEiAARIAJEgAh0JAIkIjrSaFJfnAhwQcADe6EY4GlcRPBrZoCncZHAxQizx22yMkIx4tQwXRABIkAEiAARIAJEoIMTIBHRwQe4M3ePB/xcDDAWrmlC8cBZcdHA63FRITyyMu7qcht0JAJEgAgQASJABIhARyZAIqIjj24n7xsTAa4zBjyNiQnhRygIPIkIEg5CYnROBIgAESACRIAIdGYCJCI68+h38L4zYcBnD3hXXdOE10wkcAHB6vGPUGDwNDoSASJABIgAESACRKAzEyAR0ZlHv532nc0msJkE9uVLjoRdYUE/S+ezDkwQCMu5CgthOZ5HwkFIlM6JABEgAkSACBABIuBMgESEMw+6asMEhLMGPNhnR740ieWzc57HZhWEAoF3jefza3ZkdflXmE7nRIAIEAEiQASIABEgAo0JkIhozIRS2igBHvzzWQWhqGBpwmsuIFhXhMKC22D59CECRIAIEAEiQASIABG4OwIkIu6OG9VqJQJMDAiDfiYM2EcoEIRN85kGPhvBBYawDDsX7nUgAeFKh66JABEgAkSACBABItA8AiQimseLSt8FAS4MfFUVigfhOavnSUR4SvfVFuUTASJABIgAESACRIAI3D2B/x/78IdwUrzqyAAAAABJRU5ErkJggg==;" vertex="1" parent="1">
          <mxGeometry x="590" y="20" width="785" height="364" as="geometry" />
        </mxCell>
        <mxCell id="IDeXR4Nn8I1j4QwbW-1Z-6" value="" style="shape=image;verticalLabelPosition=bottom;labelBackgroundColor=default;verticalAlign=top;aspect=fixed;imageAspect=0;image=data:image/png,iVBORw0KGgoAAAANSUhEUgAAA4YAAAC8CAYAAAAkerBbAAAgAElEQVR4Aey9eXArWX0/eit/vEkKCt5ADS+QR6hfSLGkJpmZGiCZFIQlUBAgzIRAIIEKO0PCMkCYTICEGZY8GGa7d+7i9XqRd1nXq7xK3uVV8iJZsuVN3mRbkmXLlrW1ts+r01JLLakl23eZ68v9qsru7rP353z79Pmc7/d8+5zb7cbt/DMajaAfIUAIEAKEACFACBAChAAhQAgQAoTA7UPg3O0khaxuIoa3r/OpZkKAECAECAFCgBAgBAgBQoAQIAQYAkQMSQ4IAUKAECAECAFCgBAgBAgBQoAQuMsRIGJ4lwsA3T4hQAgQAoQAIUAIEAKEACFACBACRAxJBggBQoAQIAQIAUKAECAECAFCgBC4yxEgYniXCwDdPiFACBAChAAhQAgQAoQAIUAIEAJEDEkGCAFCgBAgBAgBQoAQIAQIAUKAELjLESBieJcLAN0+IUAIEAKEACFACBAChAAhQAgQAkQMSQYIAUKAECAECAFCgBAgBAgBQoAQuMsRIGJ4lwsA3T4hQAgQAoQAIUAIEAKEACFACBACRAxJBggBQoAQIAQIAUKAECAECAFCgBC4yxEgYniXCwDdPiFACBAChAAhQAgQAoQAIUAIEAJEDEkGCAFCgBAgBAgBQoAQIAQIAUKAELjLESBieJcLAN0+IUAIEAKEACFACBAChAAhQAgQAkQMSQYIAUKAECAECAFCgBAgBAgBQoAQuMsRIGJ4lwsA3T4hQAgQAoQAIUAIEAKEACFACBACRAxJBggBQoAQIAQIAUKAECAECAFCgBC4yxEgYniXCwDdPiFACBAChAAhQAgQAoQAIUAIEAJEDEkGCAFCgBAgBAgBQoAQIAQIAUKAELjLESBieJcLAN0+IUAIEAKEACFACBAChAAhQAgQAkQMSQYIAUKAECAECAFCgBAgBAgBQoAQuMsRIGIoCEDYg0NPWLgColFEE1eHmFI2Ycoe5EOiPh98ychEqtSTMNb65FAtuUXlRFmxJ//5TWivVcPsipw8TyIlhw1NM9rGN+BJhNEJIUAIEAKEACFACBAChAAhQAgQApkI3JnEMLSNAZkCBnfmDfEhx8VLZYu6oJWXo8N8wMdGHJPo6DFjPwQgakF7gRqbLCayB21tAZrnjiRKsUPX2Y8pkwkmvRoNzRoY2Hn8zzjeAlmDAYcSOSWD1tW4VK+HTzIyLTAUAmtqys83h4b8DlgyIlJS0QUhQAgQAoQAIUAIEAKEACFACNzlCNyBxDCK3bEKFKnWwEl23nHxkpn4QL+xARfbluIEyw9jw0uQje0Be2MoV8yCgx+r/c1Qze9lkjBWAmeEIk8Na5Yq7JqrqJ2SIpTSGVzaSpSPOlMjUzSZQlQU9pFO9IlIaIyM6jE+rksQU4Gg6roU6FokPaKAHh0JAUKAECAECAFCgBAgBAiBux2BO48YuvWQ57dgIZsa7bj4XD0ecMHlA0J2CzY9gM88hLHtEILzzSjVWLFrnoJ5V5qO8sVae3GlpB0zGQSNaQ1noZIVYHBHugGOyS70TSe1i4zE9decR3WvUUTs9OiXy9Cx7E0pJLI3idp6HXjKGdrDlt2fjI+GEBJZyEb29WhrGYJp+wii4GR6OiMECAFCgBAgBAgBQoAQIAQIgbsOgTuMGPphbs2HfCabMeZx8RL9uzuHUbNIAxh1YcFsw/pEJ0b0MaI22pQHmUoPg8GEya56NBv2RfsGk2UeTdagbGQ3GZBytgFVXjPMkmadIcw3l0BjF2UIr6GTEeAUHroBVWEbVlLK8GOptwFDq14gfIC51lKUKo3Yj/ixaV6FJ+yBVT8I9cAULPsBuGx2BETV0CkhQAgQAoQAIUAIEAKEACFACBACdxQx5DbUKJSNYjeLL5bj4iW7O2rHYPFFNM3FTCs9i3oseY+gq66ELmMPoxdTteUYdUo1IIqVjpdRqZ4VafhEGsCpdlyVjcMl2Qg7BkuUWBKp8ILL7chrNaeayx5oUVE3I7nnMOrbhq6rAyOWQ4QRxcFsIy5dUkC/z9oahWdDg8qLlyGf2pUktZLNokBCgBAgBAgBQoAQIAQIAUKAELgrELhziGHYjqGyYvRZY55BM3rnuPiMDMmA7YHC2F5Cbh3aKRsizNlMYdzZTDIZEF1FZ5Eq5oRGHM6fOzFcWoXJDDIZSxheasPlTos0KfMbIK/UJp3SRF3Q1eShsn8FRyIOGl5U4urAdlrNYbitZkxPmxGzco3CY1FBVj2ItbUpaMxJr6i+lS5U9W5AVGRaWXRJCBAChAAhQAgQAoQAIUAIEAJ3IwJ3CDGMwqWrQUH7chYzyOPic3dt2GnFjj8C2/gQzGzv4t4Yyq62xbyLivcLTrahWGGQbgNnguJ8DQbE6UXnEy0FqNZJm8BG11UoVq/HGxmFa7oesj4rPBu9qKzuw/JhTJVoGypBizmNGHOHcPkEqhfErkGJSsUYdngT1CC2hpvRZRKZyuaGgmIJAUKAECAECAFCgBAgBAgBQuAuRODOIIYeExryFDBmc6R5XPwJOja6r0PnqJ3X6MWczYg3/MUKCJpbUJqyEVBUsEMPldYaM/3krDAZduBPfLMwjG3TBNYOEwGijIBrohKKWeYwhmn7elDfMgMnv48wDLumHC/ktWLRE4BeIcP4fkrW5EXEjeVeOer7luEWeCKLjXqw1CVDWeMgDGv74KSbkCyHzggBQoAQIAQIAUKAECAECAFC4K5D4A4ghhyW2wtQpZV2+AIcF3+CPo0eYLqpDea4M0/etFRlyNgrONpUCOWiaCNgvOgox/GEMMg0j17GygIwt1xCoXodSf1eAB5PiteYeO4wzK2l0Ng5OOd6oFTPwyWugltE64UyjO1tQFXUhTUJYhewz0Gj6ka9rBYDs6J9jbzG0gCNsh7N7Q0oPv8cXrxYDqVuCyK/pScAiJIQAoQAIUAIEAKEACFACBAChMDvMgJnnhiGtvpRXDoIm5gsiXrkuHhR0ozTqNsKo1aD7vpClAzuxPf/eTFdJ7VXkDmeqYA2wxrUB/O4HgcA7JoSyDQ2ngwGF5QoUq/zn4SIeL3wg4O5qw79q+lqTzsGi0rQ1NePiZUDie8jhrAxO49D5nhGnup4hnNZsWCcxozZDn90B/3FqQ5s+BuOrqGrsAVmbwRhjxVzS3YRWc2AhAIIAUKAECAECAFCgBAgBAgBQuAuROBsE8OIE6OyAqjWUr7ZkOym4+KTKbOfRbbRV1CCxFcmohZ0FEl8pF7S8UwU7vkWVPEOYTgYG8qS5YQ5cHEFoXV6BswwNWLpxIVLac5rmOMZ2RhcEppAcaPDC0qevCbDwuACSX0kvHrUih3YCAldE5DV60lDKOBBR0KAECAECAFCgBAgBAgBQoAQyEDgTBPDwxk58prnJT/PwO7kuPiMu5UKCMyhIV9EBJ2jKLs2m/qZCJZvbwzlaY5n3GYlCs7LMOFkrG4bfYWtWBTv72P52OcwFD3YYiTRZ0BLgzH2Ifp4W6Jr3ShSCY5npBoYC9seKEar9EcQ+QRRSydvuppeQsjciuIMT6bpqeiaECAECAFCgBAgBAgBQoAQIATuZgTOLjEMb2FQpkDWb9kfF3/CXg3MNeFFhSFBBAPGBpGDGQ7OlUkM9ajRUZ2HKm3qVwiDbgfsh1zcBNWOkfI8XK2uQ12d8CeHvLoCFS1a2HmlZxTRNM2gc1QGhUF6xx+3b4Fe0w6FvAIFlxsxzzymZvk5hktxtW0yY1/keHM+muayaFyzlEXBhAAhQAgQAoQAIUAIEAKEACFwdyFwdonhK9QPwW0d1HpHorZtXSem7akbGgPLatS2GeKeQhNJb8IJh4WBTpjZBsWsPw4rmnZMbHqlv4HI5+Ng7mvDXEY5HBYHu7GQsS8ya2UUQQgQAoQAIUAIEAKEACFACBACdyECdz0xvAv7nG6ZECAECAFCgBAgBAgBQoAQIAQIgRQEiBimwEEXhAAhQAgQAoQAIUAIEAKEACFACNx9CBAxvPv6nO6YECAECAFCgBAgBAgBQoAQIAQIgRQEiBimwEEXhAAhQAgQAoQAIUAIEAKEACFACNx9CJwLB/dwO/+MRuNtrf923nuuuvd2w6C/310McvU9xd3eMYnwJ/xJBkgGSAZIBkgGSAbuRhkgYnibiXE2oSNS+LtLClnfZut3CqcXEckAyQDJAMkAyQDJAMkAycDtkAEihkQMSTN5G7Szt+NhpzrpJUMyQDJAMkAyQDJAMkAyQDKQTQaIGJ5BYnju3DmwP9Ia/u5qDbM9kBROgzXJAMkAyQDJAMkAyQDJAMnA7ZABIoZEDImA3iEawwPtZXznEw/iT9/0TbRzTjJHPYPP7u0YxKlOmjyQDJAMkAyQDJAMkAzcDBlIEMPQ0Q7WvvY5LH34L7H8d+/Fqq4bb6n8Kl579fN4e/XjsLnXbslElJzPZAoyaQx/dzWFghb4tA9viJvES+/7Qzz2ggob+zYEiRjekvHotP1C6TPHL8KEMCEZIBkgGSAZIBm4M2UgQQxnqhp4UsiI4V59KT/palnpw/999Z95cvjpzl8gFLz5WgoihpmCIyaGm8OV+LcPvhOve/Xr8JYHP4CP/XIUTocZNb/4Ff7twz+BwhG66Ro/p8OC3zwSM2d9/bfU2I3X4Wx/Cm9kZq6PnMfMLahXIE23+uh0KPHFuLnuuXP/F17zpgfw4a+dh9IYuOlYZruX0w6YIa4B337N56Bw3/xn8LRtofSZzyxhQpiQDJAMkAyQDJAMkAzc6TLAE0O1wYWP//YIY49/D1v//UTKSvyTw3k8MWSawxena1PibsbNEzHMfIgEYui0dONr7/wb/FfTGjbWtqB67jN40ydlWLGbUf3kZ/G2c19D3S0iaLuWGjzGk8AL0MfrMDz/YZw7948otgRfMQKVjVjdaLjDUo1Hzz2Gy/NurM4aofjVZ/Cn7/gOGpduPtGWautpn50QJ8c37/kylKQpvOlj0Gn7gtJnjlmECWFCMkAyQDJAMkAycOfLAE8MP3vhCB/6Xw++enkfnt3NlImX17+D9zV8nyeH95V+EUe+nZT4GxUCIoaZQiQQw7mXP4n7nxyHXdDYObZx+eu/woAjhJjW6+YQw8Gf/DKDYMbKvx/veODrkG+z+gKo+/JrcO4WklEpAnWrwtLxczr8GPjxQ/iLn04nNKQnrVsKv+Pynva5IWKY+ZycFkNKTxiSDJAMkAyQDJAMkAyQDGSXAZ4YykcOeGLIyOELysMU4hdZfQYrQw/g/5V9CU+NFKTEXQ+wjAge98fKDXG72Fvfwu5dqCERiOHFj7wVT6pStXOWERPmbhIxdNo9MPcV4dN/lEkwY8TpS/jSvz6Cnw8zYmjEzz7yJ3jL7ygxZETOqfkN7v/LFzF1Qi1sLvxuOjH0VuMrr/oaOu7C5+F6xhnKk33QJ2wIG5IBkgGSAZIBkgGSASkZSOwx/EmtO0EOe2ZdPAGM7HUCg68CBu7BgO7bOHBvIxjYvSFyyEhhrp+gQRx/qRPnHtLgQvMw7v+bNvzli0sYr9fg/vcpcf9PzbByToQ4O7TVI/jQp9px30fU+NzlJWz4knuw9mZm8b1vqfCW97bi1e9rx599vhd/82Mjn5eBkSueEdP1wSl88YudeMNfteK+j/fgW9fW4RVNzA+Ms/jmlzrxhkeUeMvnNXji5/14x2d0mIqnOa59Uh3CwgRi+ORbP4m8BWnTRkHjVTM/iP/95/fhLa99DV7/1g/g8bIlXsPINHyzimfxT4+8Hfe96tV4/Vvfj6/kzWInoX2cwY/fEdtHKNQn1gYK5T/77Ifw2dJDOC01+JdvfBufFxFDp92J3hf/De9/55vw+j9+Nz790y6YtpPttaiL8fhHHsKb730VXvW6N+Pt7/4w/voLZTyxZcQpV/xx7Wf5NwZL8eX3vh33vfpevPnd/4x///on8bYHfoFB4R5ztE+4P7EprnOtDo+97gkoeeJ9o/jlzp+t76XCQ5wNO+3fxsOfeBlrIvmTSkthNNCTDJAMkAyQDJAMkAyQDJAMXI8MJIih63APn3s5ZlL69897YN1ZA0b/D08KMXwfQoeTaO8fhM9rf0WIYchnxr8+1InHW9exY9Hjw3+twhMt67BtzuIT7xrh3fWvXxvEu56ahXbLjqP9TXQ834P3F2/wHhtD3Cr+5+Mq/LBnE3b3Ljz721g2LOLC87PQ86Ty+Piffbofl+Z24PHuwj49ib967xh6E6RvA7/+RxWe7LPC7rJhoXccD3xSiwl/kpjmal+uzhKI2lfu+RKqd5JES6yFihGbd+PTT72EGvUyVjbcMNU9gbe96Ul088RGi//8i0fxW80Otra9WFb/Eu++9wm0pmnDpAgSq0cIr235Ad71n1o42/8LXymowBdFxNCY94946POl6DUewGpZguL7H8B7f2nkTTGdDh2efOuD+E6tGUubPmxbrJjq68CzPyiGhm/fcfG52+90mPD0Aw/hifoFLFvs0NX9B/78bT9Fjwiv3O1jDmhSNaVOWzP++Z5v4dpNwS93+3P1f3ocMyP9wQOfw+WJW+MZOL0+uqaXyY3KAFtA5PwOBHw39r640XZQfpJlkgGSAZIBkgGSgZPLQIIYMtBc7j1Ynfv838HBJsJHM7E/7yImpidRWNP0yhFDbgFfe2iYd7YRkjhvDWzgt//Uj1J7koiFXHP4zGemMMcTPyvyv96NL8iWMLlugz9N0xLicscLQhTy27GqX4JCMYZH4u1hcSFuDU9/UoUfDW3h0OvAtlaL93xCi8kEcdzM2T6hfKmjQAwff+0/oMiSixh+FbX2ZDxPbDLIjgv6HjVkl5/Ae9LixARQrDlLCTeX4aOfLMfQ80/g19okmWKeUX/x8Mdx2Syqf7UWjz7wG4zzxGoFL33oz/HZZ7swML0HWwYhzR0vkGCnTbr9TscUnnrbg/jetXVsbntg7vgZHv7Tn/H7L2PtP659yXtJ1GWpwafe+CN0idqarf5EHt7DaSrBFOL4dmRpv1S/ZwtjmmdnzxP483f8J7RpcpwtD4WffBAkrG4OVgIZ9HvtEP8RvjcHX8KRcCQZIBkgGSAZuNUykEIMs1V2cLDFk8KbSQyl9hkyE1PBlFSKDDKPjEJ4a2AJ3/3rFpx7uDX17y9H0C2QM7cVg41TeOK7avzZY334Vr4ZZpG7/9Ax8UezBnzusU6859vD+OFLGrxbRAwZVo7uETz0qW688REl/vgzg/jthC2hTQ1xx7cvG94CMXz6gYfxy9Ek8WJEwzq7jhWeeEkQmzSSYh3Ix6fvfzse/sTX8Z0n/xUPXw8xdEzgP979BL7/w6fRLSrf6VDjm69JN0U9h3N/8O9oFEw5N9fQXvAsvvWpR/D2+z+KrzzdCO1G8n6cx8Qf1/6Vym/ggXf+Bf7w1ffijx78LH7RZk94Sz2ufYJGVEyInX2/wNs+lI/5ePuPq58nfiJMxISQ76sc+Gfr+2zhIU8VvkxeSRPPVzacKPz2vDTFRJCdM00hOzKtIfXJ7ekTwp1wJxkgGSAZIBk4rQyciBju7VtvOjHMts/w5MRwA89+ph9lIo1hrpvn3NsYU2jw4Ff1WJbQuqTHM43iS19Q4Se6mCmUQEiFzwUwU9WffmwAlXtJjaW4/hC3ear2ifMKxLDp8Tfib19aF5Gdfch+XQbjCYih07GMX//VQ/iPLhefX4oICcTmX0WE0bG8C0tK+Ye4+un78MZvNmJbRIKcjnk88+AncEWkMUwnRuJrx8Ym1Je+gr/4QJ6kc5f0+OPa73Ro8aM/eQyFK0miKa7vuPal4+F0HKHjifvxyK8X4njdKH6584v7+yTn5JWUBveTyMkrkYZpBoU/ob6Y2agjsQedxTNiyI5CGjqSDJMMkAyQDJAMkAycbRnISQz9PgeaunsTpJBpDNlfR//Qdb3sgwEnrxH0+/2SvNDv9/HxLF3IPY9/fkiDerfU+RDqDnexVNWPh388i9F1OzxeB3bMC/jf83O8g44Qt4z//p4OStM29j27CHjsWO6fwEN/p4WO1zweF7+CH3xAjV/M2OFxbWOyT4sPPqzCN8oWeGLJzPsGXlDjjR9X45NPDOO7z+rwvHwBM47YRCjEOXO2L9eDIRBD++CzeOitX8CVATusa5vofv6b+E7ZDk9c2Hf4Hjv3WVxdTXot3V2rw6fP/SMKVzg4HYP49hv+Ej9RO7G1uomB+p/gb37vPfjSr9tSiJnTMYwn3vRu/FjtxPbqAgp+XolpRwix7xiy8kMYfvphfOSCFc4NOf4x/h1DpyOIyRc+jge/cBWqaSe2to+wMKzE/zxZDQNPLHvx5KM/h3xoA6vWAOxbTkwpfoQH3vo/6D9RfO72Ox1OtP3wr/CHb30fPvbYV/HN7z2DX11oxtAiFyd2udsXu79PI3/hEMtTEyj54Ufw5nf+EMq46e6N4ndc/lz9LxUX4urx+D3/giav9EKEVB4KO9uD753WP2xMy9QMSmsEGVFkaVmeO+0+qb303JAMkAyQDJAM3K0ykJMYMlDSySEjhTeyCmxZWcTi4iLC4XAKOWTXi4tmsHhWr+pXSt5E9NXPLKLjmZi5qPj8db9aQsi/A03FCD78WDvufW87Hv6eDt1WgZht4vy/q/HhL6vxp+9T4p5H2vHOL2nwsjZm7sk0ernjd2FuHsYjf6vEvR/vxy80a6j8fjv++AkT1nliuQ3Zd3vx9IwdnNcO2+YGxtvG8fA/TfN7HNk95GpfLoETiCHzzKmv+R98/P4/xGve8Of4h6cHsZzQ5sXNON/xcwzxYWIvo19Drd0PbeHjeM+b7sVr3/oJ/KRpCoX/8Gb80WMVvMZR0K45HRzGLn8RD7zhXtz3Z5/Bsz0HcDocuPx3sfJf9bUO2Gr/P/xKkww798h5zLA6bTvo+u2/4wP3/zFe+9o348FHf47GWYGYzeM3f/cIPvC+d+FPXvcHuOfVb8Tb3vsVPNvhiBO34+IDOdvvdGwi/+8/iKfUB3BsH2BRPwd12RN48OHf8nsc2f1la19MWxjH7/fuwb1vfggf+8bLaDMF+LbxeR2568+F30ny5+p/qbgQN4hn7n8zPnelF5suG+9gSSodhdHL7GbKgJjYCaRQ0BaKr9PrFExJ08PpmuSTZIBkgGSAZIBk4OzKwLHEkHWeQA5vlBQKgrCzvY61tTVEo1GeHLLj2qoFO9t3jtfFEGfBUx/pxLeY11S3A373DkydY7j/73WYvsFVcoEYCuSDjuEEYROwcDpG8f03vxNfKdZjYcMP26YNY7Lv4Z1vf4YnykK6s3oUnoXTHLfVP8cXP/BneMsbvs575T1NXkp7dgfhs9Y3jPgJGj9G/lj7BG2h2MsoS8fipRYKA76YxvCs3Ru1h54DkgGSAZIBkgGSgewycCJieLMBZJOM1dVl2Gw7PDG02baxurp0x5kd2XV6PP71bvzRX7fiNe/vwMPfGkWJ/sbdsxMxzCSCUgRvufMyvvyhP8cbX/MqvPq+P8GDH/0uLvXG9lRKpT9LYTf7maLysg9yhM3JsBGInqAJZEfBeQwbs9m5mAQK6cVhAtZCGcI1HU/WB4QT4UQyQDJAMkAycDtl4LYQQ3bDnH8XiwtmbGxs8Ed2fTuBOEt1EzE8GTE8S0TvtG05S/JGbaGXEJMBgegxbZ8U2UuXE4H8ic1NhTRCnHBNR5IxkgGSAZIBkgGSgbMvA7eNGDLhODrc4Z3NsCMJS6qwnJZoUPo7i0ySvKfKO+HxyuDBCJ9g5smOYlLHzsVaQpaW/YnTCP3EwllasWmpEMeOwh5DqbzidHT+yvQ74Uw4kwyQDJAMkAycRAZuKzFkDRQ+T3GSxt5NaYjo3VlE77T9dTfJMt3r2XgZCcQvRuhiewDZuUDexPEsXPzHiKC4H4U4Ia84jp0LexTT86Wno+uzIRvUD9QPJAMkAyQDJANMBogYBs+mIJyWaFD6O4tI0gB8Np+73+V+SSdrwrVY6ycQPsGcVEjDwgVs0rWF7FpIL07D8mYjjkI6OtJzQDJAMkAyQDJAMnB2ZOCc2+3G7fxjGkP6EQKEACFACNxaBEKhEILBYIo3aHYtDmNp2J/4J+SLRCJ8sHAt5BWO6fnEZdA5IUAIEAKEACFACJx9BIgYnv0+ohYSAoQAIXDDCLBvxTISJxA8VqAQlv5dWXFlLL04n0AEhSPLKy5TnJfOCQFCgBAgBAgBQuDOQYCI4Z3TV9RSQoAQIASuGwGB4Ik1e1Jh7LuyYqInkEchjBFCIoPX3Q2UkRAgBAgBQoAQOLMIEDE8s11DDSMECAFC4OYhwAifoOVj5+wnDku/ZgRSMBsVk8mb1yIqiRAgBAgBQoAQIATOEgJEDM9Sb1Bb7kIEoji0zsNkMiX/ZsfRrujEgjs2eQ9sadCkXoE/FzpRD7bMojLE5Qnns1p0V8vQrHcgmKWsiH0UDW1zOIhtJwMQwMroIFbciYAsOdODw1jrk0O15EbsLlh8FHE+kp44dh05gG3Hg3Aidhfjinpo1r2xkOgBFg2riF8lUuU6iUYiovpjKfcnW9E258oIT5YThmthFDNbXDLoJp55FjXoNzogLt1jaodi2IpAlnoOd3dF6aNwW828vLA92rOzszAYDPzf7EQn6rsW4ROVwzR9Ye4QLncwQfTCoVDi/oPBPWhbGjBlj0lFxOvFIRfbeyhoB0XFxU+vo38zC7npIXZtG3rMLiSk1T+ProYRWMWA5KqVW8RAxzhmhWdGOBq1aKtVwuzOljmARY0ak8bjnsExtFR3YClDiCNwbcwlxwCh3pSjHppmGWr61+BNPlTZGvQKhNsxpmjAsOUoIUunq9QKzbV+rGX0jRP6nmGsHZ3iJqMW9CsNcCUHj9M15Vakto5A0W7AbuqW3VPU9DuOD4/EPrTNzZixi0dDCYgih9icz/VszWKk5RpG7TkEILwMdVUPVjwS5acEBREI5CgnJe0tvHDNoqtTh+2cL/5k/RHrOLr19qzv9mTK9AwC/IUAACAASURBVLMojlwupIupz9yPgVXRwxkwo1MxjC2Jl1TUtYMdX5bnlTNDfW0Um6Ki0lvwilyH1tHfMIRNifbfUP1+E9prB2DJKle3F9+wdQJDy1kbJ3nrRAwlYaFAQiAHAqFtDMgUMGSbJB4Xn1Z02O/BxmAt+qwsYgf9dUOwIwr3/i52F0ehHtDDesBh1zAAjd4Ek34QrV1mpD7qUfiPDuDhki80u6YElVpXWm25Lr0wNlxFx0rqmyhobsX5uulkfZFIcuKdUpwdus5+TLHJrF6NhmYNDKKJrXG8BbIGAw5T8ogvQrAN16BMOYs9dhshM5pLGRbsF8TOcBWuKoawcpj+AgpizyIxaTCMovFqJUZsYhocxXK7DCO74nrF5xy2tCpoVq53sisuK8t5ZAs9+S+jfTlOxNgEoEOL7fiLlQsEMvD1GBpR2r2SIMUR/xH23T7s2XZw4GeEzw/H/ChUqgFMma3whMGbgwoawiC3i/G6MnTMu3itYWB7Au3qeewFowhyi1Dmd2OTNTeyB21tAZrnjiQaf6P9K1HkTQqKaUA5GBQVmHAl5eNwsgb57cvwJ4Ny17jVj4IWc8YkCQdaVMhnUgh3akFW9BQqsZR8/FKjhSu7Bleb5zPLZ/s9fW4c+oIZfS9kPXPH4Dwar7Rh5Zg5fdZ2+/RQNM/zE9mUBSP23MtGsHdsn/lhX9+Bl60CHE1CPb6ftarbEeHVy5Hfs3n9/fk7g88BTBoN9MK7YLoHzeolfiwLratRWKuDK7GSk62nwvC5D+HlsiTkzGiqmcBBtuws3DGMEoU+tsDqs2NRaE/acVJdiUul/bhF64JZW7ij64q93xPt0aPp+edQ3Cd6t830oUWV/u6PFxndQX9BPga2Ac/OQpZFJiO0HXK0m1NnD4c6BapHd/hn0WMegUavRbeyBzOmSahah7EdAjyGa6ie2JNeBPLMQF7SD6v4VSvcqW0IxQpDcuyMhBA6bpwU8t60YxT72lpUDCQXXz3zg+idEmFrMmGquwZ14/a0Z9YP85Aak0K/GCeglHdiSYBwXY2LNZPJ+ZFEm28vvl6YO5Uw5Hw4UhtNxDAVjyxXLvzmiXkYssReb3DIZsOzPxnEOz+oxOs/1oN/eH4DZvGqiv8QivOjeM9H23Dvh1T44E/MGN673tp+d/P5XUHIfn0E9Styi1HsjlWgSLUm0uCIKz4uXpxWOOdgbGzEHJtgefVQKBcQxgEmahXQH3AIhdgMKQxzqxzTHiC6pkL9xHGEzwe9vACDO0Idxx+5dRUq2szYWU/TXAzWo7hpFEZ+YDRAoyhG7YRDpNmLl80ZochTg+e3EtXZNVdROyVFOESJQ+voLmzAHHsOdgZxVbkIpvM7MPdBNbkT06hFgwimvVjCHIcQPznQgvF1v0GBen1SLXOkb0XDtBNh7GGksg0rkvOLCPZmlFDqpbSJYfgPtmHsUmFWeCGImp3zNHoEa4o2dxaqigK0TrCX0hTULZ3QCpomXTfKL5ZiwJo62466JlCe3wdxdzLS57NNoP5qLfqmF2A9EGkEw+GEmSgzA2VaQ9/sNVxsW0KAd0Ljhl7xIsqH7Qjah1FWbwAHP1b7m6Ga35MkLrgZ/SsFVHAfi5pWVBZcxPmX81BS34eVuLZcKnlm2B7G6mowtmWBurwnKX+hTahKGzF/iv7y6etRIUEwQgtKlOR6mDwzqMlvxoQwechyNKhkKB91Zt7CLQyJeDag7ZSj5MoFnL9YgArlJGyp4nV9tW8PIF9hyKrljhUaxMpYXJM604fWnsXk+KJRoKRpDMaJNlTUa+EUnumdQchU68k2WXVQjepjE12jFh1sUsbGh6gF7S/LMOoIAVsDUM9LzUqTxZzoLGjHcIWCH2dPlD5HojXVFbSYj2vT2cdnQ52H559/PuXvuQutWDypDEWWoayLjcsMLr+hAQ2zrAMPoK2+DPngrIjE6NAub0Mab0mifDiFxtohrIvnSaxMYyPqdNmXHFkBwflmlGjsAHt/hDh4DjzgwrHVB3aPx/dVshnpZwG7Hl01hXj5/CVUaqzXobULQF9fhrFj5ncH2kpUaOypc4/wCgabRrDuiWBloBOLXiAaOMKBh0P89kTNdWK4vB6GdO2eYxjFF7vBnro1VW2yHfvjqOteRRR7GL2mwkZcnIX95smC2Xu7mZ+/hvbXMSca/9iYl9c0Gn9+p9Fflw+ZZkf6HZMsMHG2M1iUIntMFp+71IqFNBlIZJA6OTJC2TzDL0BwHMcTv7XuMp5EJ5N7oKuugFa0sBiL24S6NDmvcWnrUNFjgSc+h9gbk+F8+7I0YRYKv834Rm1DqFatnRhzIoZCx+U8eqEo3UxOOHKmPWmkBxd/PAPlqh+eQAjOdTte+l4n3vorGz+xZRoSdfEsqkxeXgvksu4i7z+6cd+Tmzhb66Invd9bkS6C6p858P88tos3PHoI1a2oIr1Mtx7y/Jbsg9Jx8enl8ddWqMuuYYQNpkP1kDMtX2QJynq2CrWN/opmmI/sGKrtxRYA10Q9VOvHLKeHl6DM64BFkgBJNCJsw5C8Hcs+IORzw51Nc5FVWwjA2osrJe2YEb0Ukiays1DJpIiqB9sL4lU7I3RaHU9C9d0y5DePw6RVo1WljRNTPTQNBSjutmROSLf6IVNv8De3ppLxpDjMPs8AYLW7PEaSuTk01OokV/eC1n5UKxeSK5sJmBzQXH2Ofzk9lxfrg0TUiU4i4PxOOF1xYx3PFKqr421IOV/HrNmZeOkzLZjg+CXI7WPHdsQTPP+cGi3DM3Hz0Sl0lb+cmFzNGobQUDeIrUCsLmEvId/MgAsu1r92C9bdEbhNAxixBhAwNaFUY8WueQrm3Ryzvevq3+MAcmF+aARmmxtcKAjfvgX9FS/hsmot94tWVGzUMQyZwgDP0RRqGowIcBxYr7u01chTaOJyI5IxXQfq26VW3aNY7S6Eai3z2doZvIoWc7qxVbIREUsninp4nStvMr27ughnIF6OextrewH+fvYXJ2BOMKBk/lt2FrJiQKnB+p4HXJCDZ3cJatmLKBqy3XCV3hl5bKKdsyQ7Bss7YImyNS85v1gjjC974/KUccyhbYZqyQOvvh4KQ3LWd6itQpU2vty91Y/iFnPsGXGOorRigrdAiCyq0RN79HO2JnekBwvKfFzfM55e8iG0leWQWGMA53IlNP/AWcdnFxNjS5mLgOm3m+t6dwS18XGZJVtT1fG4+MxK1Axtp05WjyZRozBk3TZxqKtGeYa5hw96RS2yrjn6jnAUYuuMpVAuctgdr0aZeiMxzgJuaKuk+yrXbQlxYYcW8sp2GLaPwB3oUFU6jNMv/WxCXRh7ToRyM49hLCiLMxd77RqUHLtAEy+Nvf/KR5DBPzkr5haYCf4hJqoq0RNfqDT2VkOh94GzdKKiZYInd0adCjWKcTiEhRy+aA5eb/zdEfLAatYnzPE1iiuo7jPCZDJA03AVddosWsfMGwaiW9C0DGD1IEbmWJLg9gx066lWTVJZk2EemNQ9WGHrxEEr1EWlGLa7oK1uQsq6TWQFbUU9/BwrmReAexLVDcaYvPgX0N6gxV5iXhWAgS2wjjpSsmRc3HZ87RgsbcHCcetU8YYTMczowZsfoM+bQ3tGsXt45psm6MXhDgs++jczGOLDHPjpLzbiJDGeyLaCv33fDAbFeU5wrm+xStR/gox3SJLwoQ9ffEWIoR/m1nzIZ7KtTB4XnwXQo0nUd6zwE0fnaB3UjPQ5hlHHbEv9Biia5hDkjGhoMiHIaw6vwXDcuGjtQ36jSfTyi9Udcduxm5xzxRsUhk1TjmL1eix9xA2r1H4Ots+qrAzqLIPy0WQNyjJe2sI9b0CV14zMuXUUgTQT2NC+EUp5Bzrq8tAwbMbChhO+lJeQUCYzfUy2Vd9VjpL2KV4L13a1HN26AdTmlUOz7cB4Zbxuax9kvRI6zcguRiprMJnV3CKKgLEBLzSyPrienxeG1lqMbgcQWGxHUXyixAhFcQ9rjx+L7ZVo1m7yZqCsBsEMlJHDBEEMBmHtLYNqI+5Ixj8PZeUYBP1xdLMX5d0WcMF4K3fnMGoWaQCjLiyYbVif6MQIM0s2mTDalAeZSg+DwYTJrno0G/YlSdn19W9urKLWfnQbU8moZ0aOF5SLkm3ILC2E1e5i1A3MwjQoR568Ey3FJehf1KOteRr73Dq6ytth4UJYaitClyWEFKKRUuA+RsuL0DYpIpH8IocB3bIy5FL02TVlaDQJ9+HCeGUVRh2xa87YgJLuVXh5b6+ZpDOlCSe44DyejOc6aza7BjVpjIlpRV9sWzohvuKSj6BvrkYvb2YdhaXrCtqY7WzUiZVFZ+oEX8gWmEV93RS8YOllGLJFsTbWifFZE3qrS9E2OYuRLjXM7hDmm5kZMFvEkYEpdmI/ZvpdAIFXeKbrUK2L2fBzpkYUx7W4nmlVDvNwoaxcxxDsYzUoLcw/3TPut2NJciFsADUXqtArWALE0xi1HSg9fwF1OmfMXO2s4+OZwZjxuJdNLlwBztSERqOwsesA47XtsPgs6KwfxE7aWkt4UYnKrGqzA0xUVkBYI0jU6plBXd2U5GIf29fu0OmwHo2ZmffqBtA1uooj8fuEaTSvdEJiPShRRdaT6D7Gq+WYFrY3RDxwuYVxIGuuzAj3JKoKW6GVlCVhPJpAc0Ej0hXjbHxJvne3MNEpMts16THUoMC4I85krH0ojs81MhvBXjpmNJcooYu3Y7RJhn6rHePqGRywocuuQXX36rELBWH/EY74bS0HGK+oT52vMKdmkpVLBO4tYckpGjO5bRjnJayVJLLGgsLY1fdDx28nCWNnqAJVw9vg2MJ75WiqksUxjFKpOdNKB2TDjPiFsTWixqzQ16yC0BKUpaVQGY6xhBLad9vw5TCryM9cVBDalXYkYpgGSPplOBDE/p4HE2o7VtIjj7uOhGGft+DzH9aejJjZVvCRry4htvDpQe0FC8ziOjwb+Oyn5zEnDst1Ho3Avm7H5/9r5WT15yrrpsd14PF77sHv//7vp/zdc8/j6Dh1XQF89xUghtyGGoWyUewmVotSG3pcfGrq5FVkuR2KSTawsMmRgh9EOWMjmpht6YYadWxGutkDOT8ztWFAPhjfdweEXalmG4KGTqcsRkF8hU8IM+k1qM97Hhfrp1P2dIRsw6i+dAF1U+64bX0E/iM3/LwJa7Kduc+iWOl4GZVqsVmQ8EIzwTTVjquy8QSBkS4rgqO1YbS2DmPTu4eR8nrM+sM42pyGSlENReco5m2+tAltBH5+74kXsw31mOFhXEBL1XhyvwlbJa2M1X00WRvDNa0BoeV25CkXc76wnKPlohdwWgE5LnnnL+Ew3Lo6lI3YeBJ+zRCzb3SOytBo9ME5P4TRZeaoJwyPxx/fH+iDYyWGp0HTDPnAOrzBA0zWFKN9ygS9Xg/DaBMKK9UJrdh0exlY2YxI8r+oHYPFF9E0F6vPs6jHkvcIuupKxOfXopZ7MVVbjlGnlIDfjP4VVRU/DbGN8YtiW88otvpL0TyfsXqRmZnp5va1UPbFFjQcwxXo4G2EPTAPasDWL9wzCsgZ2w+Y0VTcA2uEg6mxREQ8RMVyJjSz51sUFDvdwnjLBLalYOET+KGvv4LGEUHe+1Fd0ITx+ORqpKEAdQMm6DXXUFw9Bmb5GPslnQglntGcE0MTTJMqyC7kQbkgxkwo7yTHICxd5ei0nH7y6jW34kpxJ5aPGBAujMkqIVjvHc11okVryySsG2rI+nk7B4xVtmIx7MKYXIUNfi/1IOzRNXTVsgmaDQOyLqxHXRivYumEe9nDSJkCszyviMLSWQR+HQVhLLUVQr0RmzTujXUn2iLkPM3Rs9SB6tY5WIbLTmnqGwIXSDpyEuqMbqpxpSppPimEZxzPOD7c/Bimsq2DZtyMdMCmuhTXhkXPRvUQ9CNKNLUPxfcdzqC3tZvfs7UzKEvRIqeUuDcGWW0mATzU1aB+Jv48RKOp7wefGa1tswjAip6rcozb2BJF2o+Z+dXl2j+cll50GV7rRqFy8ToXC5MFhZbaIEuuhvARUfs8Jtc9yfaGd2Ca3MwgwNbeovi4x/baTqFark9avYQX0FIxiv34TR9N1Yq2c/hgW4z1i75PjtoRG8LuVRhW92HV9WHWwWHfasXW/AgMcWJp19RAvSEMhEJ+I8aVtVDOHcBvXxaZBbOy+1F9uR4aYVybHUNLUSE6Vk42vicRYmccrEazSFuXGit1FbR0I69IAfXQOLT9ClR2LsbwY1rWqp7Ee5ONv7PqSgltNLA7UoH25QjgmoM25V0FhC2duKpUYoTt8cn4CfiYcPvxjWJBeR7tyxmNlAwgYigJixDowq8/14H/8yElfu8hMblz4oV/1+B9n5xGx+Ee8v67H2/5ayXe+CkN/rNXeJBd+OWjLTj3cGvyL6UMoQ4g6OOwMWfFb56ZQulSYtaQTBA/c6l0+IxcSgAzkgLw4JdPa3Huu7rk33fEBHEfj39/En/wHS2+PhUF9CuxdN9ZQRs8yC8w4/0/W0WD1Y6v/u80XveUAZ+ocWBeWPhjVUZDmOyz4G+fmcZ9P57F51td2Eq80KXadKvCchFDRkCvh2ymtTVsx1BZMfokd1ezxaRj4tOKE186hmX8xNFkGkdTTczZymaPnNdQHOrq0WmJQDiCOSRoNSdX7EI+HLp9CApjNSs4soO+q3IYduYwJ6EcE9cNnwWaHgN0yooTrLhHEBHXk1KQE8OlVZjM4pAnvNSGy52W5EsuJS8Q9Ttg0nRCrbXGPC5yJlwr6MO2kC7qhXWsHpdfKMBgIlCIBKIHOtQ3m2IvRLsGsu7VZKR9Cp1TTAURwXJ7pYTmJ4zldrYfKNdkOQhT48t8XyQLPuaMedKbMyU8hhqnpzFjMkJVeRn1gwbemyh/PjCKIc0Un26qrxaXX66FbjcU2yPoPcSBN4BVtQyqtQCC3BLaywf4hQFGOI/0CtToXDwRDIdDWGirgMYW5PMKrdseKISMrcJz69BO2RBhe7MK1TFnM0IidoyuorNIlRnOp7mx/hVXk+s86p6FslmPjG0ekpn8WBqfjps0sf6pweRRFAeWWawxL7peM5SKETBHhcystHJ8D4iwe++GpCV2JCyxJ0ey4tTA6Bo6S0R7G5n8dQmy7sVUnQIJhUkgkEKemBOhQ2/STCpR8IEWsopjnGkkEh9/Eg0F4Nm3Ym5EBfVM2h6l47MDR3NoKm/GnOCumDmIyRPL0AF01XlQ8Pt4kwUeaKvRPM/FHElVTeCA5WvQwy+MY64JyNkeJp8e8no9/KEFtFSL7ps5uCkRHFCxxSIFeMVsZB1dRR2wxN83tqEOCNwgWfvJzkIOLZpa9dgPX8czLllFFNa+QuTVaBMLeJLJ2C67M41PBJaxUZjN/bgmK8DFC5dQVNeHldN4i4UfG/p5OMNxp2qcC+tzBlh259AsOIJhfV4/DS88mKoVFgHSEXPz1jpFSm0a8dCjo6wQSi0jIUaMt1ZAoY9bPERd0CsK0DTnBQ51qJbQBrFaArPXUMg8tpz6F4Gl8wpaZ7dg6KpG/oWX8HKRAhPbud4jUpVEsaEuySTE4RW0XayDXjzly9jK4cFkTXXCjDZq6UKefCiJ0UQLyhLvQqZ9Z3OYZBs4D3NYF8JyRwVGtnaxEidw+q5KVKr1mB1vQlmLERbDLBzcJtS1bDFHnN8NX2gPozI59J4owHng9sa2byRT3ZwzbssIs+SiZY7yvQ5Y9wKIHC1A1T6V2MfM+rwujcxZe4uTBDtRJFtIrObnNYEVHfS74gluEEttZegzjqE3y+BzdvD1YabuSkrfJ25R4oSIoQQoGUEhK76UQuo4LGrN+NhDffiXy2Y0zrF9gCFYB6bxzo8aoE0pYBtfT8mbEgmAxbfg3Ic0eHbMmzJpSEnpsuHZvC3sZJ2Yp6QWXezj6ymEUBQV9eDp4p34RDCCploLmnh7gRCWTRt4/3cM+IzSDq0rDJ/HhwaZAQ80HCXaaNUs4N3FdkyyeJ8f3Yo5fKBTYkVOVOWtOc1FDPewNL6UaVN/qoZE4dLVoKB9OXNfG1/OcfG5KmOOZ5rSHM8cQVvfDkuEg7lVgRlPBIvK+hM7nvGbW5CvXATHmTCedeMFI7P7MGvnsBt0YrhCcMgShivd+Uz8ZTHTV4OrDbMQW1Ik7owzQXG+BgPCymDacaKlANWCeiGRCQh77Vg2TkM7OQ8bc6XJ/0IIevbhcHNpRDII25QG8+nmntEjGJQtMMQbxkzl5KKBOupzwb53gKPDJXSUSO3jYKTnuD0mW+jNqzmlU4qYJz22h1i8148ROsFMlB3ZtThMBE/88xIuaGsaMMdFEXSMoKLFlFgYWFOVo2dd+LSEDUMyJVbSPA6EnVbs+COwjQ/FnFvtjaHsalvMe6y4nybbeO9x4rWfRFuus38T+U9y4rdCp9HjOM/1iaI8NuwkhHELvTI1rFEO+3YXOHhg7mzBJNsMEtyAqqwVi+zGtgdQFPeEGStnE2MdI0nvuXGPc7x3b/88etonRKvKk+iUN8PIj5GJVvBOkvJlXYkymLOF4sQEdgjyAgWGGc6z42gtvoRqKcdNAHwWHSa3YmZ7zNlNnmqNheLw8LQTTVHb+FMmu8/huZdK0W3OdEufnjrjOuTAeFML9E7RouX2AArS9jWFVrtx+YVSaGzCc8zGrYqYIwveocwasNWP0noNTHHHM6b+GsinjhBd64aMmYXahlIdz7D+4h1QMTO3eTSWaniNbnhDjbIuS+I5sPY1ZZoYZtyIRIB3BX2dOjh4y+st9OTVXDfBTJTOHGgVtcA4rYXI/1UiOnly1vFxYrRRAc3sJvaOOH6ftElZgEudSdyT95LljNuD3RUUOVWLp9sZRJ3gzEk4Z/viyzWQ3q3FPuu0CWGbtnRtO+i/qsAsIyjsF9rF0tw2v1jIzTejRiut+rx+xzM76M/PR7VyALPbbnCcBxZ1KV5kWz+kG5gl1AFNeTNM9rUkoePH5SmoWrsSZp38Hr10x29ska8ouSjl0lalONFJdcLGHM+w90h6M5wYrozNNzyH7B7qwFtOipO59VDXVqORN8kRR8TMT5vKRfsqfYsYGZxJuxcTZnpa0bWQZeU4rciMy7ANU5MbOS16MvIIAQErhrvGIObrG2oZeEMGIQ2Y45lqTIlJOB9nRU+54HjmEJPKHmwI+HkMqGfek+0aKHM6AzwD+EZW0XmlAXOSL/cECIkTIoYJKHKdSJG7WJhSeAey7NEtfC2DBErlTa0rEgzCseZA3o/68YX2DMkEjvZRVW+7Tm1cDmIIQK+0QMYm2uFDPNcpmBKy9rF8y1CKVoewZ8OHnt6Me2f14fn/NaNc/Jz7d/HZX1pTzV9Tb1V0dQeZknpMaMhTwCjRNfwNHRcvuuvMUyvU8thmcLbaxzue8Rggz5NjyDAMRSV7UdoxVBfTnu2nOWzIKC+6h9GKCkzwvt53MdKTfSN/xH0A3ioszSGL4BziVGsQDj1UWmts0YCzwmTYEX0iIIxt0wTWEpP4eKsjHuztHiEoljEW5Tfi2pU66JI2d8nb5AIIpDQsgM0xNbTxCTXTCq50lqBlahue+Dw2yh3CaupF5cVLqNPaE5PJZKFWqK8okLbVLRnNzjzTqLkuxzOxj8iH/YsYaB/lN+Szbw8K3x1k56bZMbTWdWLhMMQTRkYS2U8gi5HQMtoqYzLiNTWhoHEEfD7TDNpLytClN8WujT2orJV2mx3d16FzlH0EJeadrzTNbInVFzS3QCqcb8z19C+f8WT/wgfr0Bs3IczpTpZLSBUFxwhzYTPG9Euw+4JwTHZh0MK8DTAvwdWon4rtwmQe5MSLBnDrUCk4AmLFOUdRroibYll7Udi2lHRdzhwFVWaaB+6OVKNjJSZsSVM4OwyGpIOX0J4J03x7hDanHf3LUOblo2lyh3e8wTzxMacPbF+LXafCqPXG9nlFw8zxzAr6K4vQvSrMbNLaIHUZOYR5oA9z++IXHcD2gfIeHsV5otvoy38OpYlZpR1DxTFHFsyRFMM9YDVhYdOIpksXeQ2J32GFww/sj1dBuRACW9QRO55hewrFjmdiJDGA+RbmTCo5cDiGa+MmpuIGHXMedkI/oMWOAAfr3zyRlcIx2bNFe2cbUNpvRXhHA7UpV7+dcXziY1DKfW6qcekY1/zp6ctazTiydKO0eRz6oUY06/bg0csh6455mmWywe/P3epHOe8BM6WE4y8CAfB+nhzDKGPOpzJyhLHSUZVJdvh0N+B4xqtH7csNMIkHrZ1B5McdImU0I0sA8xhZ0b6MYJgDx2/fiMLaW4j6FFVhlsxsvBIcoyAEc0tFisMjtnCYIEBZHc8wh2zx9wZnQUdBDfqNJugH2jFoiZt8+pbRlleAns3UcYBv1fYAituXk+PkZg9K1YIjLqHdzHEO+0xU8pkVYk5yPJgZwkm38YnLi3jWoOkaxqrrELvWVays7yHAnA1JOZ4plnAsxxzPXJtNKEP2xirQaGISFoFdw6whvGzwQl03W8TL8uPnV7cX38iGGnmK2axOndJbTsQwHRHJaylydyNhkpUAexZ84lNpDmnce6hU2GFLmQxnyS8ZnJsYYmsL31L7wc1Z8YJFXIBEvqATX/iBBX18sgN87wdppqrMbPUJyyv02QhxW3NpDMXpruec450fVGmlHXIwu3fmHCF7/DF1uidRzz4o77BitqMc9aNrsHsO4XJxiGz2oJZN4P2zUDTo4eG8mG3M5XgmAqe2FrL+pLtsa58CY+LN21LNYQ5ZYht3+ImoZaQr+fmEhEbJiLHWOvSsCbOoZEFRjuMHziDTTPEfFQvA3HIJhep10cppAB6BqcWzem2LGauKzNbf2F+D8+WdEt5NJ9Etu4SK0Ti5C7qwNmfCWsoycghezx501floWxJ9i5Dz49AX8wyZbLlwtgtNSW5tYGSlAy+fYiWYkTq24QKOOgAAIABJREFUz0/QFAa3BlDUMAsu/sE29gkJQVvIvLkWNpngDcc0icL+QIEYhnaGIGtfQjAUwkZvObotwdgeQrbCLnI8w8qRie2EhNuLHmC6qQ3m+ByVNy1VGTKwH20qhDK5uUvIjevt30QBx5z4tueht+yfejU47NnBwtQQuto60dcii5PaCA6XRjC2HOv7yO4E5PWCFzlmqibjHZwITWL9WpSQfYBpFsrjxIbtxxFruZOOgoTcjHfaMVjXAys/X2J7DQVHC0GYB4awHY7AszGGFoUSGvOu9D1G3TA2FkOu240vWrByipL7ICMODFdVQmPNnPKKWnKiU6ZByEt4Tz0mS/gQ6wYTrOKJL59F5HgmpYgo1nrrMe6IT/58et4pCKPn1vE26NnmzegRjEoFKkvL0DQ8BSvv8z02oWWL7mtpjmdWOi6hpj++D6qrHDLm5vNAB0WzKWWvlXuyJpXwp7RL+oL1/fnnYt6GxZ9jeO6559GQsP2Vzps1lDk7KmuCmV+TsKJfOYWsbinOOD4Ie+BOWHHE7ph90/biMXuxxdgcTcr5MWVvrB5JrsDkRx7T8Hp3YdZPYnHHgfl2tr9QRDzCzOw01vdZ9+AaRtBYeAnyKRecYzIopFS0wWUoC+XQ7kiQ9BtxPGPXoKhSm/Jd3tCiEpeUC9LPuRiYxHkYq91VKYscCFnQcSndCdYkuuWtmE2zVuDmmkT74rbQWyB2eDSFtpJrMdNrVl82xzPsvcGPgSFsD1WhfoYtoh1gQtGJVbbeFXZCp+zEnGWY3+OZLs9s8aYmvoeEfYP3cKo27gRO3HcTaC7txOr18MLwJtQdon2TCeyOOWHfdSx8AXkVzVCPGbG2642Nr8zxTEEDRhNzGxNM2lYUSTiWY1tgxHs/bUPFqJvxIOqahFyujW15YNte4pYMki267fh6YWwsQ2+2bVASjSZiKAFKZtCNkMBtfEOkRYwccnGnGAd49rsmTIsr27XgYx8xYEII8x+gtmY7PumIBdo0O6meTIW0WY/7+IbIlDTiCSWdcvB5/HixeAO/bbZiMuWhzSSGUasVD/3KigU+nw+//ZUZMrHGMGsbbnXErSOGIeYevXQQCeuotFs5Lj4tecrl/pwajXW1aOgehXFtG1qFArOJdxczj2yF0Q1E19Wo1axhY6gOZZ2xDwOnFBS/YE5kqqpGYBdZfEV2BlFWOQJ7DtsW5pAl6VFxFxqZ1Ie6d9Avk9qb5YN5XM/LlF1TApnGxpPB4IISRep1fiCOeL3wg4O5qw79qyK1K+fJ/NaS4B3U5cacdkHk1l3ijuP7LTinJY3kaCC/VI1+YeBn5oElF1ExYsvywg5jUVmIHmvKA5BS4e7I6ZxSCF5EBWLo1StQNrSTcAqTIH2hEJi3T/ZiZWkFE1NWuXDN7yPUuhAKHWBSvAcnZS8b86qd6lgn6rbCqNWgu76Q/wZf7O68mK6T2gvKHM9UINPa6gb6NwVBqYsIDiwzMG6JzM9DViyvJh4CqUyJsKidfdR8g/cwyBwEMA+Znh0zlu1xAuVdg1rRjoS/AL8RisR+tVgxuyPlItlnlo7FaFtiq3DM2U4hxByKOR9qSFMrB1fVaNLFfcJG19ElSzqG4hY7UaMcxvTKfmLFOdH4xAmHbU096ke3k2lYOVfEDlgAztKFK5euwXSK8dYz1wqlUezkgU1C8yA/iSaCtc/vjX08PtFW4YR5b006nhFC04/R7Umo58QfVwrCNtqMroUV3oHWlm0IpfmdsAR2MNY4gq1IuuOZXWhKhf2ZrD/y0GVxY7ZZAV36JlR+Rfw6Jo+iRjuGS0/peEaUmT8N8B5Vm+eEqXMU2wN1UCdsz1LTn3V83JMKNKR8tNULY8MVtObciy2+R9ZnddAehjDf0pDcZ8scF8m74072gnBvjKHu4kso7V6G4/BQtJgYgs/tRuBETtCYM6S0/XjxpvjmlGg17mGpswaqdK09czwjvz7HM8xDZ1FJzLQ5VlUQy+35p8CHWaKY0NpsEC0eROGakqOCvSvEUG71o6BmIsOU1ton2hfnnkFTm1nkeGYVmg5TYr6X6ngmWbhbV8OPgV7LAJSDKzgMRhFxDEPRZ0UkzCwGemFysdZsoy9PnuphlB8ni9BrDWF/cRKGLQ8snYUiZ0NxcmhQQXadOHPmVtSxT3id+hfF0d4euPTXul2DisQe8FihzLNr5mdQmBPWcjRr12DZ3Mb2hgHK0jroXS5MtTRhek/oIbawzByaSWtvbje+zCliVdvSibWFDBEihicQtqh3A59/aBS1wnjPFMmeDXzuoVGIfcEI6apTPs7sxFN/24tfGjgEPEeourqGmFsMN1760TRa1wP8/sS9zV0U/KcK777MVN3sx6Gn2gK9aI7E7e3iv/9nASd0LBS/MzeeemoWv7SEEPD7UNXuiNefvPFV9RzubxJpV/goRgz1+GLvAZaPwjjcPcBvXprBR3v8iX1fll4z3lVix8RuCP5QBI6tffy60ZHFeUWyvpt95ln34O8f3cfz8xGR+aJQyw3sMYw4MSorgEpCS8aXfly80IQsx+iBDTavMGpZoa4SJpURuAyd6I5/5Xd/vBad7ENg6R7XROWG9k1QKlSwiHhXLNqHRWUeLlUPwHIoYoyJvMwhi8jxTMiMpqrYt8ESSdgJcw6h0KeZ6UThnm9BFb9xn4OxoSzpwIY3i4mVYJ2eiTlLsXTiwqVszk1Y2iB2NDWQa3d5sxS/pR/tuhM4ygh6cXjkR2L+cKBFBXNkkXIDuS9Cmz2oUG8kzWESyaMI+zbRW/o8ZOxj8EJ3IQKHthaXLtZjxhVOav/i+QTiJxDDdfUVVHTP8J5EhdVvwZx0oK4gYQaXokmM+GCfn8DggBqt3TPY45ahLBMccTBFcjMajB547fPQDqlQX1SVuc8qso2+gpJkv0Qt6CgS9kwkbjKL45mb3b+i+hDF4cokjKIvrUeDh1hWd8Q/GZLE13AsGWKyV5XqldJvhUapxhJzQhP/BeaacDXFyQTLd1k0idGjq1wWx5DtO73Ke3+N9ZcRPVVp3kyje5ho0yRd7rsmUNlqRoiZLi8twe5hzi9KUK9Zwl7G7IQ1KgynvgNtujRvnq4J3vFM6o4oJ4bLnkNBwi5MuKvsR7tGjq4FF3zBEDjPLiwTTSip1MRNJ0+Db1odAROupTieSYuXvAxj36iG2riPMPsEj5I50PLB0NwKs6AITXc8E1hAX8d8XCMTgnv/AE5DJzrnDhPvoERVnBlNLxZAvZ5p0ZBIk+MkGnJhovoFXNPHtQqi5/t4+WMFB2Adrod8yJo6Rh4ZcU3WjqVjHbacPXwOtCoMru3BwwXBeeww91Uhr3Yy7hjqJPKzh5E6Nt7voF/OtkREwB3t4dBjRss18fgchufIgwj8mNUvSIzBOTouHhXdHeFNwJmiNuUX2saQcoz3JM5MNouqdSISdiOOZ9jragnKC/lQmpzwc17YTe2QySexzw85J8EniPWBduhFWsCoaxry8h6kK3fYopTYeiF2j8zxTBV4h+YsIMMxjRiJTMcz0YATy5PDGBzoQHvPBExrBwhF/bDPtkNW2oEFxzZMWj02hC+5g8Nc/zBS+Q/zGlyG5u42DPGTjz2MVEgsLG+oUZEy9orblus8hEXlldM5fZMsLgz/gR1Wp493NpSynQDM6XuRRB3MYQtbRA3A2l+Ol/Lk0Fh2YFa3QrOROrtwDJfhQv1Miv+FM4GvZxGdjcNJc3lJbDIDiRhmYiIKkfAs+igz9WQaxLjH0UdN8T13orQiDSFbeTY3TuDhDyrxhsdGcdmUVN1wm1v42RO9+OP3KvFHjw7gy0U20YAgqkPs2fRHG6ea8PL1a5bw8JOTeMMzC7i8KqxyJG/TM7WJ59eT17GzmMawzLSJv/vvKbz+J0Z8QenCjjh7hMOo2oKP/HwG9/5gGu+6sgn19SzspFd94uvkB+7ZR+75D93/0BNfiRQKuX6vpIczcuQ1zydX4IQi48fj4tOS57480KKqeR4hhLFvHsbo0mH8BRnEXFONxKcFksVx9kkoW4Zh9SVYSzKSnQW2oKm8gOdeykdd1wQ2UsgjczzDNp7HszBnD9V9aRo4E+8soiJtX5rbrETBeRkmeFPVbfQVtmJRKEdoATO1U/Rgi3FSnwEtDcaUF7OQDFEfrKPXUKe2iPaZBbCmrkC1Sg9ryoenErkkT5jjjhLBsUEiRRQe10FSK5MIF06OMKtsReokMIKltvP8h+0FU7Pnrgikyoe5lku4WN6PNX/SmYxABFOJoRvayhroXDEnMUKamFbRBk1pfWI1neVj5DBytIrB6lI0TNr5FfTI4QLUdVVoGpiFxWqH0+XGwcEBjjxHODpyw2noxrV+A1Ysy9g6FD2kgTk05Attju2hKxPtmRDuHntjKE9zJnJT+zdRkXASc4gi4Cocn5MJnxlJ4ptF4SIUxGykoC5hn0CI/cJuC0Z7J2BNUZbtYbyqFBqxSz1sQl0gOF1iSkILOvK6Yt8zyzAP2kJPfjPMCWijcJk00Iu+8uzR1+PS1Tq09OixIzyLnB2TzYV46XweZPJmdA7oYeOJEAe7aRgTFvG+7lj7/cYG5KkyBmSwBaJWwR5YdPdZT32bGG0sw5UL53GpoBzXemdhT8xnToMvq4GDfV4DVWc32mvzkddpyaJ9l2oNB4dpGOPLsTEtuqaCPP7l9wgztxaybA+kOp4RwvljFEdLA+jSxSwSUqL4C6atuYTn8xQwxGbmmUmyhNg1V1Oe8Us89qfAJ+iCua8Z7ZM7qaQwXt/BjBwXCxswvuZO1QIl2nNG8QnuwtBZjYKL53Exvwz1agMcAonHcfhEEDiYQn1JMzRDLahR9GHGtIjNfT8itiFUS5m8e2fR1LWclIcEPhInQR88icUWtp2jEC2JFQYhPYfNYTX0wtfIo04smGOLjrEUEax156U4axFynuwYxcGCGlX5F3D+UhFqu2ZgO8XzFbJPYmDWlbjfyNEK1Iq2pOffRCOYNlSGDKUZM4PN60bmSJHICHi2YZzSYUY/DEWREkvC9NNjRnOBDD0rsfGHn0P8/+ydCXBb1b3/PW/e/OmbMnRShvxLGWDKY14Iw9L8E0phHmsfU94DSvseFOhjyk6AUlJeKZQ2FCi8tmlCSJzFiZPYsbzbihPb8i7Hm7zKm2zZljfFi7zIm2xZlnS1ff9zJB35arPixImd5HdnnHvu2c/n3quc7/2dRZqPWrUWY9NGLFjnMDo0BavLCYfdBsGygPk5A6b045gR/65O1SJ+ZwxyuthWS+xnohNZKcHzsNmq0Dl+u8mL6rikcxZKaY5n0bQl4wUEOucw1NaImvJSlCnq0KjqwsCEyf2bxRae8deobPsmNpXEAYtF9GGJbXgf6/2/UzBjwTiMxnIFNNMcoqhMUxdO7tuFQ1ktmGR9nbXAl/3+F1WFMBaI6h3GScIwDJjL39uFmQkzxs1m7E8dC9qj0WWdxHPvdiPJT0RcilQKsHXjp2hebtUdI6iUSBF2L/tI4csszzmmhnJ4CnptH3Sz4h+ecfceauO+3pMoY5cZo20KVDYOwPdRTxTs5xQm0V5Vg75Aq6GghpRPPAcbjpiOrBAbGs80pEHWLfrRZB9MjRPQz/GVQ/WoSYjBsZR0pKfzvwxkpCQiMUfpXWnSxYye/odLwHS/EqV5BajSTAULN9cCzlQkIfrrGEhO5KG0VoNJdzUs0PeK5zAsuuuzD/kWNvBZ52pO4dBXEfZ/swygqkYrGsrkX9WlrvjQUSbq2OEnDB09yN2XjvL2dveiM+3tnr0J2blNVYLEI+XBy9q7TBge8IhCX7n2OQy116E0LwvpScdx5FAM9kfvxZ7dX+GrXbuwc+cRFPXP+3U+mZVst7TNx9WqzhItMCNgqr8JVaVyFKTEIDmg57Ei99dX+QvoYBZi9zAlB+aGO6HqHPEMgXTOYaDxNGSncnEqMQZHC/v8P/IYVMiT9ywOV3YswGT2ftmY6ICi07sJufuGzmNq2uKzZrhmz0AzIu4hsb7AaRR3TId4fmwwnGlFZVmz78uta16PMffKTx4urnkdVJW5SE9JQmx0NGQ9/u+aO5bD4XdvLyDRMFm7sNBTgrQcJUZ9AiFMVO7tnMeIpgsDbGVK7zFVm4SCfv5DMI/h1gbUKZWokB4J+o3xJLFhSlOH+h7Dku13zU/DEAIbL3flzw6YdCpUyhXo8vwohS7CtYCBcgn27NyD+PwO+EagsdiXLZ8ZNJySorypG6O+/yO8eCaUSIpLhaywEIW+v3xkJ8dBwizE/NEITdPja59Ff3UOUtNPQZaVgJjEOvjvZODAtKYWKvFSlN78bNN9aCjNgyxPimPRoYefLlX0ioRZRtDWMeb9XXbBPKZCaXENtEbflyc4ZofQ0aFBR7UUh9Jbgz+oTrVAVta3+PsVpmIuUzcKEtNR3iu2tLOV5P1fFpdggLalCoXZmUiRxAf//7LrCPI79OA/ke7iXAb0akYXf/PcC8/wT3QWjLUrIC/MQ0pMqOkLYSq8It4CxjQd0PFnz2WErov1ERYXbON9g46OSqQfSIe8LBUH2Gga/lOlb0RO5QAEODCn06CrdyzM0HpPhY1D3Ria5VsPrTJfhx5t1WyLkXODScLw3LhdBqlM2L2jGes/68FRXaCZZw6//Z13YZl3u5Hm3/+5xNpegO0fV/s6dJdY5cNW1zk/Ck2bGgN+IjJs9LABriEFTirZHn+eQ7BYQna+7LaV3ZvIMqODtqcLapUKmmFD8DwAXiH32YmFsTaUl6swISw+q+49gqwii4Nfmot/wYeBMpHoJwz1jZDV6dwLz4jnELIaOvUqyJtGl2F9WV67bKONkKsWF4AfbSxEC9vYT3RY++RIy2uDeDcCUfCad9r6K5CjmgKEWRiCvpBY0FMpg6J9DNyIt3YbZIWmMBGnagb9FlZZu/U9m5oFbDgOB0bam/ytuRAwocxGSrEmhCiwYqKvE2dmeG/tbMq88HGEmSFo1G3QjJpC/l4G10DA+IBn6wT/sMuTj38bL9SVgM68OKQXKDEcsECSa34UOr9FyQLqIOhQlpIMucawKn0Di8Hg+UglTEPbqUJ7f4iPomyab08JkrOqoI04FDmgfat0Odsuh8JviIcdg1UnUNg2sSgeV6VuTljm57Ag6j+sSjXOs9CLxZeE4XneKEpOBIgAEeAEuPDjZz5sNDA80J+H05kIEAEiQASIABEgAqtFgIThapGncokAEbjsCDDBx0UhOwcKQD7klFkU6SACRIAIEAEiQASIwFoiQMJwLd0NqgsRIAKXPAE+jDRQGIr9SRhe8reZGkAEiAARIAJE4LIjQMLwsrul1CAiQARWmwCfbyi2GHJhyBeoWe06UvlEgAgQASJABIgAERATIGEopkFuIkAEiMB5EhAPJxVnxfzFQlEcRm4iQASIABEgAkSACKw2ARKGq30HqHwiQAQuGwLcKsiGkdJw0cvmtlJDiAARIAJEgAhcEQRIGF4Rt5kaSQSIwMUgwCyCTBCSZfBi0KYyiAARIAJEgAgQgZUkQMJwJWlSXkSACBABIkAEiAARIAJEgAgQgUuQAAnDS/CmUZWJwEUhYOlAfpocGsO5bK0gYEiRjbz6octos+6LQp0KIQJEgAgQASJABIjAqhAgYbgq2KlQInAeBOyjqJBI0WYMk0ek8DDJgrwH5difqYI5KCCEh90Oe6C3uRNZhwqgDQoIjEjXRIAIEAEiQASIABEgAqtNgIThat8Bd/kG/G1bF9rWRF2oEmdNwGpHdpwBP3plErf8chpP7TKh3nDWqc8xoguTdYk4UjIAIWQOkcJDJgrpaVAmIaF2yj+Mrazp7wPABX1NIco6OtDh96dCfX1jgF8HGoukKOoxBeVCHkSACBABIkAEiAARIAKrR4CE4eqxF5W8AGn8MHQiH3KudQIulKXPI7PHAZPggmFcwLG/TOFf/mbBBdWGRhUyDuWgO5wZL1J4GKwTTUUoa/EXduWpe5ByWi0SdiqUZ0hQ0Lfgl4tzuglpmY2YZ772aYzoLYvhLjvsjsVL54wKeTlV6Bidh8h7MQK5iAARIAJEgAgQASJABFaFAAnDFcCuiulE/grkQ1lcSgQEfLHP4hFDvNqTC3j6eSOq+fWKny3Q5B5CRutcmJwjhYdJBju6suOg0IvCHQMoZALUzyw5hJLYPPT7DQ21oPd0FqrOLACOWXTmxiNepsaM04JhzRmYHCboVJWQVzRDO2OFYVwPq6gYchIBIkAEiAARIAJEgAisDQIkDM/nPjgd0Hdp8fy/Kc9ZGDqsNsxMm9Ag16P/fOqy3LQuAbODugtr3VpunS5q/AJsveoqfOMb3/D7u+qqrSg4q3rYIY03o0ccd8GCl98xQSP2W0G3MCRHrKQWk2HWgokUHr4qelTGydArMuHZ+vIRk6vxH646q0RiemvIOYcu8ygaiwpQo52DAy7Mtp/E/v1SqGZYZV0wDSmQtO8AMponQwxFDV8zCiECRIAIEAEiQASIABG4OARIGC7BeVatxba3S3Hzv8pw9QOFuP2FKjz0xzMYc6cx4IuncxC1OXfxbxMXiDYURSvw+EuncdvDTSiAgHpJAzY/LMP33tGi11emAX99rgDfe1SGf/ClZYFT+OodBR54sgUFc9OI2V6Om++X4fqfKPDhaZOvY23SaLH15WKsv0+Gm1+ox/tfKHDbsx1Q+fIP71B+ugFRUa9gX9pruPO69fjhJ3Ioj7+IO679Nu54MwvjLKnLgKbYd/CjO7+L6773Azz/FzlGbIt5zjbFYduTm3Hzt7+Jq6+9Ebff9xgeel3i5QMsHW6HTv53/PKhDVh/9dW4bsPDeDux00+ImNoSsPWRDVh/zTrcfN8v8P6vn8JtW75cbF+E+i3W9OK4ZhVzeEkmUlfuYpkAPVuxuUQ9HXpUHT+KMp3oBoijRwoXxw10W9qQkaSEzw7pMqAxNQZJ5f2YF4lQR48MxypGA1I7YNRp0NKiwaTbuuiCSVsCSUolBgaaodAYfc+rub8IyaeHIMoyIC+6JAJEgAgQASJABIgAEVgtAiQMw5KfwadPlOKDCiOmLE5Y5y3Qdo1h39daqP3SjOJ1P1HHAp0Y75tCjUKNhzcpcVCmwu+zp6E3z6M4fwrTfunZvCwdXvLLQ0CPUoPHN5XhFwc0ONm5AJNgh66iBRt/3AalO/0cdjxTio+q5jFtEtBXqcL3n2pHY6AuCSyLX9ty8FLURryV0YmJ/hg89q1N2JbeicnhODz5j1tRBECX+AzueSUBTaMmmOe0KP7DI3h4d5e3o9+CTzdswgf5PZgyC7DOjUPbWox9f4zz8okU3ozPNv0UB9UTsAgCphv/F/d9exsqeP2gwY7Nm/FRUR+mjdPoK/gdvr/xEzSKhjEuXT9fRhfHMSfg60Qr9EGqZxq99b3B93xZtXLB0JiKw/l9YYZhRgpfujDXYAmOyge9kVwwtGRCUqaDaeg0klLK0DfneajGq+KQowkQpsIcDGbeaBsm22RIktZhzC0SbRipzkZRx3TwiqVLV4lCiQARIAJEgAgQASJABC4yARKGYYGbEPuGHC8mj6N1REBAd1iUKpQw5MEs7DR+3xRpVlWoPDx+fgYo1whe8wlIAz5/qhQf1izAZHNA36LGvU+q0cqLjnjOx+tRr3uHwAa789CLXfc+gYQJUUbzGXh2yw7vUMkziH38Lrx4UI7WwdkQfCKFe/N1GDHUfBpZkm2431cfFqbC5xs34UO5DibBAn3tZ7j3ts9E7YtUP1G9QzrPdyipKFOTDZl5Asa4PhIFrYjT1IGsGCnU4RbyjBQeoRKGhiRI29mCMczaV4rMnFZMuQW4A3pFAr6KyUWPyQqVVIL6mTCZOY3oO52BzLI+GMUcXCb0Fklw/GQl2gZmIAQvaRomQ/ImAkSACBABIkAEiAARuJgESBguRdtigiJXg23bynD7zxR4+4gOvaIFFz1JQ4k6nulSYTwOO4eKF9lvprQRm5+W4/r7ZLjp2VrsavJbKURcQAh3sBj0LKDj8c9DGd77VhSiogL+vvkryHlu5mEoUnZi2zP34/a7H8fbO3LQK16wMkK4WRWL5+/egHt/9gY++PQl/MBPGAIzuW9i85134/pr1uGme36OXdViW+tZ1I/X80KeTQIy8oUQlsKVKlRAX/5hJCtnfEMy/XOOFO4fO/jKAU1uPBR6AVOdpZDJu2AQW52FHuTuPY666SGUHCnCQAhhZ9V3QlFSjExJGira/Vc27ehog0KWiez8LBzdsxO79yVA1jiCoNcouGLkQwSIABEgAkSACBABInARCZAwPEvYTosZyiwlNr3WB61fmlG84bPiAc45AbO+8FDizhcocoSKF8lvBp/8ew1Swm1yLso9tDOSMOzG3+95EpLJ0KkDfZ0Lo1AmvIpNjx0K4OOJGRyuxd4HNmN7PW+AuD4sTRM+ufVnSAm798Py6hdY3xW5ttogzbFiRGQh0yutAUONz68k+0g5jsZXYlws1kRZRgoXRQ3j1KPySBxOlZWjoX82xJBPO4bauzDHFp7J8F94RjDo0K1uQatGD4trDOVH/RewcRfoGkBRbA40C044TDp09upDWJfDVI28iQARIAJEgAgQASJABC4aARKGYVHr8adtHSjoNmNOcMEuCNAqVNj8H2q0+KWZwkc/Oo0v2gRYTfNIPjaAM95wl3kIz2+qRUa4IYA83oInXpp7IziPp9M0hOcC0rq88VKMzGwjQLGnDNc/UY6n3lfivZ0d2C0dQZshhEnHr77eC/MJ/CLqFzjB9sMLcr+ATJML2sNPYMvr8WgYNMAimDHRlY+/fpaGYXcWFfjTs1+goH0Ec1Y77IIB2uIPsflfPvXyiRSuwG+/80N82WSAZX4UrUXb8eg/3Is3owu9wtIAxfb7cP2GB/HUc6/hvY/+jN1xMrRNc4UUqX6hGr2Sfk5UZJuhFo0SFgwCvtwRlAugAAAgAElEQVRtChDG5zHH0DmFWslhlAyEsQRHCj+b5rKFZyR1iPTYOLpliKv0LLvkydYBwSoaYL2gQpp4ARtetqEBkkwVWQg5DzoTASJABIgAESACRGCNEiBhGPbGGBH9qzI89spp3PqADFfdV4CNLyuxvyWwk+6C5mQDNj8iw/qf1uJAB+ssmxD9YsCKpQ+roAgqK8TKpk+zVUWZtdCb/ukOtLnTieJuUiIPZiRtq8TnahucNhsmx+agLGrFluc0Z7VdQum2b7uHiV79bjGK3706yP3tbaWAYwK1Mb/CY3ffhHXrbsSWZ7+A3Gce60b00/fjsUfvwa3X/hOuuuZ6bHzkVeyv5ZPQIoXb0Zv2Fu6/cR3WbXgSX5apkPL8jbjpuWTo3O0dRdJ/PYrPm0xwCiZMDmugPPEbbLl312L7lqxfEOwV9rDi109P4P/+dNLvb/1fLQEi6NxXJZ1rzUBMdlfI7SFYYyKFn02DXQPFOFLCF54Jn2K04ihyNaKVfwKiurSFiPUtYLMYaNfk4mjQSqaL4eQiAkSACBABIkAEiAARWBsESBiujftwDrWYwsePleDt/FlMWJywWazQyFtw50/ObruKcyjwIidpwMc3b8TbGWpMLNhgM09Cc2ob7rz9z4vbVVzkGp1bcQXYuvFTNC83sWMElRIpwu5lHyn8LMubqpVA2hZ6xp8wo4VKkQ9pRiIOHziJLmZdDnNMVMfjWF4TOjr85xjWZx/Cqc7AjylhMiFvIkAEiAARIAJEgAgQgVUjQMJw1dCff8HTrb146w05brhfhmseKsKWt5txvFM0vO/8i1jVHKbrYvDW43fhhm99E9esvwVbnnoPx1v4nMRVrdoyCi/A9o+r1+jefQK6KwqhWZwUG6JdAvoV+WgYXgiz+A1LIkBTlofOoHwE9FQWo9u3QWKI7MmLCBABIkAEiAARIAJEYE0QIGG4Jm4DVYIIEAEiQASIABEgAkSACBABIrB6BEgYrh57KpkIEAEiQASIABEgAkSACBABIrAmCJAwXBO3gSpBBIgAESACRIAIEAEiQASIABFYPQIkDFePPZVMBIgAESACRIAIEAEiQASIABFYEwRIGK6J20CVIAJEgAgQASJABIgAESACRIAIrB4BEoarx55KJgJEgAgQASJABIgAESACRIAIrAkCJAzXxG2gShABIkAEiAARIAJEgAgQASJABFaPAAnD1WNPJRMBIkAEiAARIAJEgAgQASJABNYEARKGa+I2UCWIABEgAgEEbBoUpVZAawrwD3XpnMNwVwc6OsL9taMm5wRq9Y5QqT1+jj7Ik0vRH7E8G6zW0Pk49bXIyuvErJMXY0V/bSX6jT4PHhDh7MBAWQZKeo1w+WK64Fq88PmSgwgQASJABIgAEVgZAiQMV4Yj5UIEiMCVQsA+igqJFG3GMA2OFB4mWZD3eBWO5Whg9wVYsLAQTmA5YDbOYUEIEy5ocCq1AbO+vEI4JqoRJ1XBwoLMevSEEZlN8iTsjy/HiBCYxwLUWcdQ0O/OwRdo0+RiT3oLfHrT6UToWurRWFiOZlauSo6sbAXaRHVQ1+dAktWGOV/O5CACRIAIEAEiQARWkgAJw6VomrqR8dFPseWW63DtTd/H46/+Hh/tyMYohiDf9yW2/cd2FC+VPlJYmPzHIqVb9fABRD8YhaioKFz3m9OLX/RrPsYNUVGIejAaA6tex9WswJX+fFwc9vYJAXt2GnDvf0/i1lem8d9HLOjx1yQXoCIuTNYl4kjJAIJ0kbu0SOFhquScxVCnv7WvrUSCmFN1XiugGg15cYiWVGMpox/mmnEyrQqDZv9yLOqTSG9cWlLZurIRp9ADLhtsdgGmWRMEh8dENySPQY7G5p9pwJUwWILEPA3GBjv9LZeVmTh6qhZqt8hrg0J6FGkNEwiyOQpqSGPk0AXkyy/1imNIa57nl3QmAkSACBABIkAEVpgACcOwQOdRum0TntihwOCcBZZZLcp2PIX1d36JNgyhZMdz2Bj1OvLDpo8UED7/9khJ10C4y5iOnzMR+NA+DHrrM3zoMURFPYO0uSt9vBc9Hxf+EbXj8N+NKNQ5YRJcmNYJOPj5FDbvF3BBpYNRhYxDOegOEF6+9kYK90UMdDhgnp+H2OA3UHIEJYPLe5fmGlOQUDMZkLkZKmkawmoq8zzm7cBYZTxkPQIm61NwXD4kEr5GKJMTUD8TkK340jGOqox89JkBu9kIo9kW2ioY1loIQHcaB+Py0SqyEi4OjW1HieQwKtf+VzMxFXITASJABIgAEbikCJAwDHu7qvD+dc9DuiCOMA3p1j+i3O2Vj9fPSxhGyl9c7lp0s/bfgTu2vIECtyHBjvy3rkHUeTFZi+081zpd6c/HuXI723QC/vYHE/w+okwv4D9fMKLmbLNYdjwLNLmHkNEazvIWKXw5Bc6iPjEDbUEWUAEmUzjL3SwakhKhDBwvampFenrz4lBOv2q4MNHYiEGXgDZpIk43VqCo9gzmxeY8Zx9kBwsxEFajOjCuSMBR+aBHTDqN0IWa76hWIu/4ccgHgxrlrtF8UyqOB4laXtkhlMRkQ7M4rpYH0JkIEAEiQASIABFYIQIkDMOC7MRfv38z3szR+335dszPw2MsON+Of6T8w1ZsjQSw9r+MN9+8Hzu7WJW68Lcnb8EtJAy99+dKfz4iPaYF2HrVVfjGN77h93fVVVtREClpuPCJBfzsw4WwQxHDJTtbf2FIjlhJLSZDT5BDpPBQ5ZjGuv2HXfqsZeVIOZAJhe+aDTNVo14Whz1H5BgKNY51ug6StGABONeYisxW7ww/l2tx6DerkFmD3Lx2WKFD6bEM1I8v+IezOBPVOJre6v3dC26FfbwaKfv3Ir3Z6P2tdMIyb4TFHlZJBmcCF/oLopEkbw/NozkfxyT1MIRISV5EgAgQASJABIjAyhAgYbgEx4nT23H/+u/i0fePoWY0sCcm6vgrP8UtbFilnygqwNarr8Y/RUXh9Vw7kP+We06eOM7S+bOKWXGm4K/45SN344Z163Djlmfwv/JROGFE0adP4vGH78Vt33kHBTCgPvpFbP7OOnzvJ0fRy9vkMqAp9h386M7v4rrv/QDP/0WOEbGxIWx4Pb76yX/ggdu2ocCgRMwbD+Lmb30L19/+OD6UDXk7jp72HzjwI7woNQHGdLz63rt4WcwgbP6eCs42xWHbk5tx87e/iauvvRG33/cYHnpdAj5abOlwO3Tyv+OXD23A+quvxnUbHsbbiZ2i4W+AqS0BWx/ZgPXXrMPN9/0C7//6Kdy25UuozpYPjxfmvHT9rvTnIwy0C+Btszih67Vi914jks4EihEmQM9DbPL6OvSoOn4UZTrxC8QDAUQKF0UVO11WE4wWe7AY09cgPasFE2LLnThhkNvotmYekSkDhJUKBcdjIVN6hWVuIqSqGU95LgNU0sM41bkAzDUi5WSH3/vDi7C2n0BsxSi/9D+btVCUtqFRloiwxj5fCiecYUQ1MIXq+GQ0hVnQx9GbhwOF2mBOvrzJQQSIABEgAkSACJwvARKGEQgKY7U49tsf4+Zv34kXvlZgytfvFHX8TY2I/tNRtBkCxjm5WvDpKwcw7C7DglMfvI1T4/4dy/D5A1N5b+J7t72AmPI+zJgFzA+n4Be3f4Ra2DDeWYeaks/xcNRrOJj2e/w+sRF6Uz+KM+ox7W2TLvEZ3PNKAppGTTDPaVH8h0fw8O4uX+cqXLgT0+ip2oHHo36IX/z5K5xs0cFkXYAufxs2fu8PULrz97Q/r+K3+OHnTUDNH/B2SrLf8Npw+XsQtuDTDZvwQX4PpswCrHPj0LYWY98f46B25x8pvBmfbfopDqonYBEETDf+L+779jZUeNsOaLBj82Z8VNSHaeM0+gp+h+9v/ASNolu0dP18GYVxRKrflf58hMG24t5W/PrpCaz/pQF7WhwhhM00eut7fe/EuRXvgqExFYfz+2ANmUGk8JCJ/D3t/ShJLUKPd36upU2KhOoJv9EK/gkCr1yY0w0j8CfIP9YYyo9J0W7y/ojZJ9HbOeq2BApd2UhVhh4iG3bhGccMNMpOTNqmUJ2Yh3636HPAELj4jNfq2VqWimNZ7Qg5BVnogHRPKir8LKSLi/E05BxGSoTFc/zbSldEgAgQASJABIjAcgmQMDxLYqYeKd7dfC0e/LrT21nzdvwX2nHw4xioQ/cYodqxDZJxAHYFdu6uDdvRC86frfz5z/hQIV7lYgEjZ/Sizi+rwz34fXXgYhOsUb3Yde8TSJgQNXA+A89u2QGN2ytSOMv7FcjEFgtXHl7zWQS97Z+U4Mn/lKDt0PvY2+f1O6v8zyD28bvw4kE5Wgdn4S+XWQaRwr3tchgx1HwaWZJtuN9XNxamwucbN+FDuQ4mwQJ97We497bP0OpNFpmPL2IYR6T6eVlcsc9HGGw+75UbSuq0uTCpE3DsrzN4s0z8wPoKOz+HqQNZMVKoffstBGQXKTwgeqhLW48MB9KbfPv/DZYcDVh4RoDVGtbcFirLRT+rFVamBSeqcTxLHULcOtBfkIxq8W+FL3X4hWecxlnMsyoJnchKa/TNYVxy8RlfvgGOCRVKlDrPb5ugQ0fbGCy+j3AOjHY0YCCkogzIhy6JABEgAkSACBCBcyZAwjAsOg2Kiob8Qh2df8c9/7wdjW5f1vF/AG8eiMPu157AdkXgig/epJqv8NZ+LYTTO/CVUtyxi5R/ObatewEnxLrQrzbsQizEAgPL8N63PFtKsG0lfH/f/BXk7qiRwkPlLfbj7kZsv+99fLz9c9T71SdS/mx+0zAUKTux7Zn7cfvdj+PtHTnoFS/2EyHcrIrF83dvwL0/ewMffPoSfuAnDIGZ3Dex+c67cf0163DTPT/HrmpuS2UAzqJ+gUgDr5esH+NzJT8fgbAuwrXBjJ9vNXktzitVnoC+/MNIVnqHXwZlGyk8KEEIDys6T8WieICbs2fRkHgUeU3cYsa2qojHPrZVBY/CcnEYMBiwxcXiKp7etG01OBm7HxnNBkzVSSBViV8wb1VsfZDFZkA5FmJRmIgLz7DVRMsgKeWbTDigrSmCUs3rzs9q1OWmo3QgcEg+4BIEtyC0Tekw5t6n0QpNzn7EygdFH4ysMJnEjQ+BkbyIABEgAkSACBCB8yJAwjAsPjX+8t870CXuixjT8cx3f+dd9ZB1/F/EKdbPma/DH3/8PJJ9HTtxpv3Y/fIn+PsXO9Hk+wLOwiPl34W/bfoh9vaJ8wKMPT2+OXhLC8Nu/P2eJyEJZUx0ZxkpnAs/cfliP+42IeOF63DDthxY/YRhpPzF+QLOhVEoE17FpscOQesf5L4KDtdi7wObsb2eT0ri9eGJm/DJrT9DStjVKpZXP55ruHNw/Vh9ruTnIxyplfK3Yc9npsX5oizbGTP+6+V574eblSnHPlKOo/GVGA9jiIwUfja1cE3VIWHXIZQMekWTowe58ZXQR0xsh9lohPWsFnkxoE6SDlUIq6e5U4Zc9TR6C1NRog0QjmzhmYzwC8+wKs43peFkBxd8k1BIZOgN4jWGckkxgnffMENTrwL7rKZXxEGiGHeLQVu3DEfkg+69Dp0LC7BAgKYoHeVnQjQgIieKQASIABEgAkSACJwNARKGYSkZkfRfV+EHv05Dy5gJlrkzKP3kIWz8zWn3kCnXfAaei/o5MuY9as+m2YvH/vX3qJgQK0lP5mcOPII7Pm/yze3z+C6dP+BE996H8c8/+xqV2mksWIw4U7Uf7/5vKXjXzWWS4nlRHfyb4oL28BPY8no8GgYNsAhmTHTl46+fpXnnPC4d7gxoH8vbZcrE81HPIMXghGcfQ9Z+oGPHFjxxbAxYkOIF3z6GS+cPVOBPz36BgvYRzFntsAsGaIs/xOZ/+RQt7oZEClfgt9/5Ib5sMsAyP4rWou149B/uxZvRhV5haYBi+324fsODeOq51/DeR3/G7jgZ2qZ5jzVS/fxpBl8tXb8r/fkI5rXSPnYc/KsRBTonFgQXZkYFxO+YxqMSIWCo5HnMMXROoVZyGCUhrFzu1kQKP6smm92LxqSWlSEt9hQ6DA5gvApxuZrgDeDPKr/QkVyTNUiQqny/Hb5Y9lFUyercK626xqtwJKXRbx/IJReecWfiRF++aOEZuwankhsQNFvRrEKGVBVwb1wwduUg2b2wjQB11vHFBWwcAgTvT6mupdUtkp3aQuzdX+L9/fK1gBxEgAgQASJABIjAChEgYbgEyLr9b+PDj7fi3++4Dt/67h34t18dg8rd42nDF3d4h2fe8QXaACg/3RC06ijP2pT7Z+xS+ZkL3UHh8/emtI2gdOfLeOj272LddbfioTdi0eo2kLH5h6LhoWyo6Hd+CwUvkJ8dE6iN+RUeu/smrFt3I7Y8+wXkI6LhrGHDmbXLv32AqM1RL+J/nvaEX/1uMYT8v2G3egYJXr+oB6MxwOoQNn8W2I3op+/HY4/eg1uv/Sdcdc312PjIq9hfy3fRjhRuR2/aW7j/xnVYt+FJfFmmQsrzN+Km55K92xWMIum/HsXnTSY4BRMmhzVQnvgNtty7yzvHMlL9OMRw56XqJ2J1RT4fryM/HLYV9BdGrfjLFzO467lJ3LHVgHfSBP9Vd91lnfuqpHOtGYjJ7gq7TUOk8LNpqqkrB0fSmzDjdEJfI8HXB1Mhl0mQ2BDW1H022QI2M0wC/81hw11jkaMJnAgtYLhaDtW09zfBNYVuzaRoHrQTA8UxyNEEzwBerARbeCYfWv6zMlqBIyllASujdqBDIUWiwt8GatTIcHiPBA3uFb1GURabix6eDy/ApUeltBQjTCSa25CTpfYTrjwanYkAESACRIAIEIHzJ0DC8PwZhsnBgZkzvRif68b+/zmI/jCxyPtCEWjAxzdvxNsZakws2GAzT0JzahvuvP3P/sMPL1TxEfOl5yMiohWJUICtGz9F83LzcoygUiJF2L3sI4WfRXnCWB2yMqug41P7XHPolidi366dOHZKgfrmNnT19EF7ZhBDQ4PQ9vehp3sYs9zovVQZ9ln0V+cgNf0UZFkJiEmsw5Sf6HJgWlMLVdA2PIBtug8NpXmQ5UlxLDr08FNf0YIa0rQm38IzxqZ0ZKl5g3yxMNOQBlk3H27q8bcZJ6CfE7wjKfSoSYjBsZR0pKfzvwxkpCQiMUcJvTupCy6udRezJhcRIAJEgAgQASKwQgRIGK4QyOBsOrD7gfVYf9fzOBqioxQcn3xWmsB0XQzeevwu3PCtb+Ka9bdgy1Pv4XgLn5O40qUtNz96PpZL7NziF2D7x9UiK9i55bLSqezT3ahr6AmxvYQLVoMOmuZqyPOzIU2VID42Bgeiv8bXccXonVvKehdYSwGdeXFIL1BimG9R4Y3imh+Fbqm9LQQdylKSIdcYlmTnGlLgpHLREihYLCGHwNpttoCh9IF1pWsiQASIABEgAkRgtQmQMFztO0DlEwEiQASIABEgAkSACBABIkAEVpkACcNVvgFUPBEgAkSACBABIkAEiAARIAJEYLUJkDBc7TtA5RMBIkAEiAARIAJEgAgQASJABFaZAAnDVb4BVDwRIAJEgAgQASJABIgAESACRGC1CZAwXO07QOUTASJABIgAESACRIAIEAEiQARWmQAJw1W+AVQ8ESACRIAIEAEiQASIABEgAkRgtQmQMFztO0DlEwEiQASIABEgAkSACBABIkAEVpkACcNVvgFUPBEgAkSACBABIkAEiAARIAJEYLUJkDBc7TtA5ROBS4CARd+Hjo6OiH9t9YVIksjQMW0PapUwpY2QXoXq7ERIleMQglIDrgEFpKXdmHP6B1o0RUgr1mDO5e8vvjJqaqGa8tRJ31QChWqxLSpFISr6Fhajz6uQl6PCdEA5LIJVI8fJeh0si7EBCOgtl6FeJ8rDL5wurhQCrskGZJ1qht4mbvEo6rIrMWAW+wW6regsy4dSvfhchn7fVCjPkkKpdwRmQNdEgAgQASJABM6bAAnD80ZIGRCBS4yAfRQVEinajGHqHSpcMGHWZIVdJL7MqkwcU+jDZBLC27YAo0mAT2+5BlAkqcLZ5mBoSER6i8k/Y9cUqiUSZFZ1Yt4/xP9qph6S2DKMOgW0SZPR5Gu7DZ2n0tA454Td7hGOroFiJFSM+qd3X5nRnhWPYq0JIgyAsRkp+5JR768GQqQnryUJuCwYa2uGNuAWL5lmTQVa0JUdg1TlFPxkm1mFjEyV6GOCE07fS8AboEPpYRl6xQnt3chJbsAsj8LOzO+oHLqA7y76tgo06QKeS3E6chMBIkAEiAAROAsCJAzPAtKFj2LA37Z1oe3CF7RCJQwg+sEoREVF4brfnF7sJNd8jBuiohD1YDQGVqikKyYbi4A/vjGHkgveYBcm6xJxpGQgpFUOiBTOK+hAb14MSgb8JBIPDDpPqxSoCbQ4NuXhqKQYbQH+bdU5OFmrh3/f14lu2RG49ZrL5X3mXJhWZiClWo+FjjIoxsS96sAqDKIoRoY+uw7yBDl0vuBRlKUrMAEHumRHUaI1w9CQjFyNf+nu6IYmFNfq/Tv9sEFbFI8stU9pAr76+QohRyQCgh5NpxJxQjkW8rm06lUoSo1F9J79SFLo4GeQi5R3hPCxyiPYtWuX39/O/bnoXtLCF5ypfbQSCSlKTEwPolP8TCukOJyp8FnLW8tScSyr3d/CbWpBapISoqcIGKuEpCTgl3SsEsdk3QHPIGCbaEZGzBHkaWYXf4+Dq0g+RIAIEAEiQASWJEDCcEk8FytwAdL4YVFn9WKVe+7luIzp+DkTgQ/tw6A3m+FDjyEq6hmkLTWm79yLvIxTutB0fBrfefoiCEOjChmHcsJ3eiOF++7CCE7HnoIm1JhPXxyPwzHTgkxZG0wzA77O8eCMA0JXNlKUeuh7+fC5IcxadagvrUP3mNHd+XfODns72UrkHD6OIlUTSlJSUDUiwKavxUmZ2jO01NoDWWIxtOYAoTqjQat7DJ8NRqMR1iklUrPUEBamMWFyAqYWSPN64IQeVZICaJ0OaHKT0GAQNWJGBXlZMxoK8lDR1oGO9jrkprOyAIe+GscPZ6PeJwRaUZ6eCPngWYARFXFFO4VxVCfHQdZpCBI8jItjQomMpHy0jc5DmG1Ecnw1plYKmGsEipwKnJldtGTbRlvROOg/WDhicc4p1KZmoHnGBdgXMGc0w+a1Cs7UJ0PWHeJDgyhTl7YIR+RDIh9gQZUJaZt/PRZUGUhSih/OxSTCmAKS6ETUTyz1gWQxPrmIABEgAkSACAQSIGEYSOQcrlUxncg/h3SXdpJ8vB51B+7Y8gYK3J/v7ch/6xpERb1+BbI4vzspaE348TvTuPeCC0MLNLmHkNE6F6bCkcJFyaZqEZ/WjKBRf3YD9NNiUeTAWJsCar3Yz5PPcGk85Pyrgjdry9Qk5sXD7Jw22ByAc6QchxNqMeON55hRo6SoFZM+05ELhjYpDsZkoLJjGDMWbyauARQeyUE3618b+tDTkI/E6gnYNDk4JOvBgrYQmY1zgFUNaXoLFqBHpaQIYkMoi5tQPbHYeN1pJOT3wWrXo+ZUIfpMIjFqaUPmoWKQLlzEtbTLhK7sw0htmAwpCuGaQX1KBlr4xyanCQZj8LO0dBlLhE73ondKdP+EUai7mP14OYcLhqY07E+rwwSrmmsYSrkSau/HgtMph5Fd7/n4oarMRV67IciqN10nQVx+s+/DCZtfWJV5GFIF/2jiOVdlxiJAP4oq6oRecRy7U5sQ7g0XRSYnESACRIAIEIEgAiQMg5Asw8PpgL5Li+f/TXnOYshhtWFm2oQGuR79yyh69aMyYfgy3nzzfuzsYrXpwt+evAW3XDHCsABbr7oK3/jGN/z+rrpqKwqWc3OcdsR8bEB0vwW/vsDCUBiSI1ZSi0mx8BLVNVS4aazbr7PKF8RQFSXgwInqgLAWlCbvw66YXHQHKcY5DPusasOYwxwaktKhmhyDxuvfpQs3S9CG3rx92JWkgN7qgnlUjfrmAYj1mKcZAvSqPByPOwFFlx5Wt+cclEkHUDpsx1BnN87UJCK/z4mxygQUap2Yqs1A6TCAYTkk5SMAE3YZrRCPIhyrPO5Ow1HNN6XhZMc8huvK0D7tLyFcZ4px0DfUzwWnYMScyT8Oz4fOgLW/ADEJ1WGfScdAMWJlPSs6dDQ8dwE6tSbkokPh0wDOKSVy0hMRK1VhgWnM6TpIcjTeodBjKJfIwR4xNky7v0AChV4kRN3+NnScTECtnxl0BrVJAXMOMYNaSSba/Y2I/lWbVUKyMwXN4V4l/9h0RQSIABEgAkTAjwAJQz8c/hezai22vV2Km/9VhqsfKMTtL1ThoT+ewZg7mgFfPJ2DqM25i3+buEC0oShagcdfOo3bHm5CAQTUSxqw+WEZvveOFr2+Ygz463MF+N6jMvyDLy0LnMJX7yjwwJMtKJibRsz2ctx8vwzX/0SBD08vLjBg0mix9eVirL9PhptfqMf7Xyhw27MdUPnyj+BwGdAU+w5+dOd3cd33foDn/yLHiM8Cw4SfZx7h/3krH9aTL7vnFC5aBFn46zhw4Ed4UWoCjOl49b138bJYGC6ZPzDbFIdtT27Gzd/+Jq6+9kbcft9jeOh1iZdvpHA7dPK/45cPbcD6q6/GdRsextuJnX7zk0xtCdj6yAasv2Ydbr7vF3j/10/hti1fLvKJUL8I9FYkeChvFq/m2+GANYwwZAJ0mWIzVM0celQdP4oyne8G+8cKE+6yskVnBDj8+rJMbElQr1EgztcB9s8u4pVLj84Grf+cKjZs0G5fXJyGZzLbhOTdO5F2uhwphzPRMGLClNbfktKhUiBLqsCowKb4iSvrwHBzI8ZmOtDcZ0LHyVQ0zZvRmpGGVpMNHaeyoBaAOWUqsrtswKAckkrPG+4pni1Wk4ImX0fbhb58CYqbO9A/PYPh/gm/Z26y5jhSeeQhOfbv3IPc2kacOsO6LKwAAB/QSURBVBqN6LhKaHVKZB2Jxt5D+eh1d/CdmB9qgCz5CPZHH0CcVIEhkeJ1mobQUJCOuJhofL17D/YfOo6kxAJ0ehdAjRQuTGtQmZ2Iw/u+xtd7YyDJU8MgxmMaRr0sCYf27cGeA/HIKi5A2mEJanwrAi1dP36Lzu1sQnPaV8hQBX1F8GbnhLbwIHLbR9BWlIJDe79G9BEpGthNvgCHMKKGZirMV5Nw5dn1UMobMd6Vh+S6aXcsuyYXSV43TM1IY0OX3SHTqEmSoS+oCB3kx/yt1LBrkJ2i9Lf8Mb+4CIs1OTQ4tTMWVePhKkz+RIAIEAEiQATCEyBhGJbNDD59ohQfVBgxZXHCOm+BtmsM+77WQu2XZhSv+4k6FujEeN8UahRqPLxJiYMyFX6fPQ29eR7F+VPwdB9Emdh1eMkvDwE9Sg0e31SGXxzQ4GTnAkyCHbqKFmz8cRuU7qRz2PFMKT6qmse0SUBfpQrff6odjcswTugSn8E9rySgadQE85wWxX94BA/v7vINc7LPtuCrH9+F31VZANcIUv+8B81G3qv0CMO8it/ih583ATV/wNspyW6xyIfVLp1/Cz7dsAkf5PdgyizAOjcObWsx9v0xzss3UngzPtv0UxxUT8AiCJhu/F/c9+1tqPBh1WDH5s34qKgP08Zp9BX8Dt/f+AkaRVN9lq6fL6ML55i24Lf7LfAMUgwnDKfRW98b/Mwsq1YuGBpTcZgNfwyZLlK4fyKXXuEeRjrRJkViPR/c6R/Hd2XWo8dnKQwQc4H+qipkHJKgelwsXgX0y08gOSEWFaMLaM1MBJtiZTObYLGaYPZpBBfG22uhmfR5+KoAODBcVw+dQwe5pBQ6pxb5SWye2ghOp1ZCDyd6ZElgfXmDMgW5GnH5OsgPp6HCV1clcuPz0OdVyoaGVCTUjHvfGQtUUnGnfBjyAzHIahyC0aJB9q5YZLcOwbigQc7XTJgCC30FSJTWQjtthiCYoKtOQUzxGW9+BjQkxkKmGsGc1Q6HbQGzE0NokVdD625mpPA5KFMSUTk0C6vd4Z6fl7ZLinbfQ2BES/pRyNrGYLTaYB5XQLJbhm7RV4Cl6ydCfC5OoQsndydCGXbc4xjKDx1CiqwC7aNGNx+tPB67T3WuvAXRMY7mpqGABY8iNcqEIZUaY1ZAr0hEkdbz26grO4zkUrXHml6ehsMnaz1u9WkkJ9UjaIbgdB0STrT7fWBwLzwTOM56rBJHfdboMHUT1JDuTBZ9yAgTj7yJABEgAkSACIQgQMIwBBSPlwmxb8jxYvI4WtlCF2HjhRKGPDILO43fN/l6Yjwg4BwqD4+fTCz0XCN4zScgDfj8qVJ8WLMAk80BfYsa9z6pRmtAzuEve7Hr3ieQIJo6hfkMPLtlBzSiRA7dCbz0o/dw4OA+lIxxUcgieIRh/qQET/6nBG2H3sfePq+fO32k/M8g9vG78OJBOVoHZ0PwjRTuraTDiKHm08iSbMP9YmslVPh84yZ8KNfBJFigr/0M9972mYhPpPqJIIR0nu9QUifyEkyo9RlLwgnDkIUvz9PUgawYKdS+sgKSRwr3i26FJucoirQCBkuOoFg8Gc8vHr8QYDKa/ba5cOiqIC3pDzEUlKdZPNtGqlGi6kFl3CkwvWY1mWCx2TzCya5Bdb13/J1jAIWHM9E0E0IYzjajpGESMDYihVlvRiuQXKaD25rjFhkTULCFZ1wOdMuS/ReeMTV7FqvhVRI6kZWqXNwaY7wO2TWjnjlpTi0KYvLQzy1CpmakxJTBvfHFPHOXYoTl43afhs4xhOKjMvSKqzxTj4R0PpR1DBWHmTAcwqTJ22ZeD/c5Urg3st2EyeEeqJUyHOV1YEHOPsi+TkT1uBl2hxUzmgIcTVIuCpeI9fOrzPIvJmsQ95UMveKfFXEuCyqkRWehQ2RBZYLpUGKDvyVNnOYc3bOtVWjzWYXPLhOXyQCD+94xq3I6VG4rrgBdmxKD7rxcGJInelbSZVnO9aOxe9r34Y2XYmpOQwwXj94PEKpiCY7lNfkN1WZ+yUq/zSt4Fr6zXVuE/ZK6xXvoCyEHESACRIAIEIHIBEgYLsXIYoIiV4Nt28pw+88UePuIzjv8S5wolKjj4UuF8TjsHCpeZL+Z0kZsflqO6++T4aZna7GrSdzDFOcfyl2G977lGSrKtp3w/X3zVyhxOuFwOGCz2dx/vYeexG3v5Prvp8WFIRqx/b738fH2z1Hv82Plhc9fzqtjHoYiZSe2PXM/br/7cby9Iwe94j3CI4SbVbF4/u4NuPdnb+CDT1/CD/yEITCT+yY233k3rr9mHW665+fYVS221Z5F/Xg9L8iZCcEJ/N+fTgb9rd9hWablYqkKCujLP4xk5UxQh9STKlK4f97CsBzHpW2YxywaEtOhEk/G84/qu5rrrERlC7cWqlGRl4/6oI28VaiQydA+w1UV2zd+DC31fTCZ25AhWVx4ZkalRJ/7UR9BqaQEw05A6JYhoXxENAzVBdPUCPR6LaozToGNVrT1ynFKZYBekY4ynQuY06F/wupZeCa1ESa2Mmmi/5A+Z18+JH4Lz5QhIdzqH3oFjmaqfPMTnf0FiPZat9zukx3uDyDMvfdkB4TBEuzbudNvmwS2bcLuXI2vHQ7TKNQ1hciMj0GMJBsKzbTfs7F0uICxplwcj41Hek4h5Flx+IqV67szVvQWJOBIbDS+3nsQ8dIK9M0t8nedRf18WZ2LY6Iax/bkw2toC85Br8CRJP/hlPYeGfbLuhcZzHZCJjkKabP43Q7OakkfxzDkBYv3bcm4IQOHIZeU+4bAA2NQqcbhdI2iLEkO9qiFP8xQZUrc1urFOC5oi9hcxEUfNj9RW3RkiYVn2BTGWTSlRSOtOawJVpwhuYkAESACRIAIBBEgYRiEJLSH02KGMkuJTa/1QesXZRRv+Kx4gHNOEAmoUOLOL7H3IlS8SH4z+OTfa5Dit/FVqLzD+XXj7/c8CcnkYjibm8XFoO88LEN0aisadzyLbUXiYYPcOmhCxgvX4YZtObD6CcPg/BdLCnY5F0ahTHgVmx47FMDXEzc4XIu9D2zG9noOgNeH592ET279GVKCxm3x8OXVj6e6cOcLYzG0j5TjaHwlxsWWZ1EjIoWLogKWARQnnkD7rAtw9CD3WAUCpzLN9fdD9Ei5F9zoy4/Fae/GgY7ePCR5V9lgbj4vy71xt6Qai1O8zBjrGXRvRcE2nD9cpPUJW0tbFjLd89LGUXGYLbRhgio7Gx0BFlG7aQQN0v3Ym6txiyH33EPbIIozS9GkGfBtOM7yZ/s6wtoOacDCM3qFxH/hmea0oC0EOCNjUyokfG4ZADbfMMHb1kD38ZpJCOosHAwnMnmmvrMTVoMWpZKDKNKGupnB4UJfPo6eaMWMd7gDqwMrlx+mjpOIO63zceX+/Ly8+vFUyzjbupGz52iIxVi8eTBhGKcQPU829OUfQq5ojxSnthj7d+1CWjP/HVhG+d6ogiYX6WG2gDir3OaUSMnuWhSrcGGspgD1jflIrZ4Iy9ed93wz0jNaFi3Qbs9p1CTmosfvNhtQJxEPAw6smRlD5RIcTG+GYVHbB0aiayJABIgAESACSxIgYRgWjx5/2taBgm4z5gQX7IIArUKFzf+hRotfmil89KPT+KJNgNU0j+RjAzjjDXeZh/D8plpkBHRY/ZKzrvOCJ16aaCgTW1TiuYC0PF6Ke56fAMWeMlz/RDmeel+J93Z2YLd0BG1+K0sElrR47XI50X/4Sdzzejzqz0zDIpgx0ZWPv36WgkGHA06nE3ZDI/7+hzicEWxwCUps/9GLSNV6lsTz7GP4c2TMAx07tuCJY2PAghQv+PYxdEF7+AlseT0eDYMGUf5p3hX6KvCnZ79AQbtn/pRdMEBb/CE2/8unXr6RwhX47Xd+iC+bDLDMj6K1aDse/Yd78WZ0oVdYGqDYfh+u3/AgnnruNbz30Z+xO06GNt8qkpHqt8jqYrjsM2Y8/7QBx/V883Ze6nnMMWR7q0kOo2Rg0UbEc3WfI4WLI9v0UGalo3LIuyTieBWOBS08Y0W7MtDyMo2ahBPo8FaBzcUq9JqIxPOyMF4FSTF/c1jBLrZPvPtgS/lnsAl53oMJllj3AjEGaJS9mB2tQnYNmykYfIxVHkOOT0i4MKM8hcJeM4zNJyFVebYNEGZGoWcrhw7JIalwD/z0ZmSFKvMQchq4tbMDlRnHwyzsYYIq4wh869a4FqDK/Nqzfx13a+zsZYcqczdymXu8CrGHcqAaM0JgcwCNY+iqUUDjHS3YW5yOKu0kTAJ7H20wTXajKD7OJ6Qihfflfw2JYhyCzQKDrhvypF2Iz1FiwPs7YzlTjMN7YpCQKkVOgRwVta3onxI9KxHqF0x7uT4CtIUx2JelDt72hGVl64Vs7yHIOqZgERag78iHJKMJYqMynHoosuQYElV7ebWwo0d20L1C7fLSLcZ29MgWF5vh3tN1OL4rEUuP/HRAV5aGMp1o4jNLz4YrJ9WLPjAC7sVo4hXe+ci8EO/ZbkBXYTxikisxJB5xERCNLokAESACRIAIRCJAwjAsISOif1WGx145jVsfkOGq+wqw8WUl9rcE9kBc0JxswOZHZFj/01oc6GCf502IfjFgxdKHVVAElRViZdOn2aqizFroTf90B9rc6URxNymRBzOStlXic7UNTpsNk2NzUBa1YstzGr85gkFFsqlFTqfHMmgZheLgu/jx/7sF1157E7Y8+wXkI7x7zSxwUfjHf7wXX3XYMHbsCd+qpHmYQcLTnuGnV79bDCH/b9itXvSLejAaA6xgxwRqY36Fx+6+CevW3RiQfzein74fjz16D2699p9w1TXXY+Mjr2J/LbdKRgq3ozftLdx/4zqs2/AkvixTIeX5G3HTc8nwGKdGkfRfj+LzJhOcAptjpYHyxG+w5d5di3yWrF8ochfGr+Kg/3DSH0vFHcVzX5V0rjUDMdldvqGNgbWPFM7jO+e1qMrNg3J0ca6sWSVFnP9YN8DUhkxJOUbFE3LZAiPHudVHQPuJNLS4NZ4AdVa6ewEWVg7LL9MzSYsX6z3b0HkqBmxKID+EYTW6mdXSfZjRWabwrKbL9jzkjy8LY4vNxEjci9WwS+tIDQqqBj2WQkMDJPsKcUYUf1aZihzxwjOuARTFlXqfJ5bDFKrZFgL89riMGGptQJ2yCcrydBwSzc/TK465h4juzFThTOWRIPcuaRssEDDRXoLUowexd89+HE0vQbtvv0cL1LLjSEqKR0z0bnz19T4ckpxEZfeMd4+9SOHAQn8pJAf2YE9MEorV49AUHcSBpBqMuetvRm9BMgp75uFw2mGZn8F4fxkSoouwuLXkUvVzwz//f8xaFMZGI1U5FULYuzDbLUfyob3Ys/8I0opaMe63VYMVo6110Bj8TGvLrNMslNIcaM5iSHS4jJlVmS88w+K4FnSokSZBeiIB++NkaBwINYea/TfRhvzivuD3U1eKoyILOcvTOVzq3rZD9Li6P56YR5ohOx6LlFINZvhzGa6i5E8EiAARIAJEIAIBEoYRAK3d4Cl8/FgJ3s6fxYTFCZvFCo28BXf+JHi7CvHy/eLhokwg+kQiW9CDm2hEjWZDSu32S7HH0YCPb96ItzPUmFiwwWaehObUNtx5+58Xt6sQtXPtOguwdeOnaF5uBR0jqJRIEXYv+0jhrDyXFfrOOlTUdEC/qAndNTF15eLggaNISU9HuvsvFccPxeB4TiPGxd9OdGWIzev1dvo9q4K6F2CBDvLEMuiMY9AOaFErTQiYU8UbrEMpWzjHaoG+d9Fyx/dT7GgqRp5chY4OFRTSQ4iXDy6uvDpSjpjdMvS5nJjTKqFo1i12wl1a5B8qxBmHCSOqWihqaiA7ngq2173vmO+Fsn1CNETQioWFQBEiYLQqDcdPKaD1rdjry2HtOhxsldQ4yLUG94qldsssdM3ZOJys9LdUXYQWOAw9qKzTLt63i1DmyhVhgSrTu/CMy4qJLgUK8ivQ6X5hBOjbiiDZtxv74zOQX16LpvZheB4TEzSVtRgWvyveSs0qM3HSvVKUBWMd1SjMSockJhonOwLUq3McradrodFblh6uunKNpZyIABEgAkTgMidAwvASvsHTrb146w05brhfhmseKsKWt5txvNNjrmEiT7yADBOA7OBCkF8zPyb8mAC8vIQh22c6Bm89fhdu+NY3cc36W7DlqfdwvOXc5yKtzqNSgO0fV4ewplzY2lgmteju1GB4Tmz+W36Zs6oCyHu8w0BtkxjSzXva4pjD5DTrFdtgUBVCWt4fejjhfDvys1VgdmTBNAuT1bGMTrAdC8YJ6DSd6AvqPFsxNWn05OVagCY/EdI6nWhhluW39dJKIWC8JQ9Jh/e590fcFxOH9IIGvz0UL632rFJtXTo0FLdhQNcDTUcXtJPmoHfVZZ1Cb2M5cnMq0DsruJ85s06DAdFCP+La2/mqu15PQVuBrNM97vm24njkJgJEgAgQASKw0gRIGK400TWQn2/hGO+qokz4cSHIzkwwikVgOGHI4ly6FsM1cCOoCkSACBABIkAEiAARIAJE4BIhQMLwErlRy6kmF4aBAjBUHlz8sTSBBw+7NIeSBraGrokAESACRIAIEAEiQASIABEIR4CEYTgya9yfDwllgo4JQPEhtgAyccficouhOB5z8+Gm4cK5yAxMR9dEgAgQASJABIgAESACRIAIXD4ESBhegvdSLAq5cBNb9bjY4wIxVBzWbG4RZOHhDp6WxaWDCBABIkAEiAARIAJEgAgQgcuTAAnDS/C+crHGq86vudVPLByZO/Cap+MCkoVzyyLLSywCeXqehs5EgAgQASJABIgAESACRIAIXH4ESBhegveUC0FedbHwY37smlkL2ZkfgXGYP88n8CxOx9PTmQgQASJABIgAESACRIAIEIHLlwAJw0vw3nIhJ7bscb+lRB2Pw5rM0vJrfmYWRHGelyAaqjIRIAJEgAgQASJABIgAESAC50CAhOE5QFvtJHwIKDvzI5QfE4lc6HEhyOci8msSg5wgnYkAESACRIAIEAEiQASIwJVLYM0Kw/e+e6t7Q3KJyrs59pV7j4JaHmpYKPfjwo8LRWYNFC9Cs5RFMagg8iACRIAIEAEiQASIABEgAkTgiiCwZoWhYBpDy+HncdND0dBeAbeCCzs+rDNQwDELH/NjIo9b+1hcHo/7cWHIkAWKQx73CsBJTSQCRIAIEAEiQASIABEgAkRgGQRWVRhOTExArVbDaDSGrrKQjZeveRfy0KGXja/Yoid2cyEnFnhMDLJrFsatgQwEv2ZhdBABIkAEiAARIAJEgAgQASJABJZDYNWEIROFXV1dGB8fh0ajgckUashoAbZetRUFy2nRGo/LLHviI5Sg435M+LGDX3NByNOLRSSLy/4C8+dx6UwEiAARIAJEgAgQASJABIgAEQhHYFWEIROFYjHIRKH4erGyl4cwZGItUMRxAcf9mfgTH1zoBfqL4zA3E4ssD3bmeQbGoWsiQASIABEgAkSACBABIkAEiMBSBC66MJycnAwpAkOLQzneveZV5HoMZ0u146KHcSteJOHGxBoXeUy8sT92zc7s4NeB+YQTjBe9oVQgESACRIAIEAEiQASIABEgApc9gYsqDOfm5txzCkMPG4V7OCmbc7gokiaQ/da/4X8K9FgL2pDVi1vlmJsJPCbg+MH8xHGYf6Dw4+lYWnYEXvO8uJjk5XF/OhMBIkAEiAARIAJEgAhcOQRYX5D1F1mfk53pIAIXisBFFYZskRkm/JY6/MOdGC76As/e/f6qzzPkAo9b+lgbxOKNW/i4H39x2cvMxR3PIzCOOK1YKIrLWooZhREBIkAEiAARIAJEgAhcPgTEYpD3G9mZ9y8vn5ZSS9YSgTUuDBX44Ibb8UGpAau91iZ7QZlQ4yKP3USx0ONfcbgfu+YHS8Nfav6is2seh/mJxSG9+JwcnYkAESACRIAIEAEicGUREBsJeP+Rn8X90CuLCrX2YhBYNWHILIOBf6zB/hZDtvjMK8gRLgaKyGWwl1EsDsUvrvhFDXx5uVjkccKlYzXgcSLXhmIQASJABIgAESACRIAIXMoEWL+P9Qv5H2sL82N9SXGfk/ctL+W2Ut3XPoFVE4bh0AQLw9XdroK9qNyyxwUeO/ODv6hiQcfjsbTs4NZA5s/8WBrux+Pw/OhMBIgAESACRIAIEAEicPkT4H1C3pdkZ3EfU0xgqTBxPHITgfMhsLaFoZCDV656C4Xn08LzTMtfVpYN/4LD/PjBRaD4ReYvOheU/JrnJY7L86EzESACRIAIEAEiQASIwOVLQGxEEPcpWT9R3FcUx2M0eFwWhw4icCEJrFlhaDONozX2Bdx41xdQXUgC3rzZS8dFnviF5JY9XgUu7vjLKX6ReRx25vF4XuzM/8TxyE0EiAARIAJEgAgQASJweRJgfT/ev2R9w8D+I79mred9Tt535ER4X1Mcl4fRmQisJIFVEYaBcwsDr1kD311/M+569CV8VTmxku1dMi/+4nJLH4vMX1KekMdhZ34EikDmz8LZX+DLzdPQmQgQASJABIgAESACRODyJcD7h/zM+pRc3LFzYD+R9zkD+44kDC/fZ2StteyiC0O2ZYX4z39O4erj4S8lF378mteMvaz8Bed+LC7z42m4P52JABEgAkSACBABIkAErkwCvL8YKABD0QjVv+TxSBhyEnS+0ARIGAYQFr+Y7EUMFIYsOn/RWTg7WBruDsiOLokAESACRIAIEAEiQAQuUwJctIUyEPA+JOsn8r5iuP4iNzKECud9UzJAXKYP0RpqFgnDEDeDv4BcALKz+OA/AvSCiqmQmwgQASJABIgAESACVw4B3h8U9xeZGOQHF3tcIPJ44jgsrrjfydOKz5HCxXHJTQTOhwAJwzD0Al92cTR6QcU0yE0EiAARIAJEgAgQgSuPABd6vOX8mlv9xH1J5g685um4gGThrI/J4zE3P1gc5k8HEbiQBEgYLkGXv6jsRRcf/IUN9BfHITcRIAJEgAgQASJABIjA5UuAC0HewsD+Ibtm1kGxoAuMw9LyfALP4nS8DDoTgQtJgIRhBLr8JRVH435MONJBBIgAESACRIAIEAEicOUR4P1BsWWP+y0l6ngcRkw8Co37s/6lOM8rjyy1eLUIkDBcgjz/qhM4Fpz50wu7BDgKIgJEgAgQASJABIjAZU6AjywTGwpC+Yn7jVwI8r4lvyYxeJk/LJdI80gYhrlR7IXlX26W+uoTJjl5EwEiQASIABEgAkSACFzGBLgBgfUX+cH9uPDjQpHFob4lp0TntUqAhGGYO8O+4Ii/8ISJRt5EgAgQASJABIgAESAClwkBLuyWMg6wPiK38AXG4xZALgwZlkBxyMqggwisRQIkDJe6KzYNilIroDUtFckb5pzDcFcHOjrC/bWjJucEavVLzEt09EGeXIr+iOXZYLWGzsepr0VWXidmfb85VvTXVqLf6PM4i8awKA4MlGWgpNeIxTWx2D48Z5mcohEBIkAEiAARIAJE4BIiILboid1cyIUSjdyPC0F+zcQgHUTgUiNwaQpD+ygqJFK0GcPgjhQeJlmQ93gVjuVosLgjjQULC+EElgNm4xwWhDDhgganUhswG1SIyGOiGnFSFSzMy6xHTxiR2SRPwv74cowIorRu5wLUWcdQ0O/OwRdo0+RiT3oLfHqTLZnsCxU79GgsLEczK1clR1a2Am2iOqjrcyDJasOcOAm5iQARIAJEgAgQASJwCRFgVj32Jz5CCTrux4eKiq+5xZDlIRaR3IIYmL+4LHITgbVK4BIUhi5M1iXiSMkAgnSRm3Kk8DC3wjmLoU5/a19biQQxp+q8VkA1GvLiEC2pxlJGP8w142RaFQbN/uVY1CeR3ri0pLJ1ZSNOoQdcNtjsAkyzJggOzw/XkDwGOf+/fXP7TSIKwvj//6ZG22qhcqmU24NaQA1ro0jFLUgoEEObGruEBISo7S4urlw+c9rOcnbZDfGlCpmTkHPOzJwLv336dmZb8xp25+7XM0vLI5ptoat9cmYuCykEnpbQvBJ5dRTTAcSP+lh4l2U1kd5U0PHaHMDXYhDxquHjZTMTYAJMgAkwASbABP5fArKwIwFHtyVxJ2LkRnHCLsSe20+xQiiKPWTBSD7umcCqEFg9YagfI7n1HCcu4WUDX+a3A92DCUzDgJzwO89vI6853yi5V7nnl5UYwu8HLrOJ43QcvprKNGCMgW7hMTKnFgZqDCGlLQlfHeUnYajfXdvK00kP75I5nJnA2NShm7+9s4K+2UIAnQNs7ORQk7KE89LYBvKRhyh05UN5zASYABNgAkyACTCBf0eAxJ6fYKObUZwQemLsFoJC0JGP1ojeHSf7eMwE1o3AignDEVr7W0jW/DJvy/x/8/guoEaTqDurMgFYGA79MncXONqNouyuFx3WkEhU56WcjmvM0K9UoM0s1NNRHFTe4lXpCww5nTc9Q2bjJc59NeoEvWIYAUW7FpNTHR2v7x2bZWRDISjawp+6upHxcQ+hBVFLl20jv/kMrXldLTm4ZwJMgAkwASbABJjArREQwo5KNUnwCQFHTdjkGGGnzB/FkBCkdbSPiJMbraPzZB+PmcC6EVgpYWi1FTyKlDBwZvntZ7LMbwdKg2H3xFl2aWfL3iD2IIWiPRdlpk2omR3c2VbQ9qpj/fYBkfiiALys7CFVu/nCT9S1S+fDbGE/28AvdPA6mITa++n0i9j+IQKJGvySpOPeIWL37yJR1W+yhFOMDB2jseMk+VSP8QyfX9zDrtLw5lHNIRhR8cNjJZuYABNgAkyACTABJnAbBEjQiZ6aLN4ow0c2IfhEE8KOfu4YEn2yXRaK8ll0JvdMYB0J/AEH4HH3QL+0IAAAAABJRU5ErkJggg==;" vertex="1" parent="1">
          <mxGeometry x="610" y="370" width="902" height="188" as="geometry" />
        </mxCell>
        <mxCell id="IDeXR4Nn8I1j4QwbW-1Z-7" value="组队邀请" style="rhombus;whiteSpace=wrap;html=1;" vertex="1" parent="1">
          <mxGeometry x="205" y="240" width="140" height="70" as="geometry" />
        </mxCell>
        <mxCell id="IDeXR4Nn8I1j4QwbW-1Z-8" value="不在队伍中" style="rhombus;whiteSpace=wrap;html=1;" vertex="1" parent="1">
          <mxGeometry x="210" y="330" width="125" height="60" as="geometry" />
        </mxCell>
        <mxCell id="IDeXR4Nn8I1j4QwbW-1Z-9" value="报错 结束" style="whiteSpace=wrap;html=1;" vertex="1" parent="1">
          <mxGeometry x="387.5" y="345" width="100" height="30" as="geometry" />
        </mxCell>
        <mxCell id="IDeXR4Nn8I1j4QwbW-1Z-11" value="是" style="text;html=1;align=center;verticalAlign=middle;resizable=0;points=[];autosize=1;strokeColor=none;fillColor=none;" vertex="1" parent="1">
          <mxGeometry x="337.5" y="328" width="40" height="30" as="geometry" />
        </mxCell>
        <mxCell id="IDeXR4Nn8I1j4QwbW-1Z-12" value="是" style="text;html=1;align=center;verticalAlign=middle;resizable=0;points=[];autosize=1;strokeColor=none;fillColor=none;" vertex="1" parent="1">
          <mxGeometry x="217.5" y="300" width="40" height="30" as="geometry" />
        </mxCell>
        <mxCell id="IDeXR4Nn8I1j4QwbW-1Z-13" value="超过组队频率" style="rhombus;whiteSpace=wrap;html=1;" vertex="1" parent="1">
          <mxGeometry x="205" y="410" width="135" height="66" as="geometry" />
        </mxCell>
        <mxCell id="IDeXR4Nn8I1j4QwbW-1Z-15" value="报错 结束" style="whiteSpace=wrap;html=1;" vertex="1" parent="1">
          <mxGeometry x="387.5" y="427" width="100" height="30" as="geometry" />
        </mxCell>
        <mxCell id="IDeXR4Nn8I1j4QwbW-1Z-16" value="是" style="text;html=1;align=center;verticalAlign=middle;resizable=0;points=[];autosize=1;strokeColor=none;fillColor=none;" vertex="1" parent="1">
          <mxGeometry x="337.5" y="410" width="40" height="30" as="geometry" />
        </mxCell>
        <mxCell id="IDeXR4Nn8I1j4QwbW-1Z-17" value="记录本次时间" style="whiteSpace=wrap;html=1;" vertex="1" parent="1">
          <mxGeometry x="222.5" y="500" width="100" height="30" as="geometry" />
        </mxCell>
        <mxCell id="IDeXR4Nn8I1j4QwbW-1Z-19" value="验证聊天消息" style="rounded=0;whiteSpace=wrap;html=1;" vertex="1" parent="1">
          <mxGeometry x="210" y="578" width="125" height="32" as="geometry" />
        </mxCell>
        <mxCell id="IDeXR4Nn8I1j4QwbW-1Z-20" value="玩家被禁言" style="rhombus;whiteSpace=wrap;html=1;" vertex="1" parent="1">
          <mxGeometry x="400" y="561" width="112" height="66" as="geometry" />
        </mxCell>
        <mxCell id="IDeXR4Nn8I1j4QwbW-1Z-21" value="返回错误" style="whiteSpace=wrap;html=1;" vertex="1" parent="1">
          <mxGeometry x="560" y="580" width="100" height="30" as="geometry" />
        </mxCell>
        <mxCell id="IDeXR4Nn8I1j4QwbW-1Z-22" value="是" style="text;html=1;align=center;verticalAlign=middle;resizable=0;points=[];autosize=1;strokeColor=none;fillColor=none;" vertex="1" parent="1">
          <mxGeometry x="512" y="558" width="40" height="30" as="geometry" />
        </mxCell>
        <mxCell id="IDeXR4Nn8I1j4QwbW-1Z-23" value="消息检测" style="whiteSpace=wrap;html=1;" vertex="1" parent="1">
          <mxGeometry x="406" y="660" width="100" height="30" as="geometry" />
        </mxCell>
        <mxCell id="IDeXR4Nn8I1j4QwbW-1Z-24" value="&lt;div style=&quot;background-color:#ffffff;color:#080808;font-family:&#39;宋体&#39;,monospace;font-size:12.0pt;&quot;&gt;&lt;pre&gt;public static int &lt;span style=&quot;color:#00627a;&quot;&gt;getSmallHornBroadcastType&lt;/span&gt;(){&lt;br&gt;    &lt;span style=&quot;color:#0033b3;&quot;&gt;int &lt;/span&gt;&lt;span style=&quot;color:#000000;&quot;&gt;chatType &lt;/span&gt;= &lt;span style=&quot;color:#000000;&quot;&gt;EnumConstant&lt;/span&gt;.&lt;span style=&quot;color:#000000;&quot;&gt;ChatTypeEnum&lt;/span&gt;.&lt;span style=&quot;color:#871094;font-style:italic;&quot;&gt;CHAT_TYPE_SYSTEM&lt;/span&gt;.getType();&lt;br&gt;    &lt;span style=&quot;color:#000000;&quot;&gt;chatType &lt;/span&gt;|= &lt;span style=&quot;color:#000000;&quot;&gt;EnumConstant&lt;/span&gt;.&lt;span style=&quot;color:#000000;&quot;&gt;ChatTypeEnum&lt;/span&gt;.&lt;span style=&quot;color:#871094;font-style:italic;&quot;&gt;CHAT_TYPE_HALL&lt;/span&gt;.getType();&lt;br&gt;    &lt;span style=&quot;color:#000000;&quot;&gt;chatType &lt;/span&gt;|= &lt;span style=&quot;color:#000000;&quot;&gt;EnumConstant&lt;/span&gt;.&lt;span style=&quot;color:#000000;&quot;&gt;ChatTypeEnum&lt;/span&gt;.&lt;span style=&quot;color:#871094;font-style:italic;&quot;&gt;CHAT_TYPE_ROOM&lt;/span&gt;.getType();&lt;br&gt;    &lt;span style=&quot;color:#000000;&quot;&gt;chatType &lt;/span&gt;|= &lt;span style=&quot;color:#000000;&quot;&gt;EnumConstant&lt;/span&gt;.&lt;span style=&quot;color:#000000;&quot;&gt;ChatTypeEnum&lt;/span&gt;.&lt;span style=&quot;color:#871094;font-style:italic;&quot;&gt;CHAT_TYPE_TEAM&lt;/span&gt;.getType();&lt;br&gt;    &lt;span style=&quot;color:#000000;&quot;&gt;chatType &lt;/span&gt;|= &lt;span style=&quot;color:#000000;&quot;&gt;EnumConstant&lt;/span&gt;.&lt;span style=&quot;color:#000000;&quot;&gt;ChatTypeEnum&lt;/span&gt;.&lt;span style=&quot;color:#871094;font-style:italic;&quot;&gt;CHAT_TYPE_GUILD&lt;/span&gt;.getType();&lt;br&gt;    &lt;span style=&quot;color:#0033b3;&quot;&gt;return &lt;/span&gt;&lt;span style=&quot;color:#000000;&quot;&gt;chatType&lt;/span&gt;;&lt;br&gt;}&lt;/pre&gt;&lt;/div&gt;" style="text;html=1;align=left;verticalAlign=middle;resizable=0;points=[];autosize=1;strokeColor=none;fillColor=none;" vertex="1" parent="1">
          <mxGeometry x="800" y="561" width="600" height="200" as="geometry" />
        </mxCell>
        <mxCell id="IDeXR4Nn8I1j4QwbW-1Z-25" value="chatType不能是默认值" style="whiteSpace=wrap;html=1;" vertex="1" parent="1">
          <mxGeometry x="406" y="720" width="100" height="30" as="geometry" />
        </mxCell>
        <mxCell id="IDeXR4Nn8I1j4QwbW-1Z-26" value="私聊不能给自己发消息" style="whiteSpace=wrap;html=1;" vertex="1" parent="1">
          <mxGeometry x="406" y="770" width="100" height="30" as="geometry" />
        </mxCell>
        <mxCell id="IDeXR4Nn8I1j4QwbW-1Z-27" value="消息发送必须小于1s" style="whiteSpace=wrap;html=1;" vertex="1" parent="1">
          <mxGeometry x="406" y="820" width="100" height="30" as="geometry" />
        </mxCell>
        <mxCell id="IDeXR4Nn8I1j4QwbW-1Z-28" value="不能是系统消息" style="whiteSpace=wrap;html=1;" vertex="1" parent="1">
          <mxGeometry x="406" y="870" width="100" height="30" as="geometry" />
        </mxCell>
        <mxCell id="IDeXR4Nn8I1j4QwbW-1Z-29" value="不能是喇叭和跑马灯消息" style="whiteSpace=wrap;html=1;" vertex="1" parent="1">
          <mxGeometry x="406" y="920" width="100" height="30" as="geometry" />
        </mxCell>
        <mxCell id="IDeXR4Nn8I1j4QwbW-1Z-30" value="大厅消息必须是玩家在房间或者组队过程中" style="whiteSpace=wrap;html=1;" vertex="1" parent="1">
          <mxGeometry x="389" y="970" width="134" height="40" as="geometry" />
        </mxCell>
        <mxCell id="IDeXR4Nn8I1j4QwbW-1Z-31" value="记录发消息时间" style="whiteSpace=wrap;html=1;" vertex="1" parent="1">
          <mxGeometry x="412" y="1030" width="100" height="30" as="geometry" />
        </mxCell>
        <mxCell id="IDeXR4Nn8I1j4QwbW-1Z-32" value="验证失败则返回" style="whiteSpace=wrap;html=1;" vertex="1" parent="1">
          <mxGeometry x="210" y="1060" width="140" height="30" as="geometry" />
        </mxCell>
        <mxCell id="IDeXR4Nn8I1j4QwbW-1Z-33" value="重新封装消息" style="whiteSpace=wrap;html=1;" vertex="1" parent="1">
          <mxGeometry x="210" y="1120" width="140" height="30" as="geometry" />
        </mxCell>
        <mxCell id="IDeXR4Nn8I1j4QwbW-1Z-34" value="如果是 房间邀请 则替换敏感词" style="rounded=0;whiteSpace=wrap;html=1;" vertex="1" parent="1">
          <mxGeometry x="396" y="1115" width="120" height="40" as="geometry" />
        </mxCell>
        <mxCell id="IDeXR4Nn8I1j4QwbW-1Z-35" value="是大厅消息 则直接build" style="whiteSpace=wrap;html=1;" vertex="1" parent="1">
          <mxGeometry x="387" y="1290" width="138" height="30" as="geometry" />
        </mxCell>
        <mxCell id="IDeXR4Nn8I1j4QwbW-1Z-36" value="重新构建&lt;br&gt;ChatMessageData" style="whiteSpace=wrap;html=1;" vertex="1" parent="1">
          <mxGeometry x="396" y="1170" width="120" height="40" as="geometry" />
        </mxCell>
        <mxCell id="IDeXR4Nn8I1j4QwbW-1Z-38" value="系统消息则直接build&lt;br&gt;结束" style="whiteSpace=wrap;html=1;" vertex="1" parent="1">
          <mxGeometry x="391" y="1230" width="130" height="40" as="geometry" />
        </mxCell>
        <mxCell id="IDeXR4Nn8I1j4QwbW-1Z-39" value="是队伍消息 则设置teamId" style="whiteSpace=wrap;html=1;" vertex="1" parent="1">
          <mxGeometry x="387" y="1340" width="138" height="40" as="geometry" />
        </mxCell>
        <mxCell id="IDeXR4Nn8I1j4QwbW-1Z-40" value="是房间消息 则设置目标为房间Id 过滤条件为服务器Id" style="whiteSpace=wrap;html=1;" vertex="1" parent="1">
          <mxGeometry x="387" y="1400" width="138" height="50" as="geometry" />
        </mxCell>
        <mxCell id="IDeXR4Nn8I1j4QwbW-1Z-41" value="&lt;div&gt;&amp;nbsp;case CHAT_TYPE_ROOM: {&lt;/div&gt;&lt;div&gt;&amp;nbsp; &amp;nbsp; &amp;nbsp; &amp;nbsp; &amp;nbsp; &amp;nbsp; &amp;nbsp; &amp;nbsp; &amp;nbsp; &amp;nbsp; final long customRoomId = chatPlayer.getCustomRoomId();&lt;/div&gt;&lt;div&gt;&amp;nbsp; &amp;nbsp; &amp;nbsp; &amp;nbsp; &amp;nbsp; &amp;nbsp; &amp;nbsp; &amp;nbsp; &amp;nbsp; &amp;nbsp; final long channelServerId = chatPlayer.getChannelServerId();&lt;/div&gt;&lt;div&gt;&amp;nbsp; &amp;nbsp; &amp;nbsp; &amp;nbsp; &amp;nbsp; &amp;nbsp; &amp;nbsp; &amp;nbsp; &amp;nbsp; &amp;nbsp; builder.setTargetId(customRoomId);&lt;/div&gt;&lt;div&gt;&amp;nbsp; &amp;nbsp; &amp;nbsp; &amp;nbsp; &amp;nbsp; &amp;nbsp; &amp;nbsp; &amp;nbsp; &amp;nbsp; &amp;nbsp; builder.addSendFilter(channelServerId);&lt;/div&gt;&lt;div&gt;&amp;nbsp; &amp;nbsp; &amp;nbsp; &amp;nbsp; &amp;nbsp; &amp;nbsp; &amp;nbsp; &amp;nbsp; &amp;nbsp; &amp;nbsp; break;&lt;/div&gt;&lt;div&gt;&amp;nbsp; &amp;nbsp; &amp;nbsp; &amp;nbsp; &amp;nbsp; &amp;nbsp; &amp;nbsp; &amp;nbsp; }&lt;/div&gt;" style="text;html=1;align=left;verticalAlign=middle;resizable=0;points=[];autosize=1;strokeColor=none;fillColor=none;" vertex="1" parent="1">
          <mxGeometry x="560" y="1390" width="420" height="110" as="geometry" />
        </mxCell>
        <mxCell id="IDeXR4Nn8I1j4QwbW-1Z-42" value="是局内队伍消息 则设置目标为房间Id 过滤条件为服务器Id，局内队伍Id" style="whiteSpace=wrap;html=1;" vertex="1" parent="1">
          <mxGeometry x="387" y="1460" width="138" height="50" as="geometry" />
        </mxCell>
        <mxCell id="IDeXR4Nn8I1j4QwbW-1Z-43" value="是个人消息 &lt;br&gt;则设置月卡状态" style="whiteSpace=wrap;html=1;" vertex="1" parent="1">
          <mxGeometry x="387" y="1520" width="133" height="40" as="geometry" />
        </mxCell>
        <mxCell id="IDeXR4Nn8I1j4QwbW-1Z-44" value="是&amp;nbsp;CHAT_TYPE_NEARBY&lt;br&gt;则设置频道服Id，房间Id，好友Id" style="whiteSpace=wrap;html=1;" vertex="1" parent="1">
          <mxGeometry x="385" y="1570" width="142" height="50" as="geometry" />
        </mxCell>
        <mxCell id="IDeXR4Nn8I1j4QwbW-1Z-45" value="是&amp;nbsp;房间阵营&lt;br&gt;则设置房间Id，好友Id" style="whiteSpace=wrap;html=1;" vertex="1" parent="1">
          <mxGeometry x="382.5" y="1630" width="142" height="40" as="geometry" />
        </mxCell>
        <mxCell id="IDeXR4Nn8I1j4QwbW-1Z-46" value="是 局内房间全部&lt;br&gt;则设置房间Id" style="whiteSpace=wrap;html=1;" vertex="1" parent="1">
          <mxGeometry x="382.5" y="1680" width="142" height="40" as="geometry" />
        </mxCell>
        <mxCell id="IDeXR4Nn8I1j4QwbW-1Z-47" value="三方屏蔽词校验" style="whiteSpace=wrap;html=1;" vertex="1" parent="1">
          <mxGeometry x="210" y="1175" width="140" height="30" as="geometry" />
        </mxCell>
        <mxCell id="IDeXR4Nn8I1j4QwbW-1Z-48" value="广播消息" style="whiteSpace=wrap;html=1;" vertex="1" parent="1">
          <mxGeometry x="205" y="1760" width="155" height="30" as="geometry" />
        </mxCell>
        <mxCell id="IDeXR4Nn8I1j4QwbW-1Z-49" value="转发消息" style="rounded=0;whiteSpace=wrap;html=1;" vertex="1" parent="1">
          <mxGeometry x="212.5" y="1810" width="135" height="30" as="geometry" />
        </mxCell>
        <mxCell id="IDeXR4Nn8I1j4QwbW-1Z-50" value="转发节点" style="rounded=0;whiteSpace=wrap;html=1;" vertex="1" parent="1">
          <mxGeometry x="212.5" y="2400" width="135" height="30" as="geometry" />
        </mxCell>
        <mxCell id="IDeXR4Nn8I1j4QwbW-1Z-52" value="系统消息" style="rhombus;whiteSpace=wrap;html=1;" vertex="1" parent="1">
          <mxGeometry x="402" y="1805" width="108" height="35" as="geometry" />
        </mxCell>
        <mxCell id="IDeXR4Nn8I1j4QwbW-1Z-53" value="所有在线玩家均发送" style="whiteSpace=wrap;html=1;" vertex="1" parent="1">
          <mxGeometry x="552" y="1807.5" width="130" height="30" as="geometry" />
        </mxCell>
        <mxCell id="IDeXR4Nn8I1j4QwbW-1Z-54" value="大厅消息" style="rhombus;whiteSpace=wrap;html=1;" vertex="1" parent="1">
          <mxGeometry x="404" y="1860" width="108" height="35" as="geometry" />
        </mxCell>
        <mxCell id="IDeXR4Nn8I1j4QwbW-1Z-55" value="所有在线玩家均发送" style="whiteSpace=wrap;html=1;" vertex="1" parent="1">
          <mxGeometry x="552" y="1865" width="130" height="30" as="geometry" />
        </mxCell>
        <mxCell id="IDeXR4Nn8I1j4QwbW-1Z-56" value="房间信息" style="rhombus;whiteSpace=wrap;html=1;" vertex="1" parent="1">
          <mxGeometry x="405" y="1920" width="108" height="35" as="geometry" />
        </mxCell>
        <mxCell id="IDeXR4Nn8I1j4QwbW-1Z-57" value="匹配频道+房间Id" style="whiteSpace=wrap;html=1;" vertex="1" parent="1">
          <mxGeometry x="552" y="1922.5" width="130" height="30" as="geometry" />
        </mxCell>
        <mxCell id="IDeXR4Nn8I1j4QwbW-1Z-58" value="队伍信息" style="rhombus;whiteSpace=wrap;html=1;" vertex="1" parent="1">
          <mxGeometry x="408" y="1970" width="108" height="35" as="geometry" />
        </mxCell>
        <mxCell id="IDeXR4Nn8I1j4QwbW-1Z-59" value="队伍Id" style="whiteSpace=wrap;html=1;" vertex="1" parent="1">
          <mxGeometry x="552" y="1972.5" width="130" height="30" as="geometry" />
        </mxCell>
        <mxCell id="IDeXR4Nn8I1j4QwbW-1Z-60" value="私聊信息" style="rhombus;whiteSpace=wrap;html=1;" vertex="1" parent="1">
          <mxGeometry x="412" y="2030" width="108" height="35" as="geometry" />
        </mxCell>
        <mxCell id="IDeXR4Nn8I1j4QwbW-1Z-61" value="给发送者+接收者" style="whiteSpace=wrap;html=1;" vertex="1" parent="1">
          <mxGeometry x="552" y="2033" width="130" height="30" as="geometry" />
        </mxCell>
        <mxCell id="IDeXR4Nn8I1j4QwbW-1Z-62" value="战队信息" style="rhombus;whiteSpace=wrap;html=1;" vertex="1" parent="1">
          <mxGeometry x="412" y="2090" width="108" height="35" as="geometry" />
        </mxCell>
        <mxCell id="IDeXR4Nn8I1j4QwbW-1Z-63" value="给战队发送" style="whiteSpace=wrap;html=1;" vertex="1" parent="1">
          <mxGeometry x="552" y="2092.5" width="130" height="30" as="geometry" />
        </mxCell>
        <mxCell id="IDeXR4Nn8I1j4QwbW-1Z-64" value="局内附近的人信息" style="rhombus;whiteSpace=wrap;html=1;" vertex="1" parent="1">
          <mxGeometry x="415" y="2150" width="108" height="35" as="geometry" />
        </mxCell>
        <mxCell id="IDeXR4Nn8I1j4QwbW-1Z-65" value="roleId+房间校验" style="whiteSpace=wrap;html=1;" vertex="1" parent="1">
          <mxGeometry x="552" y="2152" width="130" height="30" as="geometry" />
        </mxCell>
        <mxCell id="IDeXR4Nn8I1j4QwbW-1Z-66" value="局内阵营" style="rhombus;whiteSpace=wrap;html=1;" vertex="1" parent="1">
          <mxGeometry x="415" y="2210" width="108" height="35" as="geometry" />
        </mxCell>
        <mxCell id="IDeXR4Nn8I1j4QwbW-1Z-67" value="(阵营)roleId+房间Id" style="whiteSpace=wrap;html=1;" vertex="1" parent="1">
          <mxGeometry x="552" y="2215" width="130" height="30" as="geometry" />
        </mxCell>
        <mxCell id="IDeXR4Nn8I1j4QwbW-1Z-68" value="局内小队" style="rhombus;whiteSpace=wrap;html=1;" vertex="1" parent="1">
          <mxGeometry x="417" y="2270" width="108" height="35" as="geometry" />
        </mxCell>
        <mxCell id="IDeXR4Nn8I1j4QwbW-1Z-69" value="roleId+频道+房间Id+队伍" style="whiteSpace=wrap;html=1;" vertex="1" parent="1">
          <mxGeometry x="552" y="2275" width="130" height="30" as="geometry" />
        </mxCell>
        <mxCell id="IDeXR4Nn8I1j4QwbW-1Z-70" value="局内房间" style="rhombus;whiteSpace=wrap;html=1;" vertex="1" parent="1">
          <mxGeometry x="419" y="2330" width="108" height="35" as="geometry" />
        </mxCell>
        <mxCell id="IDeXR4Nn8I1j4QwbW-1Z-71" value="房间Id" style="whiteSpace=wrap;html=1;" vertex="1" parent="1">
          <mxGeometry x="552" y="2333" width="130" height="30" as="geometry" />
        </mxCell>
        <mxCell id="IDeXR4Nn8I1j4QwbW-1Z-72" value="所有节点走 转发消息" style="whiteSpace=wrap;html=1;" vertex="1" parent="1">
          <mxGeometry x="415" y="2400" width="143" height="30" as="geometry" />
        </mxCell>
        <mxCell id="IDeXR4Nn8I1j4QwbW-1Z-79" style="edgeStyle=orthogonalEdgeStyle;rounded=0;orthogonalLoop=1;jettySize=auto;html=1;exitX=0.5;exitY=1;exitDx=0;exitDy=0;entryX=0.5;entryY=0;entryDx=0;entryDy=0;" edge="1" parent="1" source="IDeXR4Nn8I1j4QwbW-1Z-73" target="IDeXR4Nn8I1j4QwbW-1Z-74">
          <mxGeometry relative="1" as="geometry" />
        </mxCell>
        <mxCell id="IDeXR4Nn8I1j4QwbW-1Z-73" value="getFriendList" style="rounded=0;whiteSpace=wrap;html=1;" vertex="1" parent="1">
          <mxGeometry x="1185" y="920" width="140" height="30" as="geometry" />
        </mxCell>
        <mxCell id="IDeXR4Nn8I1j4QwbW-1Z-80" style="edgeStyle=orthogonalEdgeStyle;rounded=0;orthogonalLoop=1;jettySize=auto;html=1;exitX=0.5;exitY=1;exitDx=0;exitDy=0;" edge="1" parent="1" source="IDeXR4Nn8I1j4QwbW-1Z-74" target="IDeXR4Nn8I1j4QwbW-1Z-75">
          <mxGeometry relative="1" as="geometry" />
        </mxCell>
        <mxCell id="IDeXR4Nn8I1j4QwbW-1Z-74" value="从DB中获取数据" style="whiteSpace=wrap;html=1;" vertex="1" parent="1">
          <mxGeometry x="1185" y="980" width="140" height="30" as="geometry" />
        </mxCell>
        <mxCell id="IDeXR4Nn8I1j4QwbW-1Z-75" value="从Redis取角色昵称等信息" style="whiteSpace=wrap;html=1;" vertex="1" parent="1">
          <mxGeometry x="1180" y="1040" width="150" height="30" as="geometry" />
        </mxCell>
        <mxCell id="IDeXR4Nn8I1j4QwbW-1Z-81" style="edgeStyle=orthogonalEdgeStyle;rounded=0;orthogonalLoop=1;jettySize=auto;html=1;exitX=0.5;exitY=1;exitDx=0;exitDy=0;" edge="1" parent="1" source="IDeXR4Nn8I1j4QwbW-1Z-76" target="IDeXR4Nn8I1j4QwbW-1Z-77">
          <mxGeometry relative="1" as="geometry" />
        </mxCell>
        <mxCell id="IDeXR4Nn8I1j4QwbW-1Z-76" value="getCorpsMemberDataList" style="rounded=0;whiteSpace=wrap;html=1;" vertex="1" parent="1">
          <mxGeometry x="1400" y="920" width="168" height="30" as="geometry" />
        </mxCell>
        <mxCell id="IDeXR4Nn8I1j4QwbW-1Z-83" style="edgeStyle=orthogonalEdgeStyle;rounded=0;orthogonalLoop=1;jettySize=auto;html=1;exitX=0.5;exitY=1;exitDx=0;exitDy=0;entryX=0.5;entryY=0;entryDx=0;entryDy=0;" edge="1" parent="1" source="IDeXR4Nn8I1j4QwbW-1Z-77" target="IDeXR4Nn8I1j4QwbW-1Z-78">
          <mxGeometry relative="1" as="geometry" />
        </mxCell>
        <mxCell id="IDeXR4Nn8I1j4QwbW-1Z-77" value="从DB中获取数据" style="whiteSpace=wrap;html=1;" vertex="1" parent="1">
          <mxGeometry x="1414" y="980" width="140" height="30" as="geometry" />
        </mxCell>
        <mxCell id="IDeXR4Nn8I1j4QwbW-1Z-78" value="从Redis取角色昵称等信息" style="whiteSpace=wrap;html=1;" vertex="1" parent="1">
          <mxGeometry x="1409" y="1040" width="150" height="30" as="geometry" />
        </mxCell>
      </root>
    </mxGraphModel>
  </diagram>
</mxfile>
